<svg id="图层_1" data-name="图层 1" xmlns="http://www.w3.org/2000/svg" viewBox="0 0 500 500"><defs><style>.cls-1{fill:#00447c;}</style></defs><title>画板 1 副本 106</title><path class="cls-1" d="M135.42,236.44,107,294l-45.24,6.57a62.47,62.47,0,0,0-1.16,19.34L89.47,348l-.2,1.17a54.45,54.45,0,0,0,13.15.69,15.69,15.69,0,0,1-3.36-1.33c-6.25-3.41-8.63-10.22-6-17.37a5,5,0,0,1,9.35,3.39c-1.21,3.34.25,4.59,1.45,5.25a6.9,6.9,0,0,0,5.05.49,521.42,521.42,0,0,1,6.39-59.41A7.5,7.5,0,1,1,130,283.47c-6.28,35.91-7.4,78.67-7.4,104.65l12.79-6.72,56.8,29.86L181.37,348l46-44.79L163.82,294Z"/><path class="cls-1" d="M185.48,120.77,208.74,133l-4.44-25.9,18.81-18.34L199.2,85.28c-2.77,0-4.43-.12-4.43-.12s.63-.48,1.8-1.28L185.48,61.41,173.85,85l-14.94,2.17q-1.72,4.33-3.35,9.13l11.11,10.82L162.22,133Z"/><path class="cls-1" d="M301,161.59l23.26-12.23,23.26,12.23L343,135.69l9.79-9.55c-.84-3.62-1.71-7.1-2.59-10.48l-14.39-2.09L324.22,90l-11.63,23.56-26,3.78,18.81,18.34Z"/><path class="cls-1" d="M412.22,245.13l-25.73-3.74-11.63-23.56-11.63,23.56-26,3.78L356,263.51l-4.44,25.9,18.73-9.85a7.5,7.5,0,0,1,14.41,1.33c.1.54.18,1.09.27,1.63l13.11,6.89-4.45-25.9,18.67-18.2Z"/><path class="cls-1" d="M346.81,414l23.26,12.23-4.44-25.9,11.74-11.45c0-2.49,0-5.14,0-7.93l-18.9-2.74-11.63-23.57-11.62,23.57-26,3.78L328,400.28l-4.44,25.9Z"/></svg>