<svg id="图层_1" data-name="图层 1" xmlns="http://www.w3.org/2000/svg" viewBox="0 0 500 500"><defs><style>.cls-1{fill:#ffce00;}</style></defs><title>1画板 1 副本 85</title><path class="cls-1" d="M142.21,449.1c6.58-18.85,14.46-42.18,23.77-71,28.85-89.17,10.52-74.22-42.08-37.23-2.13,38-.94,70.43-.92,70.91a7.54,7.54,0,0,1-3.8,6.82c-5.7,3.26-13.82,10.43-13.1,15.41C107.37,442.9,119.27,447.88,142.21,449.1Z"/><path class="cls-1" d="M250,126.1c10,0,25.37-20.5,34.08-41.28l-6.64,0c-2.92-.07-6-.06-9.12-.18s-6.36-.16-9.62-.19l-2.45-.06-2.46,0c-1.64,0-3.29-.08-4.94-.06s-3.28,0-4.92,0l-4.89,0c-1.62,0-3.22,0-4.82.07s-3.17,0-4.71.09-3.08.1-4.59.12-3,.13-4.42.15-3.08.08-4.55.14C224.66,105.63,240,126.1,250,126.1Z"/><path class="cls-1" d="M102.42,349.87a15.69,15.69,0,0,1-3.36-1.33c-6.25-3.41-8.63-10.22-6-17.37a5,5,0,0,1,9.35,3.39c-1.21,3.34.25,4.59,1.45,5.25a6.9,6.9,0,0,0,5.05.49,521.42,521.42,0,0,1,6.39-59.41A7.5,7.5,0,1,1,130,283.47c-.45,2.6-.88,5.24-1.28,7.9,25.23-11,68.55-31.73,68.55-44.13,0-16.45-35.59-41-68.41-54.31L123,200c-21.52,25.67-40.1,47.85-54.14,78.93-3,6.73-9.46,23-8.47,38.61a52.5,52.5,0,0,0,.87,6.38,31.45,31.45,0,0,0,14.33,20.79C81,348.06,92.71,350.65,102.42,349.87Z"/><path class="cls-1" d="M380.81,418.63a7.54,7.54,0,0,1-3.79-6.81c0-.48,1.21-32.88-.92-70.91-52.6-37-70.93-51.93-42.08,37.23,9.31,28.78,17.19,52.11,23.77,71,22.94-1.22,34.84-6.2,36.13-15.06C394.64,429.07,386.52,421.9,380.81,418.63Z"/><path class="cls-1" d="M298.82,445.09c-5.37-34.73-22.05-131.85-44-144.79a8.8,8.8,0,0,0-9.68,0c-21.93,12.94-38.61,110.06-44,144.79,17.86-3.62,24.5-9,25.7-21a106,106,0,0,0,.31-12.7c0-1.26-.06-2.46-.05-3.65a39.58,39.58,0,0,1-5.76-3.22c-.86-.6-1.66-1.22-2.41-1.81s-1.4-1.22-2-1.81a27.07,27.07,0,0,1-2.86-3.33,18.77,18.77,0,0,1-1.52-2.38c-.32-.58-.47-.89-.47-.89l1,.13c.64.08,1.54.26,2.68.41s2.47.35,3.95.55,3.14.34,4.9.46c.89,0,1.77.15,2.72.16.47,0,.93.05,1.41.07l1.45,0c2,.06,4,.1,6.15.1h20.45c2.27,0,4.48,0,6.6,0s4.18,0,6.13-.13,3.83-.18,5.6-.31l2.55-.23c.82-.08,1.6-.19,2.37-.26l4-.51c1.13-.13,2.08-.32,2.72-.38s1-.11,1-.11-.16.31-.49.87a20,20,0,0,1-1.54,2.33,29.79,29.79,0,0,1-2.89,3.3c-.6.6-1.29,1.16-2,1.8s-1.54,1.19-2.4,1.81a40.22,40.22,0,0,1-5.58,3.18c0,1.24,0,2.49-.05,3.8a106,106,0,0,0,.31,12.7C274.32,436.09,281,441.47,298.82,445.09Z"/><path class="cls-1" d="M431.12,278.88C417.08,247.8,398.5,225.62,377,200l-5.87-7c-32.82,13.36-68.41,37.86-68.41,54.31,0,12.4,43.32,33.11,68.55,44.13-.4-2.66-.83-5.3-1.28-7.9a7.5,7.5,0,1,1,14.77-2.58,521.42,521.42,0,0,1,6.39,59.41,6.9,6.9,0,0,0,5.05-.49c1.2-.66,2.66-1.91,1.45-5.25a5,5,0,0,1,9.35-3.39c2.59,7.15.21,14-6,17.37a15.69,15.69,0,0,1-3.36,1.33c9.71.78,21.41-1.81,26.81-5.21a31.44,31.44,0,0,0,14.34-20.81,53.57,53.57,0,0,0,.86-6.34C440.59,301.94,434.16,285.61,431.12,278.88Z"/></svg>