<svg id="图层_1" data-name="图层 1" xmlns="http://www.w3.org/2000/svg" viewBox="0 0 500 500"><defs><style>.cls-1{fill:#f7931e;}</style></defs><title>12画板 1 副本 111</title><path class="cls-1" d="M283.71,357.8a25.88,25.88,0,0,0,13.93-47.68,17.73,17.73,0,0,0,5.13-12.57c0-9.53-7.26-17.25-16.21-17.25a16.09,16.09,0,0,0-14.15,8.82,23.71,23.71,0,0,0-9.15-1.82c-12.75,0-23.08,10-23.08,22.25a22.45,22.45,0,0,0,17.68,21.63c0,.25,0,.49,0,.74A25.88,25.88,0,0,0,283.71,357.8Z"/><circle class="cls-1" cx="116.15" cy="265.15" r="22.85"/><path class="cls-1" d="M158.11,283.67a19.63,19.63,0,1,0,19.63,19.63A19.63,19.63,0,0,0,158.11,283.67Z"/><path class="cls-1" d="M145.13,243.12a15.54,15.54,0,1,0-15.54-15.54A15.54,15.54,0,0,0,145.13,243.12Z"/><path class="cls-1" d="M97.48,296.35a15.81,15.81,0,0,0,0,31.62c.36,0,.71,0,1.06-.05a16,16,0,0,1,1-5.28,3,3,0,0,1,5.63,2.09,11.55,11.55,0,0,0-.43,1.44,15.8,15.8,0,0,0-7.31-29.82Z"/><path class="cls-1" d="M166.57,381.45a29.48,29.48,0,1,0-1.92-30.11,18.25,18.25,0,1,0,1.92,30.11Z"/><path class="cls-1" d="M192.54,419.62a8.32,8.32,0,1,0-8.31,8.31A8.31,8.31,0,0,0,192.54,419.62Z"/><path class="cls-1" d="M200.61,100.63A16.66,16.66,0,0,0,217.27,84c-3.26-2.84-6.15-7.18-8.73-13.11-.3-.68-.63-1.37-1-2.06a16.66,16.66,0,1,0-6.95,31.8Z"/><circle class="cls-1" cx="169.41" cy="95.3" r="8"/><path class="cls-1" d="M265.36,104A8.67,8.67,0,1,0,274,95.3,8.67,8.67,0,0,0,265.36,104Z"/><path class="cls-1" d="M349.05,105.58c-6.53-20.64-13.22-33.24-19.29-40.83a24,24,0,1,0,19.29,40.83Z"/><path class="cls-1" d="M332.06,143.14a10.5,10.5,0,1,0,10.5-10.51A10.5,10.5,0,0,0,332.06,143.14Z"/><circle class="cls-1" cx="151.04" cy="145.25" r="8.38" transform="translate(-40.95 229.22) rotate(-67.5)"/><path class="cls-1" d="M405.81,240.7a239.63,239.63,0,0,0-22.66-33.55,26.82,26.82,0,1,0,22.66,33.55Z"/><circle class="cls-1" cx="339.74" cy="271.46" r="15.12"/><path class="cls-1" d="M347.89,209.12a9.39,9.39,0,1,0-9.39-9.39A9.39,9.39,0,0,0,347.89,209.12Z"/><path class="cls-1" d="M421.47,275.93a23,23,0,1,0,5.46,45.37c3.06-14.21-.87-29.36-.92-29.55C424.72,286.31,423.18,281,421.47,275.93Z"/><path class="cls-1" d="M339.39,342.41a22.93,22.93,0,0,0,39,16.42c.3-10.64.38-21.86.08-32.76a22.93,22.93,0,0,0-39,16.34Z"/><circle class="cls-1" cx="335.81" cy="376.17" r="9.13"/><path class="cls-1" d="M296.23,376.17A19.22,19.22,0,0,0,277.07,394c2.24-.64,4.19-1.3,5.77-1.93a4,4,0,1,1,3,7.42,71.83,71.83,0,0,1-7.63,2.52,19.22,19.22,0,1,0,18.05-25.81Z"/><path class="cls-1" d="M359.81,423.3a12,12,0,1,0-12,12A12,12,0,0,0,359.81,423.3Z"/><circle class="cls-1" cx="140" cy="412.3" r="11"/><circle class="cls-1" cx="201.17" cy="306.17" r="8.63"/></svg>