<svg id="图层_1" data-name="图层 1" xmlns="http://www.w3.org/2000/svg" viewBox="0 0 500 500"><defs><style>.cls-1{fill:#f7931e;}</style></defs><title>12画板 1 副本 112</title><path class="cls-1" d="M286.62,285a28.93,28.93,0,0,0-26.7,17.8,28.91,28.91,0,1,0-48.26,30.37,29.82,29.82,0,0,0,2.39,2.38l45.23,45,43.27-42.53a28.92,28.92,0,0,0-15.93-53Z"/><path class="cls-1" d="M188.64,378.14a20.71,20.71,0,1,0-30.53-25.25,20.7,20.7,0,0,0-36.66-3c.12,8,.38,15.79.71,23.07a20.66,20.66,0,0,0,1.37,1.72,19.83,19.83,0,0,0,1.72,1.71l32.39,32.25Z"/><path class="cls-1" d="M117,244.08l29.18,29,27.92-27.44A18.66,18.66,0,1,0,146.59,223a18.66,18.66,0,1,0-31.15,19.59A16.09,16.09,0,0,0,117,244.08Z"/><path class="cls-1" d="M189.06,53.8a21.92,21.92,0,0,0-13.14,38.26l34.27,34.11L243,94a22,22,0,0,0,6.23-6.24c-10.92-.08-21.75.33-21.87.34h-.23c-7.57-.24-13.64-5.85-18.56-17.16C205,62.8,197.61,54.46,189.06,53.8Z"/><path class="cls-1" d="M363.62,247.65a21.17,21.17,0,1,0-31.2-25.8,21.16,21.16,0,1,0-35.32,22.23,18,18,0,0,0,1.75,1.74l33.1,33Z"/><path class="cls-1" d="M407.3,261.93a12.32,12.32,0,0,0-11.38,7.59,12.32,12.32,0,1,0-19.55,14l19.28,19.19,18.44-18.13a12.32,12.32,0,0,0-6.79-22.61Z"/><path class="cls-1" d="M383.58,425a30.15,30.15,0,0,0-6.79-6.47,4,4,0,0,1-1.81-3.76c0-.36,2-19.95,3-45.05a22.74,22.74,0,0,0-12,12.12,22.67,22.67,0,1,0-37.85,23.81,22.11,22.11,0,0,0,1.88,1.87l35.46,35.31Z"/><path class="cls-1" d="M305.91,108.81l29.81,29.68L353.49,121c-4.47-17.08-9.11-29.9-13.66-39.5a19.34,19.34,0,0,0-3.69,5.7,19.06,19.06,0,1,0-31.81,20A19.5,19.5,0,0,0,305.91,108.81Z"/></svg>