<svg id="图层_1" data-name="图层 1" xmlns="http://www.w3.org/2000/svg" viewBox="0 0 500 500"><defs><style>.cls-1{fill:#5500a0;}</style></defs><title>画板 1 副本 98</title><path class="cls-1" d="M431.12,278.88C417.08,247.8,398.5,225.62,377,200c-3-3.61-6.1-7.27-9.22-11a7.51,7.51,0,0,1-1.56-3.19s0-.11-.05-.25a1.12,1.12,0,0,1-.2-.59C363.77,206.71,355.3,245.08,395,273c30,21.06,40.13,43,43.3,52.57C442.94,307.93,434.69,286.79,431.12,278.88Z"/><path class="cls-1" d="M380.81,418.63a7.54,7.54,0,0,1-3.79-6.81c0-.66,2.23-60.86-4.8-113.62-23.43,18.92-47.68,43-63.63,108.58-16.36-63.24-36.27-87.29-58.59-109.29-22.32,22-42.23,46.05-58.59,109.29-15.95-65.58-40.2-89.66-63.63-108.58-7,52.78-4.83,113-4.8,113.62a7.54,7.54,0,0,1-3.8,6.82c-5.7,3.26-13.82,10.43-13.1,15.41,1.82,12.42,24.49,17.22,69.34,14.69,37.75-4.12,49.8-8.07,51.46-24.61a106,106,0,0,0,.31-12.7c0-1.26-.06-2.46-.05-3.65a39.58,39.58,0,0,1-5.76-3.22c-.86-.6-1.66-1.22-2.41-1.81s-1.4-1.22-2-1.81a27.07,27.07,0,0,1-2.86-3.33,18.77,18.77,0,0,1-1.52-2.38c-.32-.58-.47-.89-.47-.89l1,.13c.64.08,1.54.26,2.68.41s2.47.35,3.95.55,3.14.34,4.9.46c.89,0,1.77.15,2.72.16.47,0,.93.05,1.41.07l1.45,0c2,.06,4,.1,6.15.1h20.45c2.27,0,4.48,0,6.6,0s4.18,0,6.13-.13,3.83-.18,5.6-.31l2.55-.23c.82-.08,1.6-.19,2.37-.26l4-.51c1.13-.13,2.08-.32,2.72-.38s1-.11,1-.11-.16.31-.49.87a20,20,0,0,1-1.54,2.33,29.79,29.79,0,0,1-2.89,3.3c-.6.6-1.29,1.16-2,1.8s-1.54,1.19-2.4,1.81a40.22,40.22,0,0,1-5.58,3.18c0,1.24,0,2.49-.05,3.8a106,106,0,0,0,.31,12.7c1.66,16.54,13.71,20.49,51.46,24.61,44.84,2.54,67.52-2.27,69.34-14.7C394.64,429.07,386.52,421.9,380.81,418.63Z"/><path class="cls-1" d="M134.05,184.87a1.19,1.19,0,0,1-.19.58c0,.14-.06.24-.06.26a7.51,7.51,0,0,1-1.56,3.19c-3.12,3.78-6.2,7.44-9.22,11-21.52,25.67-40.1,47.85-54.14,78.93-3.57,7.91-11.82,29.05-7.21,46.67C64.84,316,75,294,105,273,144.69,245.08,136.23,206.71,134.05,184.87Z"/></svg>