<svg id="图层_1" data-name="图层 1" xmlns="http://www.w3.org/2000/svg" viewBox="0 0 500 500"><defs><style>.cls-1{fill:#f7931e;}</style></defs><title>12画板 1 副本 114</title><path class="cls-1" d="M106.8,318.44h7c.29-6.46.74-12.74,1.37-18.65a4,4,0,0,1,8,.85c-.61,5.65-1,11.64-1.32,17.8h11.51V292.35H160V275.63H133.36v-8.36l.94-1.49H160V249.06H144.69L168,211.8H136.34L120.9,242.5l-12.67-24A234.62,234.62,0,0,0,92.5,243.78l3.21,5.28h-6c-2.65,5.28-5.18,10.87-7.51,16.72h23.7l.86,1.49v8.36H81.09v16.72H106.8Z"/><path class="cls-1" d="M230.3,336.72l-11.82,23.5-12.42-23.5H181.91l17.29,28.52H188V378h19l.66,1.14v6.4H188v12.8h19.68v20h17.8c0-.07,0-.14,0-.22a90.37,90.37,0,0,0-.36-10.92c-.13-1.55-.24-3-.25-4.45a77,77,0,0,1-10.7-3.3,4,4,0,1,1,3-7.42c6.24,2.49,18.05,5.42,31.25,5.71V385.58H228v-6.4l.72-1.14h19.67v-12.8H236.69l17.82-28.52Z"/><path class="cls-1" d="M160,435.2h-9.9l15.06-24.12H144.65l-10,19.87-9.87-18.68c.14,1.55.23,2.42.23,2.49a4,4,0,0,1-1.81,3.76c-.08.05-6.81,4.59-8.79,10.18l3.93,6.5h-3.64c3.76,7.85,19.47,11.33,45.25,10.16Z"/><polygon class="cls-1" points="159.83 345.78 151.97 361.4 143.72 345.78 127.67 345.78 139.16 364.74 131.72 364.74 131.72 373.25 144.36 373.25 144.8 374.01 144.8 378.26 131.72 378.26 131.72 386.77 144.8 386.77 144.8 400.04 158.31 400.04 158.31 386.77 171.87 386.77 171.87 378.26 158.31 378.26 158.31 374.01 158.79 373.25 171.87 373.25 171.87 364.74 164.08 364.74 175.92 345.78 159.83 345.78"/><polygon class="cls-1" points="284.7 316.81 277.3 302.8 262.9 302.8 273.2 319.8 266.54 319.8 266.54 327.43 277.87 327.43 278.26 328.11 278.26 331.92 266.54 331.92 266.54 339.55 278.26 339.55 278.26 351.46 290.38 351.46 290.38 339.55 302.54 339.55 302.54 331.92 290.38 331.92 290.38 328.11 290.81 327.43 302.54 327.43 302.54 319.8 295.55 319.8 306.18 302.8 291.74 302.8 284.7 316.81"/><polygon class="cls-1" points="186.02 327.68 197.88 327.68 197.88 316.02 209.77 316.02 209.77 308.56 197.88 308.56 197.88 304.82 198.29 304.16 209.77 304.16 209.77 296.69 202.94 296.69 213.33 280.05 199.21 280.05 192.31 293.76 185.06 280.05 170.98 280.05 181.06 296.69 174.54 296.69 174.54 304.16 185.63 304.16 186.02 304.82 186.02 308.56 174.54 308.56 174.54 316.02 186.02 316.02 186.02 327.68"/><polygon class="cls-1" points="350.89 299.87 341.1 319.35 330.8 299.87 310.78 299.87 325.11 323.52 315.84 323.52 315.84 334.13 331.6 334.13 332.15 335.07 332.15 340.37 315.84 340.37 315.84 350.98 332.15 350.98 332.15 367.53 349 367.53 349 350.98 365.9 350.98 365.9 340.37 349 340.37 349 335.07 349.6 334.13 365.9 334.13 365.9 323.52 356.19 323.52 370.96 299.87 350.89 299.87"/><path class="cls-1" d="M323.29,377.53,309.5,405,295,377.53H266.81l10,16.51a62.5,62.5,0,0,0,6-2,4,4,0,1,1,3,7.42c-1.38.55-3,1.11-4.71,1.66l5.88,9.71H274.6c-.11,2-.18,4.35-.1,7.36a21.49,21.49,0,0,0,1.55,7.58h20.08l.76,1.33v7.47H284.42c7.11,4,18.21,6.33,33.92,9q14.51,1.68,26.1,2V434.57H320.63V427.1l.84-1.33h23V410.83H330.75l20.81-33.3Z"/><path class="cls-1" d="M409.92,253.85h2.66a230.46,230.46,0,0,0-17.84-31.06l-1.26,2.5L385.37,210a191.83,191.83,0,0,0-14.91-17.09,3.05,3.05,0,0,1-.75-.69l-.29-.36a3.33,3.33,0,0,1-.69-2.59l-.33-1.59H334.88l27.7,45.71H344.65v20.51h30.48l1.05,1.82v10.26H344.65v20.5h31.53v32h2c-.28-6.16-.71-12.15-1.32-17.8a4,4,0,0,1,8-.85c.63,5.91,1.08,12.19,1.37,18.65h22.6v-32h15.9a192.4,192.4,0,0,0-6.85-20.5h-9.05V255.67Z"/><path class="cls-1" d="M302.58,63.61l13.73,22.66h-8.88V96.43h15.1l.53.91v5.08H307.43v10.16h15.63v15.87H339.2V112.58h12q-1.56-5.4-3.13-10.16H339.2V97.34l.57-.91H346a143.78,143.78,0,0,0-10.1-22.57l-4.23,8.42-9.87-18.67Z"/><path class="cls-1" d="M145.65,135.78h19.81V116.33h19.86V103.86H165.46V97.63l.7-1.11h19.16V84.06H173.9l17.36-27.78H179.52c-9.4,5.53-22.27,22.13-33.87,68.09Z"/><path class="cls-1" d="M236.15,107.36H228v9.32h13.85l.48.83v4.66H228v9.32h14.33V146h14.81V131.49H272v-9.32H257.14v-4.66l.53-.83H272v-9.32h-8.54l12.3-19.68a15,15,0,0,1-2.86.37h-.23c-.09,0-6.53-.25-14.44-.33l-8,16-8.45-16c-7.92.08-14.33.32-14.42.33h-.23a15.23,15.23,0,0,1-2.88-.37Z"/></svg>