<svg id="图层_1" data-name="图层 1" xmlns="http://www.w3.org/2000/svg" viewBox="0 0 500 500"><defs><style>.cls-1{fill:#f7931e;}</style></defs><title>12画板 1 副本 115</title><path class="cls-1" d="M248.4,302.59c-57-16.31-100.86-42.67-164.31-41.29A189.94,189.94,0,0,0,74,291.66C73.92,292,67.68,316,77.09,332c3.86,6.54,10,10.89,18.09,12.91,3.31.82,13,1.46,18.2-4.72,0-.68,0-1.36,0-2.05a11,11,0,0,1-4.13.81,10.83,10.83,0,0,1-7.47-2.92c-3.37-3.19-4.17-8.06-2.2-13.37a3,3,0,0,1,5.63,2.09c-1.11,3-.86,5.45.7,6.93a5,5,0,0,0,5.34.86,5.18,5.18,0,0,0,2.21-1.81c.18-10.74.71-21.32,1.74-30.92a4,4,0,0,1,8,.85c-1.54,14.25-1.93,30.69-1.75,46.59,40.05-1.73,58.05,24.85,100.78,26.07-42.91,9.58-75.66-.67-99.92,2.1,1.07,22.31,2.71,39,2.74,39.36a4,4,0,0,1-1.81,3.76c-.1.07-10.71,7.21-9.19,14.63,2.37,11.48,26.39,15.18,67.64,10.4,30-5.06,43.19-9,43.84-25.42a90.37,90.37,0,0,0-.36-10.92c-.13-1.55-.24-3-.25-4.45a77,77,0,0,1-10.7-3.3,4,4,0,1,1,3-7.42c6.47,2.58,18.92,5.64,32.71,5.74h.29c13.76-.1,26.21-3.16,32.68-5.74a4,4,0,1,1,3,7.42,77,77,0,0,1-10.7,3.3c0,1.48-.12,2.9-.25,4.45a90.85,90.85,0,0,0-.36,11c.65,16.36,13.86,20.3,43.84,25.36,41.26,4.77,65.27,1.08,67.64-10.4,1.53-7.48-9.08-14.56-9.19-14.63a4,4,0,0,1-1.81-3.76c0-.2.61-6.24,1.31-15.82-14.06-.93-34.1.49-60.79-.44,24.47-2.09,49.87-13.61,61.83-15.64,1.34-23.84,2.26-56.6-.5-82.22a4,4,0,0,1,8-.85c1,9.6,1.56,20.18,1.74,30.91a5.2,5.2,0,0,0,2.21,1.82,5,5,0,0,0,5.34-.86c1.56-1.48,1.81-3.94.7-6.93a3,3,0,0,1,5.63-2.09c2,5.31,1.17,10.18-2.2,13.37a10.83,10.83,0,0,1-7.47,2.92,11,11,0,0,1-4.13-.81c0,.69,0,1.37,0,2.05,5.15,6.18,14.89,5.54,18.2,4.72,8.14-2,14.23-6.37,18.09-12.91,9.41-15.94,3.17-40,3.1-40.23a186.48,186.48,0,0,0-6.53-21.46C360.23,294.51,293.73,315.56,248.4,302.59Z"/><path class="cls-1" d="M188.67,254.63c-17.77-24.28-46.91-39.91-73.51-45.36A237.44,237.44,0,0,0,91.4,245.85C125.79,238.28,168.66,246.85,188.67,254.63Z"/><path class="cls-1" d="M252.92,135c-44.91-2.86-46.47-43.76-96.47-44.89A259.45,259.45,0,0,0,147.06,119C183.1,117.29,215.28,141.89,252.92,135Z"/><path class="cls-1" d="M173.08,61.51c-3.71,3.85-7.72,9.51-11.82,17.76C180.18,77,193.76,81.79,206.7,88,200.07,75.43,186.17,66.56,173.08,61.51Z"/><path class="cls-1" d="M204.67,271c98.74,46.74,147.78,12.57,210.27-11.91a229.6,229.6,0,0,0-24.5-42.37C351.26,263.73,241.89,280.27,204.67,271Z"/><path class="cls-1" d="M349.14,105.86c-4.41-14-8.9-24.33-13.23-31.91-26.8,12.18-51.83,35.15-89.91,33.68C284.38,119.35,321.77,108.06,349.14,105.86Z"/></svg>