<svg id="图层_1" data-name="图层 1" xmlns="http://www.w3.org/2000/svg" viewBox="0 0 500 500"><defs><style>.cls-1{fill:#333;}</style></defs><title>12画板 1 副本 119</title><path class="cls-1" d="M131.27,189.22a3.33,3.33,0,0,1-.69,2.59l-.29.36a3.05,3.05,0,0,1-.75.69c-5.62,5.61-42.48,44-55.53,98.8C73.92,292,67.68,316,77.09,332c0,0-.59-27.68,33.41-57.68S135.55,209.26,131.27,189.22Z"/><path class="cls-1" d="M426.06,291.66c-13.05-54.84-49.91-93.19-55.53-98.8a3.05,3.05,0,0,1-.75-.69l-.29-.36a3.33,3.33,0,0,1-.69-2.59c-4.28,20-13.23,55.08,20.77,85.08S423,332,423,332C432.39,316,426.15,292,426.06,291.66Z"/><path class="cls-1" d="M376.86,418.52a4,4,0,0,1-1.81-3.76c.06-.68,6.74-68.63,1.85-114.12a4,4,0,0,1,.2-1.7C354,317.46,322.72,340.49,307,405.3c-15.88-61.34-35.21-84.67-56.88-106l0,.15a.83.83,0,0,1,0-.15c-21.67,21.33-41,44.66-56.88,106-15.77-64.81-47-87.84-70.15-106.36a4,4,0,0,1,.2,1.7C118.28,346.13,125,414.08,125,414.76a4,4,0,0,1-1.81,3.76c-.1.07-10.71,7.21-9.19,14.63,2.37,11.48,26.39,15.18,67.64,10.4,30-5.06,43.19-9,43.84-25.42a90.37,90.37,0,0,0-.36-10.92c-.13-1.55-.24-3-.25-4.45a77,77,0,0,1-10.7-3.3,4,4,0,1,1,3-7.42c6.47,2.58,18.92,5.64,32.71,5.74h.33c13.79-.1,26.24-3.16,32.71-5.74a4,4,0,1,1,3,7.42,77,77,0,0,1-10.7,3.3c0,1.48-.12,2.9-.25,4.45a90.37,90.37,0,0,0-.36,10.92c.65,16.42,13.86,20.36,43.84,25.42,41.25,4.78,65.27,1.08,67.64-10.4C387.57,425.73,377,418.59,376.86,418.52Z"/></svg>