<svg id="图层_1" data-name="图层 1" xmlns="http://www.w3.org/2000/svg" viewBox="0 0 500 500"><defs><style>.cls-1{fill:#00447c;}</style></defs><title>画板 1 副本 111</title><path class="cls-1" d="M302.55,338.09a28.92,28.92,0,1,0-42.63-35.25,28.91,28.91,0,1,0-48.26,30.37,29.82,29.82,0,0,0,2.39,2.38l45.23,45Z"/><path class="cls-1" d="M188.64,378.14a20.71,20.71,0,1,0-30.53-25.25A20.69,20.69,0,0,0,123.58,347c-.45,9.48-.71,18.5-.84,26.64.26.32.52.65.79,1a19.83,19.83,0,0,0,1.72,1.71l32.39,32.25Z"/><path class="cls-1" d="M110.7,230.12a18.62,18.62,0,0,0,4.74,12.42,16.09,16.09,0,0,0,1.55,1.54l29.18,29,27.92-27.44A18.66,18.66,0,1,0,146.59,223a18.66,18.66,0,0,0-35.89,7.17Z"/><path class="cls-1" d="M203.81,79.59c1.95-1,4.15-2.12,6.64-3.08.94-.39,1.92-.76,2.93-1.15a47.87,47.87,0,0,1-5.15-9.52,30.4,30.4,0,0,0-5-8,21.9,21.9,0,0,0-29.13,32.36,22.08,22.08,0,0,0,1.81,1.81l34.27,34.11L243,94A22,22,0,0,0,251,84.29c-.73,0-1.46,0-2.19,0-1.64,0-3.28,0-4.92,0l-4.89,0c-1.62,0-3.22,0-4.82.07s-3.17,0-4.71.09-3.08.1-4.59.12-3,.13-4.42.15c-2.89,0-5.62.2-8.19.27-1.28,0-2.51,0-3.69.11s-2.29.08-3.35.09l-5.54.08c-3.11,0-5-.12-5-.12s1.45-1.12,4.12-2.78A51.69,51.69,0,0,1,203.81,79.59Z"/><path class="cls-1" d="M352,208.82a21.17,21.17,0,0,0-19.54,13,21.16,21.16,0,1,0-35.32,22.23,18,18,0,0,0,1.75,1.74l33.1,33,31.67-31.13A21.16,21.16,0,0,0,352,208.82Z"/><path class="cls-1" d="M407.3,261.93a12.32,12.32,0,0,0-11.38,7.59,12.33,12.33,0,0,0-23.49,7,7.48,7.48,0,0,1,12.31,4.35c.74,4.24,1.41,8.57,2,12.93l8.89,8.85,18.44-18.13a12.32,12.32,0,0,0-6.79-22.61Z"/><path class="cls-1" d="M377,411.82c0-.35.65-17.67.17-41.77A22.79,22.79,0,0,0,366,381.83a22.67,22.67,0,1,0-37.85,23.81,22.11,22.11,0,0,0,1.88,1.87l35.46,35.31,20.77-20.42a41.06,41.06,0,0,0-5.4-3.77A7.54,7.54,0,0,1,377,411.82Z"/><path class="cls-1" d="M302.92,83.66l.42.27-.67.09a19,19,0,0,0,1.66,23.22,19.5,19.5,0,0,0,1.58,1.57l29.81,29.68,16.25-16c-3.85-15.86-8.15-29.28-12.87-40.16a19.17,19.17,0,0,0-3,4.87,19,19,0,0,0-33.22-3.57Z"/></svg>