<svg id="图层_1" data-name="图层 1" xmlns="http://www.w3.org/2000/svg" viewBox="0 0 500 500"><defs><style>.cls-1{fill:#333;}</style></defs><title>12画板 1 副本 123</title><path class="cls-1" d="M333.34,419.54a.24.24,0,0,0-.19-.11h-4a.2.2,0,0,0-.19.11L327,423a.22.22,0,0,0,0,.22l2,3.43a.2.2,0,0,0,.19.11h4a.24.24,0,0,0,.19-.11l2-3.43a.22.22,0,0,0,0-.22Zm-.87,5.65a.44.44,0,0,1-.24.07.43.43,0,0,1-.36-.21l-2.14-3.5a.45.45,0,0,1,.14-.6.44.44,0,0,1,.59.14l2.14,3.51A.44.44,0,0,1,332.47,425.19Z"/><path class="cls-1" d="M358.51,419.54a.21.21,0,0,0-.19-.11h-3.95a.21.21,0,0,0-.19.11l-2,3.42a.22.22,0,0,0,0,.22l2,3.43a.21.21,0,0,0,.19.11h3.95a.21.21,0,0,0,.19-.11l2-3.43a.22.22,0,0,0,0-.22Zm-.68,5.39a.41.41,0,0,1-.2.26.33.33,0,0,1-.21.07.41.41,0,0,1-.36-.2l-2.14-3.52a.43.43,0,1,1,.73-.44l2.12,3.51A.41.41,0,0,1,357.83,424.93Z"/><polygon class="cls-1" points="280.59 296.07 283.23 296.07 283.61 295.14 280.96 295.14 280.59 296.07"/><polygon class="cls-1" points="281.58 293.58 286.27 293.58 285.9 292.67 281.95 292.67 281.58 293.58"/><polygon class="cls-1" points="281.09 294.83 283.72 294.83 283.93 294.31 284.13 294.83 286.77 294.83 286.39 293.9 281.46 293.9 281.09 294.83"/><polygon class="cls-1" points="284.25 295.14 284.63 296.07 287.26 296.07 286.9 295.14 284.25 295.14"/><polygon class="cls-1" points="282.46 291.41 282.09 292.34 285.77 292.34 285.41 291.41 282.46 291.41"/><polygon class="cls-1" points="280.09 297.31 282.74 297.31 283.1 296.38 280.46 296.38 280.09 297.31"/><polygon class="cls-1" points="279.09 299.79 288.76 299.79 288.39 298.87 279.48 298.87 279.09 299.79"/><polygon class="cls-1" points="278.11 302.28 280.75 302.28 281.12 301.35 278.48 301.35 278.11 302.28"/><polygon class="cls-1" points="286.25 300.11 286.61 301.04 289.26 301.04 288.88 300.11 286.25 300.11"/><polygon class="cls-1" points="289.75 302.28 289.38 301.35 286.74 301.35 287.11 302.28 289.75 302.28"/><polygon class="cls-1" points="278.61 301.04 281.24 301.04 281.62 300.11 278.98 300.11 278.61 301.04"/><polygon class="cls-1" points="279.61 298.56 288.26 298.56 287.89 297.62 279.97 297.62 279.61 298.56"/><polygon class="cls-1" points="284.75 296.38 285.12 297.31 287.76 297.31 287.39 296.38 284.75 296.38"/><rect class="cls-1" x="287.69" y="292.67" width="9.31" height="0.92"/><rect class="cls-1" x="287.69" y="291.41" width="9.31" height="0.93"/><rect class="cls-1" x="291.34" y="293.9" width="2.32" height="0.93"/><rect class="cls-1" x="291.34" y="295.14" width="2.32" height="0.93"/><rect class="cls-1" x="291.34" y="300.11" width="2.32" height="0.93"/><rect class="cls-1" x="291.34" y="298.87" width="2.32" height="0.93"/><rect class="cls-1" x="291.34" y="297.62" width="2.32" height="0.94"/><rect class="cls-1" x="291.34" y="301.35" width="2.32" height="0.93"/><rect class="cls-1" x="291.34" y="296.38" width="2.32" height="0.93"/><path class="cls-1" d="M394.22,297.61a4.06,4.06,0,1,0,4.06,4.06A4.06,4.06,0,0,0,394.22,297.61Z"/><path class="cls-1" d="M348,208.28l1.68.53a8.92,8.92,0,0,0,1.05,2.56l-.8,1.55a.62.62,0,0,0,.12.76l1.58,1.59a.64.64,0,0,0,.45.19.73.73,0,0,0,.3-.07l1.56-.81a8.87,8.87,0,0,0,2.57,1l.52,1.67a.65.65,0,0,0,.62.46h2.24a.62.62,0,0,0,.61-.45l.53-1.67a9.13,9.13,0,0,0,2.57-1.06l1.54.8a.66.66,0,0,0,.76-.1l1.62-1.61a.68.68,0,0,0,.1-.74l-.81-1.56a9.83,9.83,0,0,0,1.06-2.56l1.66-.53a.64.64,0,0,0,.46-.62v-2.24a.64.64,0,0,0-.45-.61l-1.67-.54a9.63,9.63,0,0,0-1.06-2.55l.8-1.56a.66.66,0,0,0-.11-.76l-1.58-1.57a.64.64,0,0,0-.76-.13l-1.56.8a9.68,9.68,0,0,0-2.57-1.06l-.53-1.66a.62.62,0,0,0-.61-.45H357.6a.62.62,0,0,0-.61.44l-.53,1.68a9.34,9.34,0,0,0-2.58,1.05l-1.55-.8a.64.64,0,0,0-.75.12L350,199.39a.61.61,0,0,0-.13.76l.8,1.56a9.59,9.59,0,0,0-1.05,2.56l-1.7.54a.66.66,0,0,0-.43.61v2.24A.67.67,0,0,0,348,208.28Zm10.77-6.73a5,5,0,1,1-5,5A5,5,0,0,1,358.72,201.55Z"/><path class="cls-1" d="M341.76,354a7.4,7.4,0,1,0-7.39,7.38A7.39,7.39,0,0,0,341.76,354Zm-13.47,0a6.08,6.08,0,1,1,6.08,6.07A6.09,6.09,0,0,1,328.29,354Z"/><path class="cls-1" d="M336.27,358.19a.67.67,0,0,0,.93,0l1.38-1.39a.59.59,0,0,0,.19-.47.63.63,0,0,0-.19-.46L336.69,354l1.89-1.9a.65.65,0,0,0,0-.93l-1.38-1.39a.66.66,0,0,0-.46-.19.64.64,0,0,0-.46.19l-1.91,1.9-1.9-1.9a.66.66,0,0,0-.93,0l-1.38,1.39a.67.67,0,0,0,0,.93l1.9,1.9-1.9,1.88a.68.68,0,0,0-.19.46.64.64,0,0,0,.19.47l1.38,1.39a.68.68,0,0,0,.46.19.67.67,0,0,0,.47-.19l1.9-1.9Z"/><path class="cls-1" d="M288.9,370.88V356.61a.63.63,0,0,0-.64-.63H250v1.26h.65l-.65,1.15v8.13l5.24-9.18a.29.29,0,0,0,0-.1h4.46l-7.42,13H250v1.27h38.22A.62.62,0,0,0,288.9,370.88Zm-31.9-.65,7.36-12.89s0-.06,0-.1h4.46l-7.43,13Zm9.08,0,7.36-12.89a.29.29,0,0,0,0-.1h4.46l-7.43,13Zm9.07,0,7.38-12.89s0-.06,0-.1H287l-7.44,13Zm12.48,0h-3.41l3.41-5.93Z"/><path class="cls-1" d="M310,143.92a.88.88,0,0,0,.44.12.82.82,0,0,0,.58-.24l5.6-5.6a3.65,3.65,0,0,0,.44-4.66.85.85,0,0,0-.11-.16l-.05-.06a10.1,10.1,0,0,0-3.29-2.35,21,21,0,0,0-15.12,0l-.12.06-.16.09a9.11,9.11,0,0,0-3.17,2.44,1.15,1.15,0,0,0-.14.17,3.66,3.66,0,0,0,.56,4.49l5.59,5.59a.82.82,0,0,0,1,.12A7.68,7.68,0,0,1,310,143.92Zm-8.23-1.73-.8-.8-1.58-1.58-.56-.56-.83-.83-1.1-1.11h0a4.43,4.43,0,0,1-.7-.91.68.68,0,0,1-.08-.24v0a1.87,1.87,0,0,1,.12-1.46l.06-.1a7.47,7.47,0,0,1,2.66-2l.16-.09a19.36,19.36,0,0,1,13.82,0,8.65,8.65,0,0,1,2.7,1.9s0,0,0,0l0,0a2,2,0,0,1,.33,1.43h0v0a.07.07,0,0,0,0,0,1.23,1.23,0,0,1-.11.38s0,.06,0,.08h0a6,6,0,0,1-1.11,1.34l-.12.12h0l-1.4,1.39-1.05,1.05L311,141.5l-.69.7a9,9,0,0,0-4.27-1.06A9.13,9.13,0,0,0,301.77,142.19Z"/><path class="cls-1" d="M289.35,139.26l-.17.14a9.22,9.22,0,0,0-2.45,3.17l-.08.16-.06.12a21,21,0,0,0-.06,14.91,14.71,14.71,0,0,1,1.36-1.12,19.15,19.15,0,0,1,.21-13.14l.09-.16a7.33,7.33,0,0,1,2-2.67.33.33,0,0,0,.1-.06,2,2,0,0,1,1.46-.13h0a.68.68,0,0,1,.25.08,4,4,0,0,1,.9.71s0,0,0,0l1.11,1.1.83.84.56.55,1.58,1.58.8.8a9.17,9.17,0,0,0-1.05,4.27c0,.17,0,.34,0,.51.54-.23,1.09-.43,1.64-.61a7.61,7.61,0,0,1,1.1-3.88.84.84,0,0,0-.11-1l-5.61-5.59A3.66,3.66,0,0,0,289.35,139.26Z"/><path class="cls-1" d="M299.38,242.41a4.24,4.24,0,1,0,4.43-4A4.26,4.26,0,0,0,299.38,242.41Zm4.38-2.93a3.12,3.12,0,1,1-3.26,3A3.12,3.12,0,0,1,303.76,239.48Z"/><path class="cls-1" d="M332.06,183.62l-1.9,1.88a.68.68,0,0,0,0,.94l1.38,1.39a.64.64,0,0,0,.93,0l1.9-1.9,1.9,1.9a.65.65,0,0,0,.47.2.87.87,0,0,0,.46-.2l1.38-1.39a.66.66,0,0,0,0-.94l-1.89-1.88,1.89-1.9a.56.56,0,0,0,.19-.45.63.63,0,0,0-.19-.47l-1.38-1.38a.64.64,0,0,0-.92,0l-1.91,1.89-1-1-.77-.73h0c-.41-.39-.72-.32-.89-.23h0a.61.61,0,0,0-.14.1l-1.38,1.38a.67.67,0,0,0,0,.93Z"/><path class="cls-1" d="M257.93,291.41h-7a1.53,1.53,0,0,0-.91.27v.66h7.89Z"/><rect class="cls-1" x="250.04" y="292.67" width="7.9" height="0.92"/><rect class="cls-1" x="250.04" y="295.14" width="7.9" height="0.93"/><rect class="cls-1" x="250.04" y="293.9" width="1.69" height="0.93"/><rect class="cls-1" x="250.04" y="296.38" width="7.9" height="0.93"/><path class="cls-1" d="M257.93,302.28v-.93H250V302a1.47,1.47,0,0,0,.91.27Z"/><rect class="cls-1" x="250.04" y="300.11" width="7.9" height="0.93"/><rect class="cls-1" x="250.04" y="298.87" width="1.69" height="0.93"/><rect class="cls-1" x="250.04" y="297.62" width="1.69" height="0.94"/><rect class="cls-1" x="258.86" y="293.9" width="2.33" height="0.93"/><path class="cls-1" d="M258.86,293v.62h9.31v-.91h-9.28A1.36,1.36,0,0,0,258.86,293Z"/><path class="cls-1" d="M268.17,291.41h-7.75a1.42,1.42,0,0,0-1.43.93h9.18Z"/><path class="cls-1" d="M258.86,295.75a1.58,1.58,0,0,0,0,.32H268a1.41,1.41,0,0,0-1.42-.93h-7.76Z"/><rect class="cls-1" x="265.84" y="297.62" width="2.33" height="0.94"/><rect class="cls-1" x="265.84" y="298.87" width="2.33" height="0.93"/><path class="cls-1" d="M258.86,302.28h7.76a1.41,1.41,0,0,0,1.42-.93h-9.18Z"/><path class="cls-1" d="M258.86,301h9.29c0-.1,0-.21,0-.3v-.63h-9.31Z"/><path class="cls-1" d="M268.17,296.7c0-.11,0-.22,0-.32H259a1.42,1.42,0,0,0,1.43.93h7.75Z"/><rect class="cls-1" x="269.1" y="295.14" width="2.32" height="0.93"/><rect class="cls-1" x="269.1" y="293.9" width="2.32" height="0.93"/><path class="cls-1" d="M269.1,293v.62h8.54v-.91h-8.51A2.58,2.58,0,0,0,269.1,293Z"/><path class="cls-1" d="M277.64,291.41h-7a1.43,1.43,0,0,0-1.42.93h8.41Z"/><rect class="cls-1" x="269.1" y="296.38" width="2.32" height="0.93"/><path class="cls-1" d="M270.65,302.28h7v-.93h-8.41A1.43,1.43,0,0,0,270.65,302.28Z"/><rect class="cls-1" x="269.1" y="298.87" width="2.32" height="0.93"/><path class="cls-1" d="M269.1,300.74c0,.09,0,.2,0,.3h8.51v-.93H269.1Z"/><rect class="cls-1" x="269.1" y="297.62" width="2.32" height="0.94"/><path class="cls-1" d="M409.86,287.29a9,9,0,0,0,16.35,5.28c-.12-.5-.19-.79-.2-.82-.08-.36-.18-.72-.27-1.09a7.65,7.65,0,1,1-6.85-11,7.48,7.48,0,0,1,4.16,1.26c-.19-.63-.39-1.25-.59-1.87a8.82,8.82,0,0,0-3.57-.76A9,9,0,0,0,409.86,287.29Z"/><path class="cls-1" d="M427.32,298.7a14,14,0,0,1-8.31,2.76,14.15,14.15,0,1,1,0-28.3c.52,0,1,0,1.54.09-.15-.41-.28-.83-.43-1.25a14.32,14.32,0,0,0-1.47-.08,14.6,14.6,0,0,0-14.23,11.46l-.83-2a4.69,4.69,0,0,1-.29-2.66c.15-.46.27-.86.31-1a4.66,4.66,0,0,1,2.47-2.47l12.19-5.1a4.81,4.81,0,0,1,1.05-.29l-.48-1.28a4.74,4.74,0,0,0-1.23.32L405.43,274a5,5,0,0,0-2.58,2.44l-2.66-4.71a2.36,2.36,0,0,0,1.49.55,2.42,2.42,0,0,0,1.23-.34l12.69-7.7a2.33,2.33,0,0,0,1-1.27c-.19-.47-.39-.93-.59-1.39a2,2,0,0,1,0,.59,2.08,2.08,0,0,1-.94,1.27l-12.71,7.69a2,2,0,0,1-1.07.3,2.09,2.09,0,0,1-1.78-1l-3.43-5.8a2.3,2.3,0,0,0,1,.24,2.49,2.49,0,0,0,1.3-.38l12.48-8a2.33,2.33,0,0,0,1-1.5,2.18,2.18,0,0,0,0-.88l2.22,3.73v0l1.15,1.93a220.29,220.29,0,0,0-10.8-21.47l-18.81-22a36,36,0,0,1,6.21,2.38l-.94-1.31a38.6,38.6,0,0,0-5.83-2.14,5.84,5.84,0,0,0,.34-1.71c1.12.31,2.3.69,3.51,1.14l-.81-1.07c-1-.35-1.93-.64-2.86-.9a3.69,3.69,0,0,0,0-.47,5.06,5.06,0,0,0-2-3.7l-4.09-2.77c-.21-1.65-.42-3.08-.61-4.07-.95-1.1-1.84-2.11-2.66-3a18.77,18.77,0,0,1,1.72,6.74h0a8.18,8.18,0,0,1,0,2s0,0,0,0a18.87,18.87,0,0,1-30.46,14.13c-.31-.23-.63-.47-1-.78l-.09-.09-.23-.22a15.42,15.42,0,0,1-1.2-1.23A21.68,21.68,0,0,1,343,217.1a31,31,0,0,1-2.14-4.29c-.05-.16-.1-.33-.16-.49-.19-.57-.27-.91-.27-.91h0a18.54,18.54,0,0,1,1.05-12.68h.32l3.92-.55a15.26,15.26,0,0,0-2.48,8.36,15.49,15.49,0,1,0,7-12.94l-.3-3.83a18.83,18.83,0,0,1,18.81.77,3.26,3.26,0,0,1-.06-1.32c-.07-.32-.15-.71-.23-1.12a20.67,20.67,0,0,0-9.78-2.45,7.72,7.72,0,0,0-2.77.2l-2.44-40.75c-.81-13.14-10.65-25.59-23.13-31l.89-4.48a5.74,5.74,0,0,0-3.9-6.56l-1.74-4.27a.66.66,0,0,0-.48-.39l-.65-.13-.18,0,1.93-19.53c.09,0,.17-.1.26-.15a.35.35,0,0,1,.11,0h0a3.11,3.11,0,0,0,1.57-2.13,3.07,3.07,0,0,0-.47-2.36A3.16,3.16,0,0,0,322,75.18a3.11,3.11,0,0,0,.56,2.44h0a2.29,2.29,0,0,0,.17.19c.07.08.12.17.19.24L317.2,96.83l-.28,0-.55-.11a.69.69,0,0,0-.6.18l-3.23,3.29c-.16,0-.32,0-.48,0a5.76,5.76,0,0,0-5.63,4.63l-.94,4.18h-9.85v-2.36a1.09,1.09,0,0,0-1.1-1.09h-.32v-3.36a3.26,3.26,0,0,0-1.84-6,3.26,3.26,0,0,0-1.84,6v3.35h-.34a1.09,1.09,0,0,0-1.09,1.09v.22H289a1.1,1.1,0,0,0-.75-1l-4.91-1.63V98.32a3.18,3.18,0,0,0-.14-.88h1.1a2.42,2.42,0,1,0,0-4.84H250v1.32h34.29a1.1,1.1,0,1,1,0,2.2H250V98h28.35a1.76,1.76,0,0,1,1.75,1.76V118.6a1.75,1.75,0,0,1-1.75,1.75H250v1.92h26.44a1.74,1.74,0,0,0,.1,1.32l.17.3H250v3.22l.87,1.53,3.56,6.1a1.06,1.06,0,0,0,.86.46,1.1,1.1,0,0,0,.95-.55l1-1.77.55-.95.53-.92,2.38-4.12,2.17,3.77.48.83.15.27.23.4.54.94.9,1.55a1.09,1.09,0,0,0,.95.55,1.1,1.1,0,0,0,.95-.55l.53-.93,1.67-2.89,2.27-3.93.5.84.62,1.09,0,0,.9,1.55,1,1.66.48.83,1,1.73a1.08,1.08,0,0,0,.94.55,1.12,1.12,0,0,0,1-.55l1.25-2.17.5,0a1.42,1.42,0,0,0,.1.29l.9,1.61,2.1,3.79.75,1.33c-.2.41-.4.81-.57,1.22h-8.19a.67.67,0,0,0-.66.66v2.18a.54.54,0,0,0-.09.12c-.21.86-1.87,1.77-4.17,1.77s-4-.92-4.18-1.77a.05.05,0,0,1,0,0,.88.88,0,0,0-.19-.27.24.24,0,0,0-.08-.06.65.65,0,0,0-.33-.11H265c-.05,0-.08,0-.13.05l0,0a.61.61,0,0,0-.46.42c-.22.85-1.89,1.77-4.18,1.77-.24,0-.46,0-.68,0V143.7a3.16,3.16,0,0,0-3.15-3.16H250v.88h6.3a2.27,2.27,0,0,1,2.27,2.28v13.74H250v2.22h32.78c.08.22.19.44.29.66.64-.66,1.31-1.28,2-1.9a22.42,22.42,0,1,1,42.76-13.1,18.9,18.9,0,0,1,2.93,1.83,25,25,0,0,0-2.3-7.68l3.75-6.75a1.76,1.76,0,0,0-.3-2.08l-.31-.32,3.5-6.66a1.75,1.75,0,0,0-.31-2.06,1.78,1.78,0,0,0-2.05-.31l-6.65,3.51-.32-.32a1.75,1.75,0,0,0-2.08-.28L317,127.93a24.92,24.92,0,0,0-21.88,0l-6.73-3.73a1.71,1.71,0,0,0-1.27-.15,7.66,7.66,0,0,0-1.37.76l-1.94-1-2.87-1.51a2.22,2.22,0,0,0,2.35-1.48,2.41,2.41,0,0,0,.11-.72v-1.7l4.91-1.62a1.1,1.1,0,0,0,.75-1h.08v.22A1.09,1.09,0,0,0,290.2,117h4.34a1.09,1.09,0,0,0,1.1-1.09v-3.31h12.72c21.62,0,40.18,15.5,41.36,34.54l2.45,39.55a21.91,21.91,0,0,0-2.46,1c-1-6.88-3.87-15.1-12.86-21.23a17.06,17.06,0,0,1-.82,2c11,7.77,11.69,18.93,12.12,26.3a3,3,0,0,1,0,.42c-3.57-.75-15.53-2.82-43.56-4.12.18,1.42.33,2.82.44,4.21l3,.18-2.86,4.4a36.87,36.87,0,0,1-.22,3.94l.85-1.3.66-1,.28.6,7.89,16.67,1,2.07a2.16,2.16,0,0,0,1.06,1.17l.17.05h4.58a1.36,1.36,0,0,0,1.08-.56l4.41-6.32v44.29a6.19,6.19,0,0,0-3.64,4,10.19,10.19,0,0,0-.21,1.2,4.26,4.26,0,0,0-.06.5v.38H250v4.05h73v43.77a6.24,6.24,0,0,0-4.41,2h-1.56a1.34,1.34,0,0,0-1.19.75l-2.86,6v-9.69a.65.65,0,0,0-.65-.65h-1.54v-7.37a4.25,4.25,0,0,0,2.19-3.75,4,4,0,1,0-8,0,4.24,4.24,0,0,0,2.2,3.75v7.37h-1.54a.65.65,0,0,0-.66.65v4.17h-2.19V311.1a.67.67,0,0,0-.4-.6L294,306.76v-2.14h2.71a2.41,2.41,0,0,0,2.4-2.41V291.58a2.41,2.41,0,0,0-2.4-2.4H250v.87h46.63a1.53,1.53,0,0,1,1.52,1.53v10.63a1.53,1.53,0,0,1-1.52,1.54H250v.43h43V317h-2.83a1.32,1.32,0,0,0-1.17.71l-2.7,5.17-7,13.44-1.63,3.11-1.17-2-.13-.22-1.87-3.25L266,319.05l-.39-.67a1.26,1.26,0,0,0-.44-.42,2.36,2.36,0,0,0-1.11-.23h-1.59a1.31,1.31,0,0,0-1.14.65l-8.73,15.11-.68,1.18-.36.62-.25.44L250,337.87v9.73c68.68,0,92.78-4.11,98.13-5.23a3.1,3.1,0,0,1,0,.42c-.72,12.28-2.07,35.16-51,35.16H250v2.22h47.57v0c1,0,2,0,3,0v.06h1v-.08a97,97,0,0,0,18.49-2.17l1.14-.27q1-.22,1.89-.48c.48-.13,1.06-.3,1.71-.5l.44-.13c.88-.29,1.88-.63,3-1l.22-.08,1-.4,1.6-.69h0l1-.48.29-.15h0l.38-.19v0l.25-.13v0l.44-.22v0c.41-.23.82-.45,1.21-.68v0l.44-.25v0l.18-.11h.05l.72-.44h0c.71-.46,1.36-.94,2-1.42a31.57,31.57,0,0,0,6.22-6.3l.28-.38L345,363a27.94,27.94,0,0,0,1.46-2.5s0,0,0,0c.16-.29.31-.57.43-.84l0,0a35.22,35.22,0,0,0,3-10.67c.06-.48.37-3.5.43-4.46.05-.56.08-1.11.1-1.63,0-.21,0-.4.05-.6v-.07h0a.71.71,0,0,1,0-.14h0c.07-.48.15-2-1.09-2.18l-1.61-.09,0-.53h0V319.63a6.2,6.2,0,0,0-5-6.05V272.71a41.51,41.51,0,0,1,7.69,4.5l2.24,12.07a4.56,4.56,0,0,0-.68,3.36,4.64,4.64,0,0,0,3.36,3.6,6.17,6.17,0,0,0,2.11.07h0a4.89,4.89,0,0,0,.85-.25h0a4.56,4.56,0,0,0,2.75-5.1,4.54,4.54,0,0,0-2-3l-.65-3.46A38.29,38.29,0,0,1,365,306.13v48.33A38.56,38.56,0,0,1,326.45,393H287.21a4,4,0,0,1,.83,1.28,3.9,3.9,0,0,1,.15,2.47h21.64c1.41,2.44,3.06,5,4.85,7.66l.1.15c3.11,4.65,6.49,9.71,8.73,14.91a.25.25,0,0,1,0,.07l-2.82,15.2a4.28,4.28,0,0,0,4.34,5.16h36.84a4.41,4.41,0,0,0,3.43-1.55,4.34,4.34,0,0,0,.9-3.61l-2.81-15.2a5.18,5.18,0,0,0-.17-.56h0c16.33-13.73,4.61-38.86,4.61-38.86L369.88,361h.63c1.66,0,2.44-1.14,2.44-7.65v-25.2c0-6.52-.78-7.66-2.44-7.66H369V302.28c0-11.09-7-19.94-7-19.94l-3.27-51.14h0c3.54,4.45,8.27,9.56,13.47,15a41.24,41.24,0,0,0,4.18,10.23c4.63,8,11.89,14,21.62,17.88a62.76,62.76,0,0,1,4.46,6.36,5.31,5.31,0,0,0,.34,1.07l.64,1.55a16.41,16.41,0,0,0-.53,4.05,15.54,15.54,0,0,0,.14,1.94h0s0,.14.07.37,0,.25.05.37l-5.21,4.44a8,8,0,0,0-3.71-.91,8.15,8.15,0,0,0-.34,16.3l3.26,6.75a5.17,5.17,0,0,0-1.12,3.19,5.1,5.1,0,0,0,.18,1.3c.12-.06.23-.13.35-.18a3,3,0,0,1,1.6-.12,3.33,3.33,0,0,1-.17-1,3.28,3.28,0,1,1,3.28,3.28,3.08,3.08,0,0,1-.75-.1,18.59,18.59,0,0,1,.59,2l.16,0a5.23,5.23,0,0,0,1.19-10.33l-2.31-7.36c.09-.11.18-.21.26-.32l.14-.22a8.06,8.06,0,0,0,1.67-3.51,4.75,4.75,0,0,0,.16-1.4l5.56-2.87h0c.17.15.32.31.5.45h0a16,16,0,0,0,9.26,3.91A18.13,18.13,0,0,0,425.5,302c.24-.11.48-.19.7-.27a14.88,14.88,0,0,0,1.4-.8C427.51,300.13,427.42,299.39,427.32,298.7Zm-172-165-5.05-8.74h10.1Zm10.85,0-5.05-8.74h10.1Zm10.84,0-5-8.74h5.29l2.29,4.34Zm-12.43,23.78h-5.1V146.23c.22,0,.44.05.68.05a6.3,6.3,0,0,0,4.42-1.47Zm9.57,0h-8.73V144.78a6.29,6.29,0,0,0,4.47,1.5,6.71,6.71,0,0,0,4.26-1.29Zm7.89,0h-7V141.55h7.63A25.14,25.14,0,0,0,282.05,157.44Zm50-33-2.7,5.14-2.43-2.44Zm-7.57,2.12,5.44,5.46-3.28,5.94a23.32,23.32,0,0,0-8.1-8.1Zm-36.82,0,5.93,3.3a24.13,24.13,0,0,0-4.56,3.55,23.41,23.41,0,0,0-3.53,4.54l-3.3-5.93Zm-2.52.66-2.56,2.57-2.86-5.42Zm2.61-11.64-5.22,1.73V105.19l5.22,1.73Zm2.71-16.15a1.95,1.95,0,1,1,1.95,1.95A1.94,1.94,0,0,1,290.43,99.4Zm3.9,16.31h-3.9v-8.95h3.9ZM323,75.38a2.16,2.16,0,0,1,2.11-1.74,2.12,2.12,0,0,1,.42,0,2.17,2.17,0,0,1,1.37.91,2.2,2.2,0,0,1,.32,1.62,2.15,2.15,0,0,1-4.22-.83Zm.68,3.14a3.27,3.27,0,0,0,1.73.33l-1.9,19.23L318.06,97Zm-7,19.36,7.72,1.53,1.61,3.36-12-2.36Zm13,12.39-.76,3.25a44.5,44.5,0,0,0-20.35-4.67l-1.61.05.7-2.93a4.87,4.87,0,0,1,5.71-3.83l12.48,2.41A4.88,4.88,0,0,1,329.62,110.27Zm19.72,87.4.17,0a1.25,1.25,0,0,0,.76-.57l0-.05a1.21,1.21,0,0,0,.11-.32.05.05,0,0,1,0,0v0a1.74,1.74,0,0,0,.05-.22,1.36,1.36,0,0,0,0-.3l0-.49a13.63,13.63,0,1,1-2.36,2.26ZM250.8,344l13.64-23.6,13.36,23.14C269.2,343.76,260.12,343.93,250.8,344ZM369,349.5v-27h1.43c.23.33.53,2.41.53,5.7v25.2c0,3.28-.3,5.36-.53,5.69H369Zm-43.95,47.23H327s19.4,1.3,33.78-17.44l-.38,3.54a1.52,1.52,0,0,0-.52.27,1.66,1.66,0,0,0-.64,1.17l-2.55,23.6H328l-3-11.14ZM358,409.84V416h-29.5v-6.16Zm-40.28-7.26c-1.34-2-2.62-3.95-3.78-5.85h1.67l.18.68a1.77,1.77,0,0,0,.81,1.06,1.81,1.81,0,0,0,.88.23,1.61,1.61,0,0,0,.44-.06l.11,0,2,7.41Zm1.84-5.85h3.51l3.67,13.8h-.07a3.65,3.65,0,0,0-3,1.58Zm44.7,38.34a2.39,2.39,0,0,1-.46,2,2.45,2.45,0,0,1-1.93.85H325a2.45,2.45,0,0,1-1.93-.85,2.4,2.4,0,0,1-.48-2l2.82-15.19a2.85,2.85,0,0,1,2.83-2h30.37a2.85,2.85,0,0,1,2.82,2Zm-3.94-24.54a3.07,3.07,0,0,0-.53.05h0c.28-2.78-1.14-2.64-1.14-2.64l2.51-23.23,5.22.57-2.91,27.05A3.68,3.68,0,0,0,360.3,410.53Zm8.56-18.67c1.35,7.6,1.2,14.88-2.9,20.53-.7,1-1.42,1.91-2.15,2.85a3.59,3.59,0,0,0,.17-1,3.82,3.82,0,0,0-.18-1.08l.1-.88.65-.88c4.16-5.75,3.91-13.34,2.16-21.45l.56-5Zm-3.35-8.54-3.17-.35L363,377a40.59,40.59,0,0,0,4.24-9.61Zm31.22-113c-.42-.19-.86-.36-1.27-.56-5.3-6.27-11.86-13.07-18.06-19.48a19.64,19.64,0,0,1-1.55-4.09c1.15,1.19,1.65,1.67,2.82,2.88l0,0c5,5.22,10.12,10.49,14.61,15.53Zm-4.28-2.71a36.56,36.56,0,0,1-13.05-13c-.41-.72-.78-1.45-1.14-2.17C383.11,257.47,388.09,262.68,392.45,267.64Zm-10.34-19.72s0,0,0,0L389.24,258l1.21,1.87.57,1c-3.73-4.05-7.74-8.21-11.72-12.33l-3.92-4.06a44.78,44.78,0,0,1-1.09-6.64l.92,1.12h0l5,6.53h0Zm24.73-.83a2.84,2.84,0,0,0,0-.65l4,6.34a2.09,2.09,0,0,1-.63,2.88l-12.48,8a2,2,0,0,1-1.13.34,2.11,2.11,0,0,1-1.76-.95l-3.6-5.7a2.42,2.42,0,0,0,1.11.26,2.31,2.31,0,0,0,1.36-.43l12.11-8.59A2.32,2.32,0,0,0,406.84,247.09Zm-5.22-7.69a2.16,2.16,0,0,0,0-.36l4.16,5.9a2.07,2.07,0,0,1,.35,1.55,2,2,0,0,1-.85,1.34l-12.11,8.59a2.11,2.11,0,0,1-2.92-.5l-4.09-5.83a2.32,2.32,0,0,0,1.32.41,2.39,2.39,0,0,0,1.45-.49l11.77-9A2.39,2.39,0,0,0,401.62,239.4Zm-1.13-2.13a2,2,0,0,1,.41,1.55,2.07,2.07,0,0,1-.8,1.38l-11.77,9a2.09,2.09,0,0,1-1.27.43,2,2,0,0,1-1.65-.82l-4.34-5.64a2.45,2.45,0,0,0,1,.21,2.36,2.36,0,0,0,1.45-.5l11.76-9a2.35,2.35,0,0,0,.9-2.26Zm-5.45-7.1a2.09,2.09,0,0,1-.38,2.93l-11.77,9a2.09,2.09,0,0,1-2.94-.38l-4.08-5.33a2.34,2.34,0,0,0,.82.16,2.45,2.45,0,0,0,1.53-.55l11.44-9.46a2.37,2.37,0,0,0,.78-2.39Zm-11.2-10.77a2.38,2.38,0,0,0,.79-1.66,2.43,2.43,0,0,0-.05-.6l4.74,5.73a2.07,2.07,0,0,1-.28,2.93l-11.44,9.46a2.06,2.06,0,0,1-1.33.47,2,2,0,0,1-1.6-.76l-.62-.73-2.56-3.07-.11-.14a6,6,0,0,0,2.81-1.89l3.3-4.06Zm-4.56-11.29L381,209a5.59,5.59,0,0,1,.81,7.86l-9.05,11.1a5.57,5.57,0,0,1-4.33,2.06,5.7,5.7,0,0,1-3.54-1.25L362,227.08C371.54,225.88,378.3,217.85,379.28,208.11ZM364.74,231.2a7.57,7.57,0,0,0,4.77,1.69c.24,0,.48,0,.72,0l.12.14.24.31a55.06,55.06,0,0,0,.39,6.51,161,161,0,0,1-10.66-12.2Zm-43.15-11.71-11.12-23.84c11.94.74,21.2,1.52,26.41,2ZM337,199.83v59.29c-.17,0-.32-.05-.49-.05h-7.21a6.13,6.13,0,0,0-1,.1v-47Zm-7.7,60.55h7.21a4.9,4.9,0,0,1,4.57,3.18H324.69A4.88,4.88,0,0,1,329.25,260.38Zm-4.88,4.89a2.58,2.58,0,0,1,0-.4h16.91c0,.13,0,.26,0,.4v48.19h-17Zm-18.48,35.55a3.14,3.14,0,1,1,3.14,3.35A3.26,3.26,0,0,1,305.89,300.82Zm4.07,3.81v7.3h-1.87v-7.3Zm-4.07,8.18h6.27v3h-6.27Zm0,3.57h6.27v2.1h-6.27Zm0,2.71h6.27v2.11h-6.27Zm0,2.71h6.27v2.11h-6.27Zm-3.06-4.17H305V323h-2.19ZM294,307.72l8,3.52v17.81l-7.44-11.47a1.45,1.45,0,0,0-.55-.44Zm-12.61,35.65,12.12-23.76,14.61,22.49C300.11,342.58,291.08,343,281.35,343.37Zm25.16-7.3-3.68-5.67v-6.5H305v4.16a.66.66,0,0,0,.66.66H310Zm-.62-8.23v-3.32H312l-1.58,3.32ZM310.47,342l11.12-23.85L336.89,340C331.68,340.44,322.41,341.21,310.47,342Zm35.9-2.21-4.63-.22h-.17l-3.17.3-13.67-19.51h21.64ZM346.3,319H323.82L322,316.43a.66.66,0,0,0-.6-.28h-1.6a4.86,4.86,0,0,1,3.39-1.38h18.29A4.87,4.87,0,0,1,346.3,319Zm-3.63-51.07v-2.67a4.78,4.78,0,0,0-.08-.76s0,0,0,0a7.64,7.64,0,0,0-.21-1,6.23,6.23,0,0,0-4.12-4.15V216l2.24.73A21,21,0,0,0,354.67,227l3.16,50.83-1-1.22L355,266.94a2.5,2.5,0,0,0,1.41-.82,1,1,0,0,0,.16-.73l-.29-1.5c-.11-.57-.7-.9-1.57-.9a3.42,3.42,0,0,0-.44,0l-2.58-13.65a2.38,2.38,0,0,0,1.38-.81,1.07,1.07,0,0,0,.18-.75l-.29-1.49c-.1-.57-.69-.9-1.56-.9a3.14,3.14,0,0,0-.45,0l-2.8-14.81a4.62,4.62,0,0,0-3.81-7.2,4,4,0,0,0-.86.09,4.62,4.62,0,0,0-3.67,5.38,4.56,4.56,0,0,0,2,3l2.79,14.76c-1.18.25-1.88.89-1.75,1.6l.28,1.49c.11.57.7.91,1.58.91a3.44,3.44,0,0,0,.63-.06l2.58,13.63a2.6,2.6,0,0,0-1.58.86.9.9,0,0,0-.17.74l.29,1.48c.1.58.69.92,1.58.92a4.63,4.63,0,0,0,.62-.06l.66,3.49A46.48,46.48,0,0,0,342.67,267.94Zm4.31-18.1,1.23-.24,2.52-.48,2.73,14.48-2.51.48-.43.08-1.71.32L346.07,250Zm-1.49-2.93-3.08-16.32-.51-2.18a2.36,2.36,0,0,1,1.89-2.76,2.15,2.15,0,0,1,.45,0,2.37,2.37,0,0,1,2.32,1.94l.5,2.17L350.14,246Zm13.23,44.55a2.35,2.35,0,0,1-1.88,2.77,2.12,2.12,0,0,1-.44,0,2.38,2.38,0,0,1-2.33-1.93l-4.68-24.77,4.65-.88Zm-2-64.46a20.35,20.35,0,0,0,2.22.21c3,4.4,6.41,7.93,12.15,14,.17,1.07.39,2.14.65,3.23C364.61,237,359.91,232.19,356.68,227ZM377.13,256a44.53,44.53,0,0,1-5.65-21.57l1.86,2.25a41.51,41.51,0,0,0,5.31,18.43c4,7,10.24,12.3,18.49,16l1.5,2.51C389,269.72,381.71,263.85,377.13,256Zm23.24,58.94a3.48,3.48,0,0,0-1.5.51L396,309.62a8.44,8.44,0,0,0,2.56-.94Zm-6.15-7a6.19,6.19,0,1,1,6.2-6.19A6.2,6.2,0,0,1,394.22,307.86Zm7.95-8.12a8.07,8.07,0,0,0-2.57-4.16l4.12-3.51a17.9,17.9,0,0,0,2.83,5.41Z"/><path class="cls-1" d="M250,396.73h13.85A93,93,0,0,0,280.25,393H250Z"/><path class="cls-1" d="M418.55,285.34a2.9,2.9,0,0,0,2.26,4.72l.33,0,4.32-.49-.15-.57-4.12.46a2.34,2.34,0,0,1-2.58-2.06,2.27,2.27,0,0,1,.5-1.71,2.32,2.32,0,0,1,1.55-.86l3.43-.38c0-.18-.11-.36-.16-.54l-3.44.38A2.82,2.82,0,0,0,418.55,285.34Z"/><path class="cls-1" d="M326.78,176.74l2.66,1.4a7.36,7.36,0,1,0,5-1.92l-1.62-3.06a13.63,13.63,0,0,1-1.88,1.59l1.06,2-2.31-1.21A13.79,13.79,0,0,1,326.78,176.74Zm3.38,2.53s0,0,0-.05l.1-.09c.13-.11.41-.31.41-.31a6.32,6.32,0,0,1,4.4-1.17,1.17,1.17,0,0,1,.33,0l.23,0a6.07,6.07,0,1,1-5.53,1.55Z"/><path class="cls-1" d="M257,115.85V101.37a2.18,2.18,0,0,0-2.18-2.18H250v.43h4.74a1.76,1.76,0,0,1,1.75,1.75v14.48a1.75,1.75,0,0,1-1.75,1.74H250V118h4.74A2.19,2.19,0,0,0,257,115.85Z"/><path class="cls-1" d="M272.5,118a2.21,2.21,0,0,0,2.2-2.19V101.37a2.2,2.2,0,0,0-2.2-2.18h-8.63a2.19,2.19,0,0,0-2.19,2.18v14.48a2.2,2.2,0,0,0,2.19,2.19Zm-10.38-2.19V101.37a1.75,1.75,0,0,1,1.75-1.75h8.63a1.75,1.75,0,0,1,1.75,1.75v14.48a1.74,1.74,0,0,1-1.75,1.74h-8.63A1.74,1.74,0,0,1,262.12,115.85Z"/><rect class="cls-1" x="250.04" y="104.5" width="4.07" height="0.95"/><rect class="cls-1" x="252.52" y="109.57" width="2.37" height="0.95"/><path class="cls-1" d="M254.77,113.36H250v1h3.27A1.48,1.48,0,0,0,254.77,113.36Z"/><rect class="cls-1" x="250.04" y="103.24" width="4.07" height="0.95"/><path class="cls-1" d="M254.89,112.74v-.64H250v1h4.82A1.63,1.63,0,0,0,254.89,112.74Z"/><path class="cls-1" d="M253.31,107H250v1h4.73A1.49,1.49,0,0,0,253.31,107Z"/><path class="cls-1" d="M254.89,108.62a1.73,1.73,0,0,0,0-.32H250v1h4.85Z"/><rect class="cls-1" x="252.52" y="110.84" width="2.37" height="0.95"/><rect class="cls-1" x="263.79" y="110.84" width="2.38" height="0.95"/><path class="cls-1" d="M272.5,112.74v-.64h-8.71v.64a1.65,1.65,0,0,0,0,.31h8.64A1.63,1.63,0,0,0,272.5,112.74Z"/><path class="cls-1" d="M271.71,103.24h-6.33a1.46,1.46,0,0,0-1.46,1h7.79Z"/><rect class="cls-1" x="270.13" y="110.84" width="2.38" height="0.95"/><rect class="cls-1" x="270.13" y="109.57" width="2.38" height="0.95"/><path class="cls-1" d="M271.71,104.5h-7.88a1.87,1.87,0,0,0,0,.32v.63h7.92Z"/><path class="cls-1" d="M265.38,114.32h5.54a1.46,1.46,0,0,0,1.46-1h-8.46A1.46,1.46,0,0,0,265.38,114.32Z"/><path class="cls-1" d="M270.92,107h-7.13v1h8.59A1.47,1.47,0,0,0,270.92,107Z"/><path class="cls-1" d="M272.5,108.62a1.73,1.73,0,0,0,0-.32h-8.68v1h8.71Z"/><rect class="cls-1" x="263.79" y="105.77" width="2.38" height="0.95"/><rect class="cls-1" x="263.79" y="109.57" width="2.38" height="0.95"/></svg>