<svg id="图层_1" data-name="图层 1" xmlns="http://www.w3.org/2000/svg" viewBox="0 0 500 500"><defs><style>.cls-1{fill:#ffce00;}</style></defs><title>画板 1 副本 72</title><path class="cls-1" d="M332.15,422a.24.24,0,0,0-.19-.11h-4a.24.24,0,0,0-.19.11l-2,3.47a.22.22,0,0,0,0,.22l2,3.49a.24.24,0,0,0,.19.11h4a.24.24,0,0,0,.19-.11l2-3.49a.22.22,0,0,0,0-.22Zm-.88,5.74a.53.53,0,0,1-.24.06.45.45,0,0,1-.37-.2L328.5,424a.43.43,0,0,1,.13-.6.46.46,0,0,1,.61.13l2.16,3.57A.44.44,0,0,1,331.27,427.73Z"/><path class="cls-1" d="M357.69,422a.24.24,0,0,0-.19-.11h-4a.24.24,0,0,0-.19.11l-2,3.47a.22.22,0,0,0,0,.22l2,3.49a.24.24,0,0,0,.19.11h4a.24.24,0,0,0,.19-.11l2-3.49a.22.22,0,0,0,0-.22Zm-.69,5.47a.43.43,0,0,1-.42.33.44.44,0,0,1-.36-.19L354.05,424a.44.44,0,0,1,.13-.59.43.43,0,0,1,.61.14l2.15,3.55A.39.39,0,0,1,357,427.46Z"/><polygon class="cls-1" points="278.64 296.72 281.31 296.72 281.69 295.77 279.01 295.77 278.64 296.72"/><polygon class="cls-1" points="279.64 294.2 284.39 294.2 284.02 293.27 280.02 293.27 279.64 294.2"/><polygon class="cls-1" points="279.14 295.47 281.81 295.47 282.02 294.94 282.23 295.47 284.9 295.47 284.52 294.52 279.52 294.52 279.14 295.47"/><polygon class="cls-1" points="282.35 295.77 282.73 296.72 285.4 296.72 285.03 295.77 282.35 295.77"/><polygon class="cls-1" points="280.53 292 280.15 292.94 283.89 292.94 283.52 292 280.53 292"/><polygon class="cls-1" points="278.13 297.98 280.81 297.98 281.19 297.04 278.51 297.04 278.13 297.98"/><polygon class="cls-1" points="277.11 300.5 286.92 300.5 286.55 299.56 277.51 299.56 277.11 300.5"/><polygon class="cls-1" points="276.12 303.02 278.79 303.02 279.17 302.08 276.5 302.08 276.12 303.02"/><polygon class="cls-1" points="284.37 300.82 284.75 301.76 287.43 301.76 287.05 300.82 284.37 300.82"/><polygon class="cls-1" points="287.93 303.02 287.55 302.08 284.88 302.08 285.25 303.02 287.93 303.02"/><polygon class="cls-1" points="276.62 301.76 279.3 301.76 279.68 300.82 277 300.82 276.62 301.76"/><polygon class="cls-1" points="277.64 299.25 286.42 299.25 286.04 298.3 278 298.3 277.64 299.25"/><polygon class="cls-1" points="282.85 297.04 283.23 297.98 285.91 297.98 285.54 297.04 282.85 297.04"/><rect class="cls-1" x="285.83" y="293.27" width="9.44" height="0.93"/><rect class="cls-1" x="285.83" y="292" width="9.44" height="0.94"/><rect class="cls-1" x="289.54" y="294.52" width="2.35" height="0.94"/><rect class="cls-1" x="289.54" y="295.78" width="2.35" height="0.94"/><rect class="cls-1" x="289.54" y="300.82" width="2.35" height="0.94"/><rect class="cls-1" x="289.54" y="299.56" width="2.35" height="0.94"/><rect class="cls-1" x="289.54" y="298.29" width="2.35" height="0.95"/><rect class="cls-1" x="289.54" y="302.08" width="2.35" height="0.94"/><rect class="cls-1" x="289.54" y="297.04" width="2.35" height="0.94"/><path class="cls-1" d="M398,302.41a4.12,4.12,0,1,0-4.12,4.11A4.12,4.12,0,0,0,398,302.41Z"/><path class="cls-1" d="M347,207.65l1.7.54a9.33,9.33,0,0,0,1.07,2.6l-.81,1.57a.64.64,0,0,0,.11.77l1.61,1.61a.65.65,0,0,0,.46.2.68.68,0,0,0,.31-.08L353,214a9.27,9.27,0,0,0,2.61,1.07l.53,1.7a.66.66,0,0,0,.63.46H359a.65.65,0,0,0,.62-.45l.54-1.7a9.24,9.24,0,0,0,2.6-1.08l1.57.81a.65.65,0,0,0,.77-.1l1.64-1.63a.66.66,0,0,0,.1-.75l-.82-1.58a9.59,9.59,0,0,0,1.07-2.6l1.69-.54a.66.66,0,0,0,.47-.63v-2.27a.66.66,0,0,0-.46-.62l-1.7-.55a9.4,9.4,0,0,0-1.07-2.59l.82-1.57a.65.65,0,0,0-.12-.77l-1.6-1.6a.67.67,0,0,0-.77-.14l-1.58.82a10.13,10.13,0,0,0-2.61-1.08l-.54-1.68a.63.63,0,0,0-.62-.46h-2.27a.63.63,0,0,0-.62.45l-.54,1.7a9.45,9.45,0,0,0-2.61,1.07l-1.58-.82a.66.66,0,0,0-.75.12l-1.6,1.6a.65.65,0,0,0-.14.77l.82,1.58a9.57,9.57,0,0,0-1.07,2.6l-1.72.55a.67.67,0,0,0-.43.62V207A.66.66,0,0,0,347,207.65Zm10.93-6.83a5.07,5.07,0,1,1-5.06,5.06A5.07,5.07,0,0,1,357.91,200.82Z"/><path class="cls-1" d="M340.7,355.49a7.5,7.5,0,1,0-7.5,7.49A7.5,7.5,0,0,0,340.7,355.49Zm-13.67,0a6.17,6.17,0,1,1,6.17,6.15A6.18,6.18,0,0,1,327,355.49Z"/><path class="cls-1" d="M335.13,359.75a.68.68,0,0,0,.94,0l1.4-1.42a.54.54,0,0,0,.19-.47.62.62,0,0,0-.19-.46l-1.92-1.91,1.92-1.93a.68.68,0,0,0,0-.95l-1.4-1.41a.67.67,0,0,0-.47-.19.68.68,0,0,0-.47.19l-1.93,1.93-1.93-1.93a.68.68,0,0,0-.94,0l-1.4,1.41a.68.68,0,0,0,0,.95l1.92,1.93-1.92,1.91a.67.67,0,0,0-.2.46.62.62,0,0,0,.2.47l1.4,1.42a.68.68,0,0,0,.47.19.67.67,0,0,0,.47-.19l1.93-1.93Z"/><path class="cls-1" d="M287.06,372.62V358.15a.64.64,0,0,0-.64-.65H250v6.56l3-5.17s0-.07,0-.1h4.52L250,371.93v1.33h36.42A.63.63,0,0,0,287.06,372.62ZM254.7,372l7.47-13.07s0-.07,0-.1h4.52L259.19,372Zm9.21,0,7.47-13.07a.38.38,0,0,0,0-.1h4.52L268.4,372Zm9.21,0,7.48-13.07a.38.38,0,0,1,0-.1h4.52L277.6,372Zm12.65,0h-3.45l3.45-6Z"/><path class="cls-1" d="M274,180V169.35a.47.47,0,0,0-.48-.47H250v.94h2.28l-2.28,4v6.62h23.47A.47.47,0,0,0,274,180Zm-23.74-.47,5.48-9.6a.1.1,0,0,0,0-.07H259l-5.54,9.67Zm6.76,0,5.48-9.6s0,0,0-.07h3.31l-5.52,9.67Zm6.75,0,5.49-9.6s0,0,0-.07h3.31L267,179.49Zm9.28,0h-2.53l2.53-4.43Z"/><path class="cls-1" d="M315.53,131.65l-.06-.06a10.39,10.39,0,0,0-3.33-2.38,21.3,21.3,0,0,0-15.34,0l-.13.07-.16.08a9.26,9.26,0,0,0-3.21,2.48,1.14,1.14,0,0,0-.15.17,3.74,3.74,0,0,0,.57,4.56l5.67,5.68a.86.86,0,0,0,1,.11,7.61,7.61,0,0,1,3.65-1.09c.93-.5,1.88-1,2.84-1.37a8.86,8.86,0,0,0-2.46-.35,9.39,9.39,0,0,0-4.33,1.06l-.81-.8-1.6-1.61-.57-.56-.84-.85-1.12-1.12h0a4.65,4.65,0,0,1-.72-.92.68.68,0,0,1-.08-.25h0a1.94,1.94,0,0,1,.12-1.49.18.18,0,0,0,.06-.09,7.46,7.46,0,0,1,2.71-2.06l.16-.09a19.32,19.32,0,0,1,7-1.29,19.53,19.53,0,0,1,7,1.29,8.82,8.82,0,0,1,2.74,1.93l0,0a0,0,0,0,0,0,0,2,2,0,0,1,.34,1.47h0v0a.11.11,0,0,1,0,0,1.29,1.29,0,0,1-.11.39.32.32,0,0,1,0,.09h0a6.18,6.18,0,0,1-1.13,1.36l-.12.12h0l-1.42,1.41-.85.86a24.63,24.63,0,0,1,3-.63l1.31-1.3a3.73,3.73,0,0,0,.44-4.73Z"/><path class="cls-1" d="M314.24,165.12v0s0,0,0,0a8.67,8.67,0,0,1-2.74,1.92,19.54,19.54,0,0,1-7,1.3,19.32,19.32,0,0,1-7-1.29l-.16-.09a7.46,7.46,0,0,1-2.71-2.06.21.21,0,0,0-.06-.1s0-.06,0-.09l-1.73.07a3.55,3.55,0,0,0,.4,1,.84.84,0,0,0,.15.18,9.13,9.13,0,0,0,3.21,2.47l.16.09.13.07a21.35,21.35,0,0,0,15.34,0,10.39,10.39,0,0,0,3.33-2.38l.06-.06.11-.17a3.71,3.71,0,0,0,.63-2.14l-1.67.07A1.91,1.91,0,0,1,314.24,165.12Z"/><path class="cls-1" d="M321.39,137.63a3.71,3.71,0,0,0-3.73,0,23.55,23.55,0,0,1,4.14.39l-.24-.21A1.09,1.09,0,0,0,321.39,137.63Z"/><path class="cls-1" d="M293.71,142.18l1.6,1.6.81.81a9.6,9.6,0,0,0-.94,2.92c.76-.65,1.53-1.29,2.32-1.91a6.85,6.85,0,0,1,.37-.71.83.83,0,0,0-.12-1l-5.68-5.68a3.7,3.7,0,0,0-4.55-.56,1.09,1.09,0,0,0-.17.13,9.4,9.4,0,0,0-2.48,3.22l-.09.17a1.34,1.34,0,0,0-.06.12,21.3,21.3,0,0,0,0,15.34c.17.35.35.69.54,1,.38-.44.77-.89,1.17-1.33-.06-.12-.13-.22-.19-.34a19.62,19.62,0,0,1-1.3-7,19.39,19.39,0,0,1,1.3-7l.08-.16a7.41,7.41,0,0,1,2.07-2.7.31.31,0,0,0,.09-.07,2,2,0,0,1,1.49-.13h0a.63.63,0,0,1,.25.09,4.11,4.11,0,0,1,.92.71h0l1.12,1.12.85.85Z"/><path class="cls-1" d="M282.05,234.59a.15.15,0,0,0-.18.11l-.82,2.57a.16.16,0,0,0,.09.19l3.8,1.47a18.7,18.7,0,0,0-.34,2.53l-4,.43a.17.17,0,0,0-.14.16l.12,2.69a.16.16,0,0,0,.15.15l4.06.09a17.39,17.39,0,0,0,.55,2.49l-3.65,1.78a.16.16,0,0,0-.07.21l1,2.49a.15.15,0,0,0,.19.09l3.84-1.31a16.3,16.3,0,0,0,1.38,2.14l-2.82,2.94a.15.15,0,0,0,0,.21l1.82,2a.15.15,0,0,0,.21,0l3.16-2.54a16.76,16.76,0,0,0,2,1.55l-1.65,3.72a.17.17,0,0,0,.08.2l2.39,1.25a.15.15,0,0,0,.2-.07l2.11-3.47a17.21,17.21,0,0,0,2.43.77l-.28,4.05a.15.15,0,0,0,.14.17l2.68.35h0a.14.14,0,0,0,.15-.12l.79-4a18.14,18.14,0,0,0,2.55-.11l1.13,3.91a.18.18,0,0,0,.18.11l2.63-.59a.15.15,0,0,0,.12-.17l-.62-4a17.63,17.63,0,0,0,2.35-1l2.41,3.28a.17.17,0,0,0,.21,0l2.28-1.45a.16.16,0,0,0,0-.21l-2-3.56c.35-.27.67-.54,1-.82s.6-.57.9-.9l3.38,2.26a.16.16,0,0,0,.22,0l1.63-2.14a.16.16,0,0,0,0-.21l-3.06-2.67a15.83,15.83,0,0,0,1.18-2.27l3.94,1a.18.18,0,0,0,.2-.11l.8-2.56a.18.18,0,0,0-.09-.2L319.06,246a16.56,16.56,0,0,0,.33-2.52l4.05-.44a.15.15,0,0,0,.14-.16l-.13-2.69a.14.14,0,0,0-.13-.15h0l-4.07-.08a17.66,17.66,0,0,0-.54-2.5l3.64-1.78a.16.16,0,0,0,.08-.2l-1-2.5a.14.14,0,0,0-.19-.08l-3.85,1.31a19.1,19.1,0,0,0-1.37-2.16l2.82-2.92a.18.18,0,0,0,0-.22l-1.83-2a.15.15,0,0,0-.21,0l-3.16,2.54a20,20,0,0,0-2-1.55l1.64-3.71a.18.18,0,0,0-.06-.21l-2.4-1.25a.18.18,0,0,0-.21.06l-2.1,3.48a15.25,15.25,0,0,0-2.43-.76l.28-4.06a.16.16,0,0,0-.14-.17l-2.68-.35a.15.15,0,0,0-.17.12l-.78,4a18,18,0,0,0-2.55.11l-1.13-3.9a.15.15,0,0,0-.18-.11l-2.63.58a.16.16,0,0,0-.13.17l.62,4a17,17,0,0,0-2.35,1l-2.4-3.29a.14.14,0,0,0-.21,0L289.3,225a.15.15,0,0,0-.05.21l1.95,3.56c-.39.31-.68.57-1,.82s-.57.55-.9.9L286,228.25a.17.17,0,0,0-.22,0l-1.64,2.14a.17.17,0,0,0,0,.21l3.06,2.67a16.27,16.27,0,0,0-1.18,2.26Zm19.33,21.8a14,14,0,0,1-8.28-3.2l2.75-2.53a10.22,10.22,0,0,0,11.55.52l2.52,2.75A14,14,0,0,1,301.38,256.39ZM296,242.21a6,6,0,1,1,5.73,6.26A6,6,0,0,1,296,242.21Zm17.45-7.66a13.88,13.88,0,0,1-.75,16.82l-2.52-2.75a10.22,10.22,0,0,0,.52-11.55Zm-10.84-6a14,14,0,0,1,8.28,3.21l-2.75,2.52a10.2,10.2,0,0,0-11.55-.51L294.08,231A14,14,0,0,1,302.62,228.55Zm-11.33,5,2.51,2.75a10.22,10.22,0,0,0-.5,11.55l-2.76,2.52A13.88,13.88,0,0,1,291.29,233.57Z"/><path class="cls-1" d="M306.3,242.66a4.31,4.31,0,1,0-4.49,4.12A4.3,4.3,0,0,0,306.3,242.66Zm-7.47-.33a3.17,3.17,0,1,1,3,3.31A3.17,3.17,0,0,1,298.83,242.33Z"/><path class="cls-1" d="M252.35,251.35a15.37,15.37,0,0,0,2.07,1.51,1.8,1.8,0,0,1,.22,1.93.56.56,0,0,0,.26.72l.67.31a.53.53,0,0,0,.41,0,.63.63,0,0,0,.31-.29,1.82,1.82,0,0,1,1.63-1.08,17,17,0,0,0,2.49.6,1.82,1.82,0,0,1,1,1.71.54.54,0,0,0,.51.56l.74,0a.54.54,0,0,0,.56-.51,1.88,1.88,0,0,1,1.1-1.64,16.53,16.53,0,0,0,2.53-.39,1.83,1.83,0,0,1,1.53,1.22.63.63,0,0,0,.28.3.7.7,0,0,0,.43,0l.68-.27a.53.53,0,0,0,.3-.68,1.85,1.85,0,0,1,.4-1.92,16.36,16.36,0,0,0,2.18-1.34,1.87,1.87,0,0,1,1.89.53.55.55,0,0,0,.76,0l.54-.49a.56.56,0,0,0,.17-.37.51.51,0,0,0-.14-.39,1.85,1.85,0,0,1-.37-1.94,17.23,17.23,0,0,0,1.51-2.06,1.86,1.86,0,0,1,1.94-.23.55.55,0,0,0,.72-.27l.3-.66a.54.54,0,0,0-.26-.71,1.86,1.86,0,0,1-1.09-1.63,15.59,15.59,0,0,0,.61-2.49,1.81,1.81,0,0,1,1.71-1,.55.55,0,0,0,.56-.52l0-.73a.52.52,0,0,0-.51-.56,1.83,1.83,0,0,1-1.63-1.09,16.83,16.83,0,0,0-.39-2.53,1.86,1.86,0,0,1,1.21-1.55.55.55,0,0,0,.32-.69l-.25-.68a.54.54,0,0,0-.69-.32,1.86,1.86,0,0,1-1.92-.39,16.12,16.12,0,0,0-1.34-2.18,1.83,1.83,0,0,1,.53-1.89.55.55,0,0,0,0-.76l-.49-.54a.53.53,0,0,0-.37-.18.54.54,0,0,0-.4.15,1.84,1.84,0,0,1-1.92.37,16.84,16.84,0,0,0-2.07-1.51,1.82,1.82,0,0,1-.23-2,.53.53,0,0,0-.26-.7l-.67-.31a.51.51,0,0,0-.4,0,.53.53,0,0,0-.31.28,1.87,1.87,0,0,1-1.63,1.09,15.2,15.2,0,0,0-2.5-.61,1.83,1.83,0,0,1-.95-1.71.54.54,0,0,0-.52-.56l-.73,0a.54.54,0,0,0-.56.51,1.8,1.8,0,0,1-1.1,1.63,16.46,16.46,0,0,0-2.53.4,1.85,1.85,0,0,1-1.54-1.21.54.54,0,0,0-.28-.31.53.53,0,0,0-.41,0l-.69.25a.5.5,0,0,0-.29.28.53.53,0,0,0,0,.41,1.81,1.81,0,0,1-.38,1.91,17.94,17.94,0,0,0-2.19,1.35,1.87,1.87,0,0,1-1.89-.54.58.58,0,0,0-.37-.17h0a.6.6,0,0,0-.39.14l-.53.51a.48.48,0,0,0-.17.37.52.52,0,0,0,.13.38,1.82,1.82,0,0,1,.38,1.93l-.55.69v7.81a8.88,8.88,0,0,1,1.63-.11,8.41,8.41,0,0,1,5.26,14.69,14,14,0,0,1-4.62-3.68l2.44-3.87a.52.52,0,0,0,0-.54.51.51,0,0,0-.45-.28l-4.28-.18v9.08a.48.48,0,0,0,.41-.13A1.88,1.88,0,0,1,252.35,251.35Zm8.34,1.43,1.87-2.94,1.61,3.08Zm2.21-11.31a2.58,2.58,0,1,1,2.69-2.47A2.58,2.58,0,0,1,262.9,241.47ZM276.81,238c0,.49,0,1,0,1.48a13.64,13.64,0,0,1-.91,4.37l-4.57-.19a.56.56,0,0,0-.48.25.6.6,0,0,0,0,.54l2.13,4a13.88,13.88,0,0,1-4.91,3.29,8.42,8.42,0,0,1,6.44-14.21A8.12,8.12,0,0,1,276.81,238Zm-2.25-7.11,1.62,3.09-3.48-.15Zm-24.28,2,1.86-2.94,1.61,3.08Zm5-5.5a14,14,0,0,1,5.5-2.18l2.12,4.06a.54.54,0,0,0,.47.28.48.48,0,0,0,.46-.25l2.46-3.86a14.11,14.11,0,0,1,5.31,2.61,8.42,8.42,0,0,1-16.32-.66Z"/><path class="cls-1" d="M328.93,179.77a.66.66,0,0,0,0,.94l1.92,1.92-1.92,1.91a.68.68,0,0,0,0,1l1.4,1.41a.63.63,0,0,0,.94,0L333.2,185l1.93,1.92a.66.66,0,0,0,.47.21,1,1,0,0,0,.47-.21l1.4-1.41a.67.67,0,0,0,0-1l-1.92-1.91,1.92-1.92a.57.57,0,0,0,.19-.47.63.63,0,0,0-.19-.47l-1.4-1.41a.68.68,0,0,0-.94,0l-1.93,1.93-1.05-1-.78-.74h0c-.41-.4-.73-.32-.9-.23h0a.67.67,0,0,0-.14.09Z"/><rect class="cls-1" x="250" y="292" width="5.64" height="0.94"/><rect class="cls-1" x="250" y="293.27" width="5.64" height="0.93"/><rect class="cls-1" x="250" y="295.78" width="5.64" height="0.94"/><rect class="cls-1" x="250" y="297.04" width="5.64" height="0.94"/><rect class="cls-1" x="250" y="302.08" width="5.64" height="0.94"/><rect class="cls-1" x="250" y="300.82" width="5.64" height="0.94"/><rect class="cls-1" x="256.59" y="294.52" width="2.36" height="0.94"/><path class="cls-1" d="M256.59,293.57v.63H266v-.93h-9.42A1.39,1.39,0,0,0,256.59,293.57Z"/><path class="cls-1" d="M266,292h-7.87a1.43,1.43,0,0,0-1.45.94H266Z"/><path class="cls-1" d="M256.59,296.4a1.58,1.58,0,0,0,0,.32h9.29a1.46,1.46,0,0,0-1.45-.94h-7.87Z"/><rect class="cls-1" x="263.67" y="298.29" width="2.37" height="0.95"/><rect class="cls-1" x="263.67" y="299.56" width="2.37" height="0.94"/><path class="cls-1" d="M256.59,303h7.87a1.46,1.46,0,0,0,1.45-.94h-9.32Z"/><path class="cls-1" d="M256.59,301.76H266c0-.09,0-.21,0-.3v-.64h-9.45Z"/><path class="cls-1" d="M266,297.36a2.91,2.91,0,0,0,0-.32h-9.29a1.43,1.43,0,0,0,1.45.94H266Z"/><rect class="cls-1" x="266.98" y="295.78" width="2.35" height="0.94"/><rect class="cls-1" x="266.98" y="294.52" width="2.35" height="0.94"/><path class="cls-1" d="M267,293.57v.63h8.66v-.93H267A1.39,1.39,0,0,0,267,293.57Z"/><path class="cls-1" d="M275.64,292h-7.09a1.44,1.44,0,0,0-1.44.94h8.53Z"/><rect class="cls-1" x="266.98" y="297.04" width="2.35" height="0.94"/><path class="cls-1" d="M268.55,303h7.09v-.94h-8.53A1.44,1.44,0,0,0,268.55,303Z"/><rect class="cls-1" x="266.98" y="299.56" width="2.35" height="0.94"/><path class="cls-1" d="M267,301.46a1.53,1.53,0,0,0,0,.3h8.63v-.94H267Z"/><rect class="cls-1" x="266.98" y="298.29" width="2.35" height="0.95"/><path class="cls-1" d="M438,307.69a.79.79,0,0,1,.06-.64.85.85,0,0,1,.54-.39l.6-.14c-.09-.77-.2-1.54-.32-2.31l-.82.19-.05,0-1.76.4a1,1,0,0,1-1.13-.66l-4.39-14.64,4.37-.49c-.06-.19-.13-.38-.19-.56L421.28,290a2.38,2.38,0,0,1-2.61-2.09,2.37,2.37,0,0,1,2.08-2.61l12.48-1.39c-.07-.19-.14-.37-.22-.56l-4,.45-.28-.95a.81.81,0,0,1,.61-1l2.74-.63c-.36-.85-.7-1.63-1-2.3-2.46-5.44-5.07-10.6-7.8-15.57a5.43,5.43,0,0,1-4-5.24,5.36,5.36,0,0,1,.2-1.46c-.48-.81-1-1.61-1.46-2.4l-1.2-1.42-.16-.21c-.09-.36-.19-.7-.28-1.05-.46-.74-.94-1.47-1.41-2.2.18.64.36,1.26.54,1.92L412.77,248c-.41-1.38-.84-2.7-1.28-4-.54-.81-1.09-1.62-1.64-2.42.55,1.49,1.09,3.07,1.6,4.74l-.22-.17-26-30.47a35.42,35.42,0,0,1,7.25,2.91l-1.23-1.5a37,37,0,0,0-6.6-2.49,5.81,5.81,0,0,0,.36-1.75c1.22.35,2.5.76,3.82,1.27l-.94-1.14c-1-.37-2.06-.69-3-1,0-.17,0-.32,0-.49a5.08,5.08,0,0,0-2.06-3.74L378.62,205c-.18-1.49-.37-2.81-.55-3.79-.36-.44-.72-.87-1.09-1.3l-1.58-1.89a19,19,0,0,1,1.65,6.6l0,0a7.69,7.69,0,0,1,0,2v0A19.14,19.14,0,0,1,346.17,221c-.32-.23-.64-.48-1-.79l-.09-.09-.23-.22a14.32,14.32,0,0,1-1.22-1.25A22.28,22.28,0,0,1,342,216.6a31.14,31.14,0,0,1-2.18-4.35l-.15-.51c-.2-.57-.29-.91-.29-.91h0a18.78,18.78,0,0,1-.67-5,19.1,19.1,0,0,1,1.73-7.92h.33l4-.56a15.71,15.71,0,1,0,4.61-4.64l-.3-3.89a19.08,19.08,0,0,1,19.67,1.18l-.95-1.15a7.28,7.28,0,0,1-1.34-2.42,21.06,21.06,0,0,0-8.51-1.79,7.91,7.91,0,0,0-2.81.2l-2.48-41.35c-.82-13.33-10.81-25.95-23.47-31.42l.91-4.55a5.83,5.83,0,0,0-4-6.65l-1.77-4.33a.67.67,0,0,0-.48-.4l-.66-.14L323,96l2-19.82a2.34,2.34,0,0,0,.27-.15.29.29,0,0,1,.11,0l0,0a3.16,3.16,0,0,0,1.11-4.55,3.21,3.21,0,0,0-2-1.37,3.25,3.25,0,0,0-3.78,2.53,3.17,3.17,0,0,0,.56,2.48h0l.18.19c.07.08.12.17.2.25l-5.74,19-.29-.06-.55-.11a.68.68,0,0,0-.61.19l-3.28,3.34a3.93,3.93,0,0,0-.48-.06,5.86,5.86,0,0,0-5.72,4.7l-1,4.24h-10v-2.39a1.12,1.12,0,0,0-1.12-1.11h-.33v-3.4a3.32,3.32,0,1,0-3.73,0v3.4h-.34a1.11,1.11,0,0,0-1.11,1.11v.22h-.08a1.12,1.12,0,0,0-.76-1.06l-5-1.65V96.08a3.25,3.25,0,0,0-.14-.89h1.11a2.46,2.46,0,1,0,0-4.91H250v1.34h32.43a1.12,1.12,0,1,1,0,2.24H250v1.93h26.41a1.78,1.78,0,0,1,1.77,1.79v19.08a1.78,1.78,0,0,1-1.77,1.78H250v1.94h24.46a1.77,1.77,0,0,0,.11,1.35l.17.3H250v1h8.13L253,132l-3-5.21v2.64l2.13,3.66a1.08,1.08,0,0,0,.88.46,1.12,1.12,0,0,0,1-.55l1-1.8.56-1,.54-.92,2.41-4.18,2.2,3.82.49.84.16.27.23.41.55,1,.91,1.58a1.11,1.11,0,0,0,1,.55,1.12,1.12,0,0,0,1-.55l.54-.94,1.69-2.94,2.31-4,.5.86.63,1.1,0,.06.9,1.56,1,1.69.49.84,1,1.76a1.09,1.09,0,0,0,.95.55,1.15,1.15,0,0,0,1-.55l1.26-2.2.51-.05c0,.1.06.19.1.29l.91,1.63,2.14,3.85.76,1.35c-.21.41-.4.82-.58,1.24h-8.3a.66.66,0,0,0-.68.66v2.21a1,1,0,0,0-.09.13c-.21.87-1.9,1.8-4.23,1.8s-4-.94-4.24-1.8l0,0a.68.68,0,0,0-.18-.28l-.09-.06a.65.65,0,0,0-.33-.11h-.12c-.05,0-.09,0-.13.05h-.05a.66.66,0,0,0-.46.44c-.22.86-1.91,1.8-4.25,1.8-.23,0-.46,0-.68,0v-1.69a3.2,3.2,0,0,0-3.2-3.2h-4v.89h4a2.31,2.31,0,0,1,2.31,2.31v13.94H250v2.25h30.89c.23.58.5,1.15.77,1.71l-2.17,3.91L278,166.78s-.81,1.38-.44,1.85l.44.75L274.31,177a1.35,1.35,0,0,0,.49,1.4,1.75,1.75,0,0,0,1.25.51,1.72,1.72,0,0,0,.83-.2l.68-.36.64-.31,6.15-2.9.17.11a2,2,0,0,0,.44.27l.17.07a1.38,1.38,0,0,0,.49.1,1,1,0,0,0,.54-.15l1.07-.47,6.11-3.38a25.21,25.21,0,0,0,22.22,0l6.84,3.78a1.79,1.79,0,0,0,2.11-.29l0-.05,3.65,1.92a7.42,7.42,0,0,0-2.5,5.55,7.5,7.5,0,1,0,7.52-7.5l-3-5.66.49-.5a1.77,1.77,0,0,0,.3-2.1L330,164.94l-.33-.68c16.23,7.72,17,21.21,17.54,29.72,0,.14,0,.29,0,.43-5.37-1.13-29.32-5.18-97.21-5.31v3.72c8.89,0,17.56.2,25.79.46l-13.54,23.47L250,195.54v7.54l.53.91,0,.08,7,12,1,1.73a0,0,0,0,0,0,0l0,.07a2.94,2.94,0,0,0,1.2,1.4,1.56,1.56,0,0,0,.43.08h1.14a4.18,4.18,0,0,0,1.58-.22,1.38,1.38,0,0,0,.42-.38l11.18-19.35,1.18-2,1.23,2.35,2.83,5.4,7.29,13.91.08.16.11.22a1.34,1.34,0,0,0,1.18.72H291a4.19,4.19,0,0,0,1-.11h0c.61-.16.6-.44.6-.44l11.6-17.79.66-1,.29.61,8,16.91,1,2.1a2.23,2.23,0,0,0,1.08,1.19l.18,0h4.65a1.34,1.34,0,0,0,1.08-.57l4.48-6.4v44.92a6.31,6.31,0,0,0-3.69,4.11,10.33,10.33,0,0,0-.22,1.22,4,4,0,0,0,0,.5v.38H250V270h71.72v44.41a6.23,6.23,0,0,0-4.48,2.05h-1.58a1.35,1.35,0,0,0-1.21.76l-2.9,6.13v-9.83a.66.66,0,0,0-.66-.67h-1.57v-7.47a4.3,4.3,0,0,0,2.23-3.81,4.07,4.07,0,1,0-8.13,0,4.3,4.3,0,0,0,2.23,3.81v7.47h-1.56a.67.67,0,0,0-.67.67v4.22h-2.23V312a.64.64,0,0,0-.4-.6l-8.59-3.81V305.4H295a2.43,2.43,0,0,0,2.42-2.44V292.17a2.44,2.44,0,0,0-2.42-2.44H250v.89h45a1.55,1.55,0,0,1,1.53,1.55V303a1.54,1.54,0,0,1-1.53,1.55H250V305h41.31v13h-2.88a1.34,1.34,0,0,0-1.18.72l-2.74,5.24-7.14,13.64-1.66,3.15-1.19-2.07-.13-.22-1.9-3.3L263.79,320l-.39-.68a1.24,1.24,0,0,0-.45-.43,2.46,2.46,0,0,0-1.13-.23h-1.61a1.33,1.33,0,0,0-1.16.66l-8.85,15.32-.2.35v7.52l12.25-21.19,13.55,23.47c-8.23.26-16.9.43-25.8.46V349c67.88-.12,91.83-4.18,97.21-5.31,0,.14,0,.28,0,.43-.73,12.46-2.1,35.67-51.77,35.67H250V382h45.91c1,0,2.06,0,3.07,0V382h1V382a98.71,98.71,0,0,0,18.76-2.21l1.16-.26c.64-.16,1.29-.32,1.91-.49s1.09-.31,1.74-.51l.44-.14c.9-.29,1.92-.63,3-1l.22-.08,1-.41c.55-.23,1.1-.46,1.62-.7h0l1-.48c.1-.05.19-.11.29-.15h0l.38-.2v0l.26-.13v0l.44-.23v0c.43-.23.84-.45,1.23-.69v0L334,374v0l.19-.12h0c.25-.15.49-.29.73-.45h0c.72-.46,1.39-.94,2-1.43a32,32,0,0,0,6.31-6.4l.28-.39.4-.56a28.66,28.66,0,0,0,1.47-2.54l0,0c.15-.29.3-.58.43-.85l0,0a35.74,35.74,0,0,0,3.05-10.82c.06-.49.37-3.56.44-4.53,0-.57.07-1.12.1-1.65,0-.21,0-.41,0-.62v-.07h0a.76.76,0,0,1,0-.15h0c.06-.49.15-2.06-1.11-2.21l-1.64-.09,0-.54h0V320.62a6.28,6.28,0,0,0-5.08-6.13V273a42.25,42.25,0,0,1,7.81,4.57l2.27,12.24a4.63,4.63,0,0,0,2.72,7.06,6.07,6.07,0,0,0,2.14.07h-.05a5.13,5.13,0,0,0,.87-.26h0a4.6,4.6,0,0,0,2.08-1.68,4.67,4.67,0,0,0-1.33-6.54l-.67-3.51a38.8,38.8,0,0,1,6.78,22V356a39.12,39.12,0,0,1-39.09,39.08h-37.8a1.29,1.29,0,0,1-.09.16,20,20,0,0,1-1.54,2.33c-.31.42-.66.86-1.05,1.31H308.3c1.43,2.48,3.11,5,4.92,7.77l.11.15c3.15,4.72,6.58,9.86,8.85,15.13a.14.14,0,0,1,0,.07l-2.86,15.42a4.36,4.36,0,0,0,4.4,5.24h37.38a4.48,4.48,0,0,0,3.48-1.57,4.39,4.39,0,0,0,.91-3.67L362.62,422c0-.19-.11-.38-.17-.57h0C379,407.48,367.14,382,367.14,382l2.08-19.37h.64c1.69,0,2.49-1.16,2.49-7.77V329.28c0-6.61-.8-7.77-2.49-7.77h-1.5V303c0-11.25-7.14-20.23-7.14-20.23L357.9,230.9h0c3.59,4.51,8.4,9.69,13.67,15.18a41.68,41.68,0,0,0,4.24,10.38c4.7,8.11,12.07,14.19,21.94,18.14a67.65,67.65,0,0,1,4.53,6.45,4.75,4.75,0,0,0,.34,1.09l.65,1.57a16.44,16.44,0,0,0-.55,4.12,15.71,15.71,0,0,0,.15,2h0s0,.14.07.38,0,.25.05.38L397.69,295a8.21,8.21,0,0,0-10.43,2.48l.48,3.82a6.26,6.26,0,1,1,.42,3.56c.15,1.27.29,2.54.43,3.81a8.24,8.24,0,0,0,5,2l3.3,6.85a5.24,5.24,0,0,0-1.13,3.24,5.32,5.32,0,1,0,6.53-5.17l-2.35-7.47a4,4,0,0,0,.26-.32,2,2,0,0,0,.14-.22A8.24,8.24,0,0,0,402,304a4.88,4.88,0,0,0,.16-1.42l5.64-2.92h0c.17.16.33.32.51.46h0a16.13,16.13,0,0,0,9.39,4,18.23,18.23,0,0,0,7.91-1.38l.7-.28a16.56,16.56,0,0,0,4.93-3.77l.18.49,2.49,8.47a1.79,1.79,0,0,0,2.09,1.23l.2,0,3.16,10.8a51.07,51.07,0,0,0,.28-6.31ZM264,132l-5.12-8.88h10.24Zm11,0-5.1-8.88h5.37l2.32,4.41Zm-12.6,24.12h-5.18V144.7c.22,0,.45,0,.68,0a6.48,6.48,0,0,0,4.5-1.48Zm9.7,0h-8.86V143.23a6.45,6.45,0,0,0,4.54,1.51,6.76,6.76,0,0,0,4.32-1.31Zm8,0H273V140h7.74A25.64,25.64,0,0,0,280.11,156.07Zm41.5-83.26a2.18,2.18,0,1,1,1.72,2.56A2.2,2.2,0,0,1,321.61,72.81ZM322.3,76a3.39,3.39,0,0,0,1.76.33l-1.93,19.51-5.48-1.09Zm-7.08,19.64,7.84,1.55,1.62,3.41-12.12-2.39ZM306,103.85a4.94,4.94,0,0,1,4.84-4,5.12,5.12,0,0,1,1,.09l12.65,2.45a5,5,0,0,1,3.89,5.8l-.78,3.3A45,45,0,0,0,307,106.78l-1.63,0Zm-17.43-6.67a2,2,0,1,1,2,2A2,2,0,0,1,288.61,97.18Zm0,7.47h4v9.08h-4Zm-8-1.6,5.3,1.76v8.75l-5.3,1.76Zm-2.84,19.44,5.48,2.89-2.59,2.6Zm2.5,7.76,5.54-5.54,6,3.35a23.58,23.58,0,0,0-8.21,8.2Zm-2.59,45.33,3-5.69,2.7,2.7Zm56.33,1a1.24,1.24,0,0,1,.32,0l.24,0a6.15,6.15,0,1,1-7.5,6,6.09,6.09,0,0,1,1.89-4.4v0l.05,0,.11-.1c.12-.11.41-.31.41-.31A6.42,6.42,0,0,1,334,176.57Zm-3.22-.91-5.41-2.85,2.56-2.56Zm1.68-12.41-6.05.25,2.28,4.1-5.52,5.53-6-3.33a24.66,24.66,0,0,0,4.61-3.59,23.79,23.79,0,0,0,2.23-2.62l-2.2.09c-.39.46-.78.92-1.21,1.35a22.78,22.78,0,0,1-32.19,0l-2.21.09c.33.37.67.74,1,1.09a24.34,24.34,0,0,0,4.61,3.59l-6,3.33-5.54-5.53,1.28-2.29-2.79.11c1.57-1.85,3.36-4.06,5.35-6.4a22.74,22.74,0,1,1,40.7-20.31,27.24,27.24,0,0,1,3.39,1.29c-.28-.73-.58-1.45-.92-2.16L331,131a1.79,1.79,0,0,0-.3-2.11l-.32-.32,3.55-6.77a1.76,1.76,0,0,0-.31-2.08,1.79,1.79,0,0,0-2.08-.32L324.82,123l-.31-.32a1.78,1.78,0,0,0-2.12-.29l-6.85,3.79a25.23,25.23,0,0,0-22.19,0l-6.83-3.79a1.74,1.74,0,0,0-1.28-.15,8,8,0,0,0-1.4.77l-2-1L279,120.38c1.64,0,2.2-.86,2.4-1.49a3,3,0,0,0,.11-.73v-1.73l5-1.64a1.13,1.13,0,0,0,.76-1.06h.08V114a1.11,1.11,0,0,0,1.11,1.11h4.4a1.12,1.12,0,0,0,1.12-1.11V110.6h12.9c21.94,0,40.76,15.72,42,35l2.49,40.13a22.43,22.43,0,0,0-2.49,1C347.59,179,344.17,169.6,332.43,163.25Zm-3.77-33-3.34,6a24.54,24.54,0,0,0-3.59-4.62,24.94,24.94,0,0,0-4.63-3.6l6-3.34Zm-3.05-5,5.21-2.75-2.75,5.22Zm22.78,71.59.17,0a1.3,1.3,0,0,0,.77-.58l0,0a1.61,1.61,0,0,0,.12-.33s0,0,0,0v0a2.25,2.25,0,0,0,.05-.22,1.06,1.06,0,0,0,0-.31c0-.16,0-.33,0-.5a13.92,13.92,0,1,1-2.39,2.3Zm20,154V323.5h1.46c.23.33.53,2.44.53,5.78v25.56c0,3.34-.3,5.45-.53,5.78h-1.46Zm-44.58,47.92h1.92s19.68,1.32,34.26-17.69l-.39,3.58a1.88,1.88,0,0,0-.52.28,1.74,1.74,0,0,0-.65,1.19l-2.58,23.94h-29l-3-11.29Zm33.37,13.3v6.25H327.22v-6.25h29.93Zm-40.86-7.36c-1.36-2-2.66-4-3.84-5.94h1.7l.18.69a1.82,1.82,0,0,0,.82,1.08,1.84,1.84,0,0,0,.89.23,1.74,1.74,0,0,0,.45-.06l.11,0,2,7.53C317.83,407.1,317.05,405.93,316.29,404.79Zm1.86-5.94h3.56l3.73,14h-.07a3.76,3.76,0,0,0-3.07,1.6Zm45.36,38.9a2.37,2.37,0,0,1-2.43,2.89H323.7a2.38,2.38,0,0,1-2.44-2.89l2.86-15.42a2.89,2.89,0,0,1,2.87-2.06H357.8a2.88,2.88,0,0,1,2.86,2.07Zm-4-24.9a3.19,3.19,0,0,0-.54,0h0c.28-2.81-1.15-2.67-1.15-2.67l2.54-23.58,5.3.58-3,27.45A3.71,3.71,0,0,0,359.51,412.85Zm8.68-18.94c1.37,7.71,1.22,15.1-2.94,20.83-.71,1-1.44,1.94-2.18,2.89a3.67,3.67,0,0,0,.17-1.06,4,4,0,0,0-.18-1.09l.1-.89.66-.89c4.22-5.84,4-13.54,2.19-21.77l.57-5.09Zm-3.39-8.66-3.23-.36.65-6a41.31,41.31,0,0,0,4.3-9.75Zm39.59-64.5a3.33,3.33,0,1,1-3.32-3.33A3.32,3.32,0,0,1,404.39,320.75Zm-4.23-4.93a3.57,3.57,0,0,0-1.53.52l-2.94-5.87a8.55,8.55,0,0,0,2.6-1Zm20.41-31.07a2.9,2.9,0,0,0-2,1.08,2.95,2.95,0,0,0,2.29,4.79,1.94,1.94,0,0,0,.34,0l5.14-.58a7.8,7.8,0,1,1-.6-5.85ZM406.73,247a2.5,2.5,0,0,0,0-.67l4.09,6.44a2.13,2.13,0,0,1,.29,1.59,2.1,2.1,0,0,1-.93,1.33l-12.65,8.15a2.1,2.1,0,0,1-1.15.35,2.13,2.13,0,0,1-1.78-1l-3.66-5.79a2.38,2.38,0,0,0,1.12.27,2.48,2.48,0,0,0,1.39-.43l12.29-8.72A2.39,2.39,0,0,0,406.73,247Zm-29.87,3.26a19.56,19.56,0,0,1-1.57-4.14c1.16,1.2,1.67,1.69,2.85,2.91l.05.05c5.11,5.29,10.26,10.64,14.82,15.75l3.46,5.77c-.43-.19-.87-.37-1.29-.57C389.8,263.7,383.15,256.8,376.86,250.29Zm15.27,17.58a37,37,0,0,1-13.24-13.19c-.42-.73-.8-1.47-1.16-2.21C382.65,257.56,387.71,262.84,392.13,267.87Zm-10.49-20h0l7.23,10.21L390.1,260l.57,1c-3.78-4.12-7.84-8.33-11.88-12.51l-4-4.12a45.14,45.14,0,0,1-1.11-6.73l.93,1.13h0l5.08,6.62h0Zm19.79-8.64a2.28,2.28,0,0,0,0-.37l4.22,6a2.12,2.12,0,0,1,.36,1.57,2.09,2.09,0,0,1-.87,1.36l-12.28,8.72a2.15,2.15,0,0,1-3-.51l-4.16-5.92a2.42,2.42,0,0,0,1.34.42,2.35,2.35,0,0,0,1.47-.5l11.95-9.16A2.43,2.43,0,0,0,401.43,239.23Zm-1.14-2.16a2.12,2.12,0,0,1-.4,3L388,249.2a2.15,2.15,0,0,1-1.29.43,2.05,2.05,0,0,1-1.68-.83l-4.4-5.72a2.5,2.5,0,0,0,1,.21,2.45,2.45,0,0,0,1.48-.5L395,233.63a2.42,2.42,0,0,0,.91-2.3Zm-5.53-7.21a2.12,2.12,0,0,1-.39,3L382.43,242a2.13,2.13,0,0,1-1.29.45,2.11,2.11,0,0,1-1.69-.84l-4.14-5.4a2.31,2.31,0,0,0,.83.16,2.45,2.45,0,0,0,1.55-.55l11.61-9.6a2.42,2.42,0,0,0,.79-2.43Zm-11.37-10.93a2.39,2.39,0,0,0,.81-1.68,2.53,2.53,0,0,0-.06-.61l4.82,5.81a2.11,2.11,0,0,1-.29,3L377.06,235a2.1,2.1,0,0,1-1.35.48,2.07,2.07,0,0,1-1.62-.76l-.63-.75-2.6-3.12-.11-.13a6.21,6.21,0,0,0,2.85-1.92L377,224.7Zm-4.62-11.45,1.76.87a5.67,5.67,0,0,1,.82,8l-9.18,11.27a5.65,5.65,0,0,1-4.4,2.09,5.74,5.74,0,0,1-3.59-1.27l-2.91-1.69C370.92,225.51,377.77,217.35,378.77,207.48ZM364,230.9a7.68,7.68,0,0,0,4.84,1.72c.25,0,.49,0,.73,0l.12.14.25.32a54.76,54.76,0,0,0,.4,6.6,163.08,163.08,0,0,1-10.82-12.38Zm-72.3-13.39-12.3-24.11c9.87.34,19,.8,27.11,1.29ZM320.23,219,309,194.83c12.11.76,21.51,1.54,26.8,2Zm15.58-19.95v60.15c-.16,0-.32,0-.49,0H328a5.34,5.34,0,0,0-1,.1V211.65ZM328,260.52h7.32a5,5,0,0,1,4.64,3.22H323.38A4.93,4.93,0,0,1,328,260.52Zm-4.95,5c0-.14,0-.27,0-.4h17.16c0,.13,0,.26,0,.4v48.9H323.05Zm-18.74,36.07a3.18,3.18,0,1,1,3.18,3.4A3.31,3.31,0,0,1,304.31,301.54Zm4.12,3.87v7.4h-1.89v-7.4Zm-4.12,8.3h6.35v3h-6.35Zm0,3.62h6.35v2.13h-6.35Zm0,2.74h6.35v2.15h-6.35Zm0,2.76h6.35V325h-6.35Zm-3.12-4.23h2.23v5.47h-2.23Zm-9-10.06,8.1,3.57v18.07l-7.55-11.63a1.27,1.27,0,0,0-.55-.45Zm-12.79,36.17,12.3-24.11,14.81,22.82C298.44,343.91,289.28,344.37,279.41,344.71Zm25.52-7.4-3.74-5.76V325h2.23v4.22a.68.68,0,0,0,.67.67h4.38Zm-.62-8.35v-3.38h6.17l-1.6,3.38ZM309,343.28l11.28-24.2,15.52,22.18C330.47,341.74,321.07,342.52,309,343.28ZM345.38,341l-4.71-.22h-.17l-3.22.31-13.85-19.8h21.95Zm-.07-21H322.49l-1.83-2.62a.69.69,0,0,0-.61-.28h-1.62a4.92,4.92,0,0,1,3.43-1.39h18.56A5,5,0,0,1,345.31,320Zm-3.69-51.82v-2.71a4.9,4.9,0,0,0-.08-.77s0,0,0,0a6.13,6.13,0,0,0-.22-1,6.28,6.28,0,0,0-4.18-4.21v-44l2.28.73a21.29,21.29,0,0,0,14.37,10.43l3.2,51.58L356,277l-1.86-9.85a2.59,2.59,0,0,0,1.43-.83,1,1,0,0,0,.16-.75l-.29-1.52c-.12-.57-.71-.91-1.59-.91a3.58,3.58,0,0,0-.45,0l-2.62-13.85a2.44,2.44,0,0,0,1.4-.82,1,1,0,0,0,.18-.76l-.29-1.51c-.1-.58-.7-.92-1.58-.92a3.42,3.42,0,0,0-.46,0l-2.84-15a4.69,4.69,0,0,0-3.87-7.31,5,5,0,0,0-.87.09,4.69,4.69,0,0,0-3.72,5.46,4.61,4.61,0,0,0,2,3l2.84,15c-1.2.26-1.91.9-1.78,1.63l.28,1.5c.12.58.72.93,1.61.93a3.55,3.55,0,0,0,.64-.06l2.61,13.83a2.57,2.57,0,0,0-1.6.87.92.92,0,0,0-.17.75l.29,1.51c.11.58.71.92,1.6.92a4.76,4.76,0,0,0,.64-.06l.67,3.54A48.41,48.41,0,0,0,341.62,268.18ZM346,249.81l1.26-.23,2.54-.49,2.78,14.69-2.55.49-.43.08-1.74.32L345.07,250Zm-1.51-3-3.13-16.56-.51-2.21a2.36,2.36,0,0,1,.38-1.8,2.41,2.41,0,0,1,1.53-1,2.32,2.32,0,0,1,.46,0,2.42,2.42,0,0,1,2.36,2l.5,2.2L349.2,246Zm13.43,45.2a2.39,2.39,0,0,1-1.91,2.8,2.3,2.3,0,0,1-.45,0,2.42,2.42,0,0,1-2.36-2l-4.75-25.14,4.72-.89Zm-2.07-65.4a18.44,18.44,0,0,0,2.25.2c3,4.47,6.5,8.05,12.33,14.18.17,1.08.39,2.17.65,3.28C363.88,236.8,359.11,231.91,355.84,226.65ZM376.59,256a45.06,45.06,0,0,1-5.74-21.88l1.88,2.29a42.4,42.4,0,0,0,5.39,18.7c4.09,7.06,10.39,12.47,18.76,16.2l1.53,2.55C388.58,270,381.23,264,376.59,256Zm22.67,14.7-3.48-5.87a2.54,2.54,0,0,0,1,.24,2.45,2.45,0,0,0,1.31-.39l12.66-8.16a2.35,2.35,0,0,0,1.06-1.51,2.73,2.73,0,0,0,0-.9l2.24,3.78v0l1.65,2.81a2.09,2.09,0,0,1,.25,1.6,2.06,2.06,0,0,1-1,1.29l-12.89,7.81a2,2,0,0,1-1.08.31A2.13,2.13,0,0,1,399.26,270.71ZM400,272a2.41,2.41,0,0,0,1.51.55,2.5,2.5,0,0,0,1.25-.34l12.88-7.81a2.42,2.42,0,0,0,1.1-1.48,2.9,2.9,0,0,0,.06-.41l3.42,6.05a1.21,1.21,0,0,1,.09.2,4.48,4.48,0,0,0-.64-.05,5.21,5.21,0,0,0-2,.4l-12.36,5.19a5.09,5.09,0,0,0-2.61,2.48Zm3.16,7.06c.15-.46.27-.87.31-1A4.71,4.71,0,0,1,406,275.6l12.36-5.18a4.77,4.77,0,0,1,1.82-.37,4.72,4.72,0,0,1,4.37,2.9l.22.56a14.76,14.76,0,0,0-20.46,10.34l-.84-2.05A4.73,4.73,0,0,1,403.14,279.1ZM402,300.45a8.17,8.17,0,0,0-2.61-4.22l4.18-3.56a17.76,17.76,0,0,0,2.88,5.48Zm17.08,1.74a14.36,14.36,0,1,1,11.58-22.81l-1.06.26h0l-4.72,1.15,0,0a9.17,9.17,0,1,0,3,9l2.57,6.67A14.31,14.31,0,0,1,419.07,302.19Z"/><path class="cls-1" d="M250,395.05v1.22h6.83c2.27,0,4.48,0,6.6,0s4.18,0,6.13-.13,3.83-.18,5.6-.31l2.55-.23c.82-.08,1.6-.19,2.37-.26l2.25-.29H250Z"/><path class="cls-1" d="M254.67,113.87V99.18A2.22,2.22,0,0,0,252.45,97H250v.44h2.45a1.77,1.77,0,0,1,1.77,1.77v14.69a1.77,1.77,0,0,1-1.77,1.77H250v.45h2.45A2.23,2.23,0,0,0,254.67,113.87Z"/><path class="cls-1" d="M270.43,116.09a2.24,2.24,0,0,0,2.23-2.22V99.18A2.23,2.23,0,0,0,270.43,97h-8.76a2.22,2.22,0,0,0-2.22,2.21v14.69a2.23,2.23,0,0,0,2.22,2.22Zm-10.54-2.22V99.18a1.78,1.78,0,0,1,1.78-1.77h8.76a1.78,1.78,0,0,1,1.78,1.77v14.69a1.78,1.78,0,0,1-1.78,1.77h-8.76A1.78,1.78,0,0,1,259.89,113.87Z"/><rect class="cls-1" x="250" y="101.07" width="1.76" height="0.96"/><path class="cls-1" d="M251,104.93h-1v1h2.44A1.5,1.5,0,0,0,251,104.93Z"/><rect class="cls-1" x="250.15" y="108.78" width="2.41" height="0.96"/><path class="cls-1" d="M252.44,111.35H250v1h1A1.51,1.51,0,0,0,252.44,111.35Z"/><path class="cls-1" d="M252.56,110.71v-.65H250v1h2.53A1.73,1.73,0,0,0,252.56,110.71Z"/><rect class="cls-1" x="250" y="102.36" width="1.76" height="0.96"/><rect class="cls-1" x="250.15" y="107.5" width="2.41" height="0.96"/><path class="cls-1" d="M252.56,106.53a1.73,1.73,0,0,0,0-.32H250v1h2.56Z"/><rect class="cls-1" x="261.59" y="108.78" width="2.41" height="0.96"/><path class="cls-1" d="M270.43,106.53a1.73,1.73,0,0,0,0-.32h-8.81v1h8.84Z"/><path class="cls-1" d="M270.43,110.71v-.65h-8.84v.65c0,.11,0,.21,0,.32h8.78A1.73,1.73,0,0,0,270.43,110.71Z"/><path class="cls-1" d="M268.82,104.93h-7.23v1h8.71A1.48,1.48,0,0,0,268.82,104.93Z"/><rect class="cls-1" x="261.59" y="107.5" width="2.41" height="0.96"/><path class="cls-1" d="M269.62,102.36h-8c0,.1,0,.22,0,.32v.64h8Z"/><rect class="cls-1" x="268.02" y="107.5" width="2.41" height="0.96"/><rect class="cls-1" x="261.59" y="103.64" width="2.41" height="0.96"/><rect class="cls-1" x="268.02" y="108.78" width="2.41" height="0.96"/><path class="cls-1" d="M263.2,112.32h5.62a1.49,1.49,0,0,0,1.48-1h-8.58A1.5,1.5,0,0,0,263.2,112.32Z"/><path class="cls-1" d="M269.62,101.07H263.2a1.49,1.49,0,0,0-1.48,1h7.9Z"/></svg>