<svg id="图层_1" data-name="图层 1" xmlns="http://www.w3.org/2000/svg" viewBox="0 0 500 500"><defs><style>.cls-1{fill:#006aba;}</style></defs><title>12画板 1 副本 137</title><path class="cls-1" d="M181.37,348l46-44.79L163.82,294l-28.4-57.55L107,294l-34.38,5c-1.15,8.44-1.76,22.48,4.45,33,3.86,6.54,10,10.89,18.09,12.91,3.31.82,13,1.46,18.2-4.72,0-.68,0-1.36,0-2.05a11,11,0,0,1-4.13.81,10.83,10.83,0,0,1-7.47-2.92c-3.37-3.19-4.17-8.06-2.2-13.37a3,3,0,0,1,5.63,2.09c-1.11,3-.86,5.45.7,6.93a5,5,0,0,0,5.34.86,5.18,5.18,0,0,0,2.21-1.81c.18-10.74.71-21.32,1.74-30.92a4,4,0,0,1,8,.85c-3,27.51-1.69,63.21-.2,87.3l12.45-6.54,56.8,29.86Z"/><path class="cls-1" d="M185.48,120.77,208.74,133l-4.44-25.9,18.81-18.34-26-3.78L185.48,61.41,173.85,85l-16.28,2.37c-1,2.45-2.06,5.07-3.09,7.88l12.19,11.87L162.22,133Z"/><path class="cls-1" d="M312.59,113.57l-26,3.78,18.81,18.34L301,161.59l23.26-12.23,23.26,12.23L343,135.69l11.37-11.08q-1.14-4.53-2.3-8.68l-16.26-2.36L324.22,90Z"/><path class="cls-1" d="M407.88,244.5l-21.39-3.11-11.63-23.56-11.63,23.56-26,3.78L356,263.51l-4.44,25.9,23.26-12.23,23.26,12.23-4.45-25.9,16-15.58C409.07,246.77,408.47,245.63,407.88,244.5Z"/><path class="cls-1" d="M365.63,400.28l11.32-11c.17-2.63.33-5.42.49-8.32l-19-2.76-11.63-23.57-11.62,23.57-26,3.78L328,400.28l-4.44,25.9L346.81,414l23.26,12.23Z"/></svg>