<svg id="图层_1" data-name="图层 1" xmlns="http://www.w3.org/2000/svg" viewBox="0 0 500 500"><defs><style>.cls-1{fill:#00447c;}</style></defs><title>1画板 1 副本 122</title><path class="cls-1" d="M294,79c2,.87,3.68,1.7,5.06,2.44,2.77,1.45,4.31,2.45,4.31,2.45s-1.81.28-4.93.48c-1.09.07-2.35.13-3.73.2C344.13,140.25,401.17,291,250,321.53,99.37,291.11,155.47,141.32,204.79,85.21l-5.06.07c-3.11,0-5-.12-5-.12s1.45-1.12,4.12-2.78a51.69,51.69,0,0,1,4.92-2.79c1.95-1,4.15-2.12,6.64-3.08.94-.39,1.92-.76,2.93-1.15a47.87,47.87,0,0,1-5.15-9.52C204.79,57.74,197,50,188.66,50.64c-6.22.54-12.79,5.77-19,15.12-8.65,13-16.22,33.38-22.52,60.44-6.36,27.38-13.28,59.19-13.35,59.51a7.51,7.51,0,0,1-1.56,3.19c-3.12,3.78-6.2,7.44-9.22,11-21.52,25.67-40.1,47.85-54.14,78.93-5.08,11.23-19.59,49.17,6.73,65.78a30.37,30.37,0,0,0,7.33,3.07C64.26,314.52,92.86,267,118.59,235.09a216.81,216.81,0,0,0,2.81,39.7,7.48,7.48,0,0,1,8.63,8.68c-.88,5-1.66,10.23-2.35,15.47,7.84,21.66,21.26,39.27,42.24,49.86-26,16-40.13,35.6-47.2,52.08.1,6.76.25,10.78.26,10.94a7.54,7.54,0,0,1-3.8,6.82c-5.7,3.26-13.82,10.43-13.1,15.41,1.7,11.61,21.61,16.56,60.8,15.09.15-53.69,30.75-60.83,83.12-74.35,52.37,13.52,83,20.66,83.12,74.35,39.19,1.47,59.1-3.48,60.8-15.1.72-5-7.4-12.14-13.11-15.41a7.54,7.54,0,0,1-3.79-6.81c0-.16.16-4.18.26-10.94-7.07-16.48-21.23-36.08-47.2-52.08,21-10.59,34.4-28.2,42.24-49.86-.69-5.24-1.47-10.42-2.35-15.47a7.49,7.49,0,0,1,6.09-8.68,7.67,7.67,0,0,1,2.53,0,215.91,215.91,0,0,0,2.82-39.7c25.73,31.9,54.33,79.43,35.65,112.64a30.37,30.37,0,0,0,7.33-3.07c26.31-16.61,11.81-54.55,6.73-65.78C417.08,247.8,398.5,225.62,377,200c-3-3.61-6.1-7.27-9.22-11a7.51,7.51,0,0,1-1.56-3.19c-.07-.32-7-32.13-13.35-59.51-6.3-27.06-13.87-47.39-22.52-60.44-6.2-9.35-12.77-14.58-19-15.12-8.32-.7-16.13,7.1-19.57,15.2a47.23,47.23,0,0,1-5.56,10.09l1,.38C289.74,77.21,292,78.15,294,79Z"/></svg>