<svg id="图层_1" data-name="图层 1" xmlns="http://www.w3.org/2000/svg" viewBox="0 0 500 500"><defs><style>.cls-1{fill:#1c3f00;}</style></defs><title>12画板 1 副本 168</title><path class="cls-1" d="M336.06,374.8l41.09-76a3.77,3.77,0,0,1,.48-.91l0-.08h0a4,4,0,0,1,2.78-1.61,3.91,3.91,0,0,1,2.1.36L428,304.4a77.08,77.08,0,0,0-1.93-12.74c-13.05-54.84-49.91-93.19-55.53-98.8a3.05,3.05,0,0,1-.75-.69l-.29-.36C353.07,244.3,277.12,322.42,250,336.67,223,322.42,147,244.3,130.58,191.81l-.29.36a3.05,3.05,0,0,1-.75.69c-5.62,5.61-42.48,44-55.53,98.8a77.08,77.08,0,0,0-1.93,12.74l45.44-7.8a3.91,3.91,0,0,1,2.1-.36,4,4,0,0,1,2.78,1.61h0l0,.08a3.77,3.77,0,0,1,.48.91l41.09,76,47.33-31,38.7,36,38.69-36Z"/><path class="cls-1" d="M368.94,190.77a3.4,3.4,0,0,1-.14-1.55c-1.43-6.95-7.5-36.1-13-59.36-15.3-64.26-33.16-75.23-42.45-76.05-9.51-.84-17.95,8.27-21.78,17.08-4.92,11.31-11,16.92-18.56,17.16C285.6,88.05,351.8,158.46,368.94,190.77Z"/><path class="cls-1" d="M125,414.76a4,4,0,0,1-1.81,3.76c-.1.07-10.71,7.21-9.19,14.63,2.37,11.48,26.39,15.18,67.64,10.4l2.62-.45,1.05-.18,1.46-.26,1.25-.22,1.2-.22,1.26-.23,1.09-.21,1.27-.25,1-.19,1.25-.26.93-.19,1.23-.27.85-.19,1.23-.27.76-.18,1.23-.3.63-.16,1.28-.33.22-.06q2.36-.63,4.44-1.32l.38-.12,1.09-.38.49-.17,1-.38.51-.2.91-.39.5-.21.86-.4.46-.23c.28-.13.56-.28.83-.42l.41-.22c.27-.15.54-.3.8-.46l.35-.21.79-.5.25-.18c.28-.18.55-.37.81-.56v0a18.06,18.06,0,0,0,2.54-2.28l.08-.07c.2-.22.39-.45.58-.68l.18-.22c.17-.22.33-.44.49-.67l.2-.28c.15-.22.3-.45.43-.68a3.21,3.21,0,0,0,.19-.31c.14-.23.26-.46.38-.7s.12-.22.17-.33.23-.49.33-.74.1-.23.14-.34.21-.52.3-.79c0-.11.07-.22.1-.33.1-.28.18-.56.26-.85a2.68,2.68,0,0,0,.07-.27c.08-.32.16-.64.23-1h0l-57-22.58Z"/><path class="cls-1" d="M376.86,418.52a4,4,0,0,1-1.81-3.76l-43-15.1-57,22.58h0c.07.33.15.65.23,1a2.68,2.68,0,0,0,.07.27c.08.29.16.57.26.85,0,.11.06.22.1.33.09.27.19.53.3.79s.09.23.14.34.21.49.33.74l.17.33c.12.24.24.47.38.7a3.21,3.21,0,0,0,.19.31c.13.23.28.46.43.68l.2.28c.16.23.32.45.49.67l.18.22c.19.23.38.46.58.68l.08.07a18.06,18.06,0,0,0,2.54,2.28v0c.26.19.53.38.81.56l.25.18.79.5.35.21c.26.16.53.31.8.46l.41.22c.27.14.55.29.83.42l.46.23.86.4.5.21.91.39.51.2,1,.38.48.17,1.09.38.38.12q2.09.69,4.44,1.32l.22.06,1.28.33.63.16,1.23.3.76.18,1.23.27.85.19,1.23.27.94.19,1.25.26,1,.19,1.27.25,1.09.21,1.26.23,1.2.22,1.25.22,1.46.26,1.05.18,2.62.45c41.25,4.78,65.27,1.08,67.64-10.4C387.57,425.73,377,418.59,376.86,418.52Z"/><path class="cls-1" d="M227.1,88.05c-7.57-.24-13.64-5.85-18.56-17.16-3.83-8.81-12.27-17.92-21.78-17.08-9.29.82-27.15,11.79-42.45,76.05-5.54,23.26-11.6,52.41-13,59.36a3.4,3.4,0,0,1-.14,1.55C148.27,158.46,214.47,88.05,227.1,88.05Z"/></svg>