<svg id="图层_1" data-name="图层 1" xmlns="http://www.w3.org/2000/svg" viewBox="0 0 500 500"><defs><style>.cls-1{fill:#29abe2;}</style></defs><title>1画板 1 副本 151</title><path class="cls-1" d="M115.26,280.89a7.49,7.49,0,0,1,13-3.62L331.14,67c-.27-.43-.54-.87-.81-1.28-6.2-9.35-12.77-14.58-19-15.12-8.32-.7-16.13,7.1-19.57,15.2a47.23,47.23,0,0,1-5.56,10.09l1,.38c2.5.9,4.75,1.84,6.73,2.73s3.68,1.7,5.06,2.44c2.77,1.45,4.31,2.45,4.31,2.45s-1.81.28-4.93.48c-1.56.1-3.45.19-5.58.28s-4.5.1-7.1.14l-8.29,0c-2.92-.07-6-.06-9.12-.18s-6.36-.16-9.62-.19l-2.45-.06-2.46,0c-1.64,0-3.29-.08-4.94-.06s-3.28,0-4.92,0l-4.89,0c-1.62,0-3.22,0-4.82.07-.48,0-1,0-1.45,0L133,187.82a7.36,7.36,0,0,1-.74,1.08c-3.12,3.78-6.2,7.44-9.22,11-21.52,25.67-40.1,47.85-54.14,78.93C64.32,289,52.16,320.59,68.79,339l44.61-46.24C114,288.73,114.58,284.77,115.26,280.89Z"/><path class="cls-1" d="M356.61,142.6c-1.24-5.46-2.51-11-3.76-16.4q-3.59-15.39-7.7-27.83L124.83,326.72c-1.67,21.73-2.14,42.7-2.2,58.4Z"/><path class="cls-1" d="M212.58,395.23c-.32-.58-.47-.89-.47-.89l1,.13,1.11.17L388.6,213.91c-3.77-4.59-7.64-9.22-11.62-14L371.2,193,125.93,447.26c8.85,1.71,20.68,2.39,35.56,2L213,395.93Z"/><path class="cls-1" d="M188.66,50.64c-6.22.54-12.79,5.77-19,15.12-8.1,12.22-15.26,30.83-21.3,55.36l57.55-59.65C201.9,55.17,195.44,50.08,188.66,50.64Z"/><path class="cls-1" d="M377.08,365.16l-77.3,80.11c6.62,1.29,14.73,2.37,24.61,3.45l53-54.9C377.4,386.05,377.36,376.2,377.08,365.16Z"/><path class="cls-1" d="M431.12,278.88c-8.76-19.38-19.28-35.3-31.18-50.77L237.7,396.26h19.13c2.27,0,4.48,0,6.6,0s4.18,0,6.13-.13,3.83-.18,5.6-.31l2.55-.23c.82-.08,1.6-.19,2.37-.26l4-.51c1.13-.13,2.08-.32,2.72-.38s1-.11,1-.11-.16.31-.49.87a20,20,0,0,1-1.54,2.33,29.79,29.79,0,0,1-2.89,3.3c-.6.6-1.29,1.16-2,1.8s-1.54,1.19-2.4,1.81a40.22,40.22,0,0,1-5.58,3.18c0,1.24,0,2.49-.05,3.8a106,106,0,0,0,.31,12.7c.65,6.43,2.87,10.95,7.56,14.33L376,339.63A504.3,504.3,0,0,0,370,283.47a7.5,7.5,0,1,1,14.77-2.58c2.5,14.26,4.21,29.4,5.36,44.15l42.11-43.65C431.82,280.45,431.45,279.61,431.12,278.88Z"/><path class="cls-1" d="M226.88,424.13a106,106,0,0,0,.31-12.7c0-1.26-.06-2.46-.05-3.65l-.37-.18-38.16,39.55C216.06,443.41,225.43,438.56,226.88,424.13Z"/></svg>