<svg id="图层_1" data-name="图层 1" xmlns="http://www.w3.org/2000/svg" viewBox="0 0 500 500"><defs><style>.cls-1{fill:#bc0056;}</style></defs><title>12画板 1 副本 80</title><path class="cls-1" d="M113.38,340.17c0-.68,0-1.36,0-2.05a11,11,0,0,1-4.13.81,10.83,10.83,0,0,1-7.47-2.92c-3.37-3.19-4.17-8.06-2.2-13.37a3,3,0,0,1,5.63,2.09c-1.11,3-.86,5.45.7,6.93a5,5,0,0,0,5.34.86,5.18,5.18,0,0,0,2.21-1.81c.18-10.74.71-21.32,1.74-30.92a4,4,0,0,1,8,.85c-4.32,40.15.37,97.77,1.58,111.23,5.48-6.91,9.6-14.07,10.84-22.32,4.95-32.61-10.26-53.59-10.26-53.59s66.29,23.33,55.17,93.42c0,0,25.49-3,18.9-33.23,0,0,12.11,12.82,21.57,34.25,2.86-3.13,4.33-7.07,4.53-12.27a90.37,90.37,0,0,0-.36-10.92c-.13-1.55-.24-3-.25-4.45a77,77,0,0,1-10.7-3.3,4,4,0,1,1,3-7.42,74.38,74.38,0,0,0,10.64,3.17c1.27-7.31,7.23-16.16,21.93-24.46,22.64-12.77,28.3-30.5,28.3-30.5,7.73,12.62-7.73,38.89-7.82,55.39a77.88,77.88,0,0,0,12.63-3.6,4,4,0,1,1,3,7.42,77,77,0,0,1-10.7,3.3c0,1.37-.11,2.71-.22,4.13,2.28,1.71,5.53,2.82,10,3.16,22.94,1.71,9.66-41.18,9.66-41.18a78,78,0,0,1,15.55,5,66.5,66.5,0,0,1,29.64,25.18c-.69-41.56,32.18-54.88,32.18-54.88-5.84,14.84-4.49,28.07,2.89,43.82a35.3,35.3,0,0,0,2,3.6c1.57-24,3.14-62,0-91a4,4,0,0,1,8-.85c1,9.6,1.56,20.18,1.74,30.91a5.2,5.2,0,0,0,2.21,1.82,5,5,0,0,0,5.34-.86c1.56-1.48,1.81-3.94.7-6.93a3,3,0,0,1,5.63-2.09c2,5.31,1.17,10.18-2.2,13.37a10.83,10.83,0,0,1-7.47,2.92,11,11,0,0,1-4.13-.81c0,.69,0,1.37,0,2.05,5.15,6.18,14.89,5.54,18.2,4.72,8.14-2,14.23-6.37,18.09-12.91,9.41-15.94,3.17-40,3.1-40.23a196.9,196.9,0,0,0-15.93-43,3.76,3.76,0,0,1-.81.69,13.59,13.59,0,0,1-9.31,1.68,20.66,20.66,0,0,1-13-7.42c-12.07-14.61-14.59-32.13-13.41-47.62-1.39-1.49-2.47-2.58-3.11-3.23a3.05,3.05,0,0,1-.75-.69l-.29-.36a3.33,3.33,0,0,1-.69-2.59c-.63-3-2.13-10.3-4.1-19.45-17.76,14.94-22.78,31-14.61,48.11,6.35,13.27,12.65,35.16-7.3,37.42s-15.56-37.63-15.56-37.63c-32.36,43.19,6.8,93.08,6.8,93.08-12.27-1.86-18.9-8.07-22.5-14.26a106.93,106.93,0,0,1-4.26-14.59,67.26,67.26,0,0,0-14.07,30.27,39,39,0,0,0-.31,10.95l.06.55c.05.62.08,1.3.08,2v.08c0,.19,0,.38,0,.56v.14c0,.19,0,.38,0,.57,0,0,0,.05,0,.08,0,.22,0,.43-.07.64a.3.3,0,0,1,0,.1c0,.17-.05.34-.08.5a1.16,1.16,0,0,0,0,.18c0,.14-.07.29-.11.42s0,.12,0,.17-.12.37-.19.54h0a4.37,4.37,0,0,1-.23.49l-.08.15c-.06.11-.13.21-.2.32l-.1.14-.25.3-.09.09a3.09,3.09,0,0,1-.39.33l-.1.06-.35.2-.16.07c-.12,0-.24.09-.37.12l-.16,0-.33,0s0,0,0,0l-.25,0h-.53l-.16,0-.34,0-.18-.05-.28-.07-.19-.07-.25-.11a.91.91,0,0,1-.17-.09l-.24-.13-.16-.11-.22-.16-.15-.13a1.8,1.8,0,0,1-.2-.19l-.14-.14c-.06-.07-.13-.14-.19-.22l-.12-.15-.18-.24-.11-.16c-.06-.09-.12-.18-.17-.27l-.09-.16-.17-.31-.07-.15c-.06-.11-.11-.23-.16-.34l-.06-.15a2.39,2.39,0,0,1-.15-.37,1.12,1.12,0,0,1-.05-.13c-.05-.14-.1-.28-.14-.42a.69.69,0,0,1,0-.1c-.05-.16-.09-.32-.14-.48a.14.14,0,0,0,0-.06c0-.18-.09-.36-.13-.54a21.76,21.76,0,0,1-.52-3.71c0-.58.1-1.16.1-1.74s0-.95-.06-1.42a.37.37,0,0,0,0-.11h0c-.6-11.36-8.26-23.05-21.12-29a43.59,43.59,0,0,0-8.72-2.94s7.44,25.14-5.43,24.14c-19.51-1.52,2.55-30-3.86-40.91,0,0-3.18,10.39-15.88,17.88s-13.77,15.74-11.51,20.29c2.41,4.84,11.17,16.56,1.27,21.14-7.5,3.48-11.14-1.18-12.9-6.36a91.82,91.82,0,0,1-.7-13.17c3.08-43.59-28-52.56-28-52.56,8.93,31.14-17.21,31.62-17.21,31.62,6.28-41.44-22-67-44.25-80.49-1.91,2.42-3.94,5.08-6,8,6.32,9.28,11.31,21.25,9.37,34.62C115.9,270.52,104.5,281.3,90,294.35c-5-5.69-9.1-20.38-3.33-39A193,193,0,0,0,74,291.66C73.92,292,67.68,316,77.09,332c3.86,6.54,10,10.89,18.09,12.91C98.49,345.71,108.23,346.35,113.38,340.17Z"/></svg>