<svg id="图层_1" data-name="图层 1" xmlns="http://www.w3.org/2000/svg" viewBox="0 0 500 500"><defs><style>.cls-1{fill:#002868;}</style></defs><title>画板 1 副本 199</title><path class="cls-1" d="M294.58,368.87a78,78,0,0,1,15.55,5,68.42,68.42,0,0,1,23.48,17,39.17,39.17,0,0,0,11-25.38,38.49,38.49,0,0,0-7.27-24,85.18,85.18,0,0,0,28.94,5.75,39.62,39.62,0,0,1,5.69-3.08c-.43,1.07-.8,2.13-1.15,3.18,1.54,0,3.06,0,4.54-.05.38.81.78,1.59,1.2,2.37-.94-21.2-2.85-44.92-6.57-66.22a7.5,7.5,0,1,1,14.77-2.58,521.42,521.42,0,0,1,6.39,59.41,6.9,6.9,0,0,0,5.05-.49c1.2-.66,2.66-1.91,1.45-5.25a5,5,0,0,1,9.35-3.39c2.59,7.15.21,14-6,17.37a15.69,15.69,0,0,1-3.36,1.33c9.71.78,21.41-1.81,26.81-5.21,26.31-16.61,11.81-54.55,6.73-65.78a231.86,231.86,0,0,0-20.63-36.31c-.38,3.27-1.33,5.78-3.1,6.88a14.08,14.08,0,0,1-9.49,1.68,21.13,21.13,0,0,1-13.21-7.42c-13.06-15.53-15.13-34.37-13.38-50.54l-3.55-4.27a7.51,7.51,0,0,1-1.56-3.19c0-.15-1.47-6.75-3.62-16.47-18.61,15.09-23.92,31.38-15.51,48.64,6.47,13.27,12.88,35.16-7.43,37.42s-15.83-37.63-15.83-37.63c-32.94,43.19,6.91,93.08,6.91,93.08-12.48-1.86-19.23-8.07-22.9-14.26a105.12,105.12,0,0,1-4.34-14.59,66.84,66.84,0,0,0-14.32,30.27,38.28,38.28,0,0,0-.31,10.95c0,.18,0,.36,0,.55.06.62.09,1.3.09,2v.08c0,.19,0,.38,0,.56v.14c0,.19,0,.38,0,.57,0,0,0,.05,0,.08,0,.22,0,.43-.07.64a.44.44,0,0,0,0,.1c0,.17,0,.34-.09.5a1.16,1.16,0,0,1,0,.18c0,.14-.07.29-.1.42s0,.12-.05.17-.12.37-.19.54h0a4.44,4.44,0,0,1-.24.49,1.09,1.09,0,0,1-.08.15c-.06.11-.13.21-.2.32l-.1.14-.26.3-.09.09a3.09,3.09,0,0,1-.39.33l-.11.06-.35.2-.17.07c-.12,0-.24.09-.37.12l-.17,0-.34,0h0l-.25,0h-.54l-.17,0-.34,0-.19-.05-.29-.07-.18-.07-.26-.11-.18-.09a1.71,1.71,0,0,1-.23-.13l-.17-.11-.22-.16-.15-.13a1.29,1.29,0,0,1-.21-.19l-.14-.14-.2-.22-.12-.15c-.07-.08-.12-.16-.18-.24l-.11-.16-.18-.27-.09-.16-.17-.31-.08-.15c-.05-.11-.1-.23-.16-.34l-.06-.15-.15-.37a1.12,1.12,0,0,1-.05-.13l-.15-.42,0-.1c-.05-.16-.1-.32-.14-.48a.14.14,0,0,1,0-.06c0-.18-.1-.36-.14-.54a20.85,20.85,0,0,1-.53-3.71c0-.58.1-1.16.1-1.74s0-.95-.06-1.42c0,0,0-.07,0-.11h0c-.61-11.36-8.41-23.05-21.5-29a44.7,44.7,0,0,0-8.88-2.94s7.59,25.14-5.52,24.14c-19.85-1.52,2.6-30-3.93-40.91,0,0-3.23,10.39-16.16,17.88s-14,15.74-11.72,20.29c2.45,4.84,11.37,16.56,1.29,21.14-7.63,3.48-11.34-1.18-13.13-6.36a89,89,0,0,1-.71-13.17C202.34,267,170.68,258,170.68,258c9.09,31.14-17.52,31.62-17.52,31.62,6-38.57-18.53-63.42-40.25-77.53-2.7,3.27-5.34,6.51-7.92,9.75,4.89,8.48,8.19,18.68,6.54,29.88-2.77,18.81-14.38,29.59-29.1,42.64-4.48-5-8.2-16.84-5.14-32.18-3,5.31-5.76,10.85-8.41,16.71-5.08,11.23-19.59,49.17,6.73,65.78,5.4,3.4,17.1,6,26.81,5.21a15.69,15.69,0,0,1-3.36-1.33c-6.25-3.41-8.63-10.22-6-17.37a5,5,0,0,1,9.35,3.39c-1.21,3.34.25,4.59,1.45,5.25a6.9,6.9,0,0,0,5.05.49,521.42,521.42,0,0,1,6.39-59.41A7.5,7.5,0,1,1,130,283.47c-7.31,41.76-7.63,92.8-7.33,115.92,3.25.23,6.52.33,9.79.31a37.68,37.68,0,0,0,3.1-10.15c4.95-32.61-10.26-53.59-10.26-53.59s39.64,14,52.47,52.71c1-.67,2-1.37,2.94-2.1a51.24,51.24,0,0,0,17.61-26.38,38.86,38.86,0,0,0,11.89,14.28,76.5,76.5,0,0,0,8.1,5.31,49,49,0,0,0,14.06,5.27c3.45-4.69,9-9.58,17.33-14.3,22.64-12.77,28.3-30.5,28.3-30.5,7.77,12.68-7.87,39.12-7.82,55.6l.32.25c1.6-.07,3.16-.16,4.63-.27l2.55-.23c.82-.08,1.6-.19,2.37-.26l4-.51c1.13-.13,2.08-.32,2.72-.38s1-.11,1-.11-.16.31-.49.87a20,20,0,0,1-1.54,2.33,29.79,29.79,0,0,1-2.89,3.3c-.42.42-.89.83-1.38,1.25a48.69,48.69,0,0,0,14.14,3.12C302.45,394.29,294.58,368.87,294.58,368.87Z"/></svg>