<svg id="图层_1" data-name="图层 1" xmlns="http://www.w3.org/2000/svg" viewBox="0 0 500 500"><defs><style>.cls-1{fill:#002868;}</style></defs><title>画板 1 副本 205</title><path class="cls-1" d="M129.6,192.08,123,200c-18.67,22.28-35.12,41.93-48.32,67L250,270.72Z"/><path class="cls-1" d="M377,200q-3.24-3.85-6.56-7.85L250.07,270.72,425.31,267C412.1,241.88,395.65,222.23,377,200Z"/><path class="cls-1" d="M220.5,84.73c-2.89,0-5.62.2-8.19.27-1.28,0-2.51,0-3.69.11s-2.29.08-3.35.09l-5.54.08c-3.11,0-5-.12-5-.12s1.45-1.12,4.12-2.78a51.69,51.69,0,0,1,4.92-2.79c1.95-1,4.15-2.12,6.64-3.08.94-.39,1.92-.76,2.93-1.15a47.87,47.87,0,0,1-5.15-9.52C204.79,57.74,197,50,188.66,50.64c-6.22.54-12.79,5.77-19,15.12a110.89,110.89,0,0,0-9.56,18.45l90,186.51-29.56-186Z"/><path class="cls-1" d="M330.33,65.76c-6.2-9.35-12.77-14.58-19-15.12-8.32-.7-16.13,7.1-19.57,15.2a47.23,47.23,0,0,1-5.56,10.09l1,.38c2.5.9,4.75,1.84,6.73,2.73s3.68,1.7,5.06,2.44c2.77,1.45,4.31,2.45,4.31,2.45s-1.81.28-4.93.48c-1.56.1-3.45.19-5.58.28s-4.5.1-7.1.14l-6.18,0L250.07,270.72,339.93,84.3A111.19,111.19,0,0,0,330.33,65.76Z"/><path class="cls-1" d="M123,411.82a7.54,7.54,0,0,1-3.8,6.82c-5.7,3.26-13.82,10.43-13.1,15.41,1.21,8.26,11.65,13.15,31.68,14.75L250.07,270.72,125,324.37A840.79,840.79,0,0,0,123,411.82Z"/><path class="cls-1" d="M212.11,394.34l1,.13c.64.08,1.54.26,2.68.41s2.47.35,3.95.55,3.14.34,4.9.46c.89,0,1.77.15,2.72.16.47,0,.93.05,1.41.07l1.45,0c2,.06,4,.1,6.15.1h20.45c2.27,0,4.48,0,6.6,0s4.18,0,6.13-.13,3.83-.18,5.6-.31l2.55-.23c.82-.08,1.6-.19,2.37-.26l4-.51c1.13-.13,2.08-.32,2.72-.38s1-.11,1-.11L250.35,271.16l112,177.63c19.94-1.62,30.33-6.5,31.54-14.75.72-5-7.4-12.14-13.11-15.41a7.54,7.54,0,0,1-3.79-6.81,840.51,840.51,0,0,0-2-87.52l-124.9-53.58.14.23Z"/></svg>