<svg id="图层_1" data-name="图层 1" xmlns="http://www.w3.org/2000/svg" viewBox="0 0 500 500"><defs><style>.cls-1{fill:#f7931e;}</style></defs><title>画板 1 副本 109</title><path class="cls-1" d="M198.19,90.44c23.66,0,29.33,36.81,51.81,36.81s28.15-36.81,51.81-36.81,29.34,36.81,51.82,36.81c.48,0,.95,0,1.41-.07-15.15-61.88-32.64-72.56-41.8-73.37-9.51-.85-17.95,8.27-21.78,17.08-4.92,11.31-11,16.92-18.56,17.16h-.23c-.12,0-11.53-.44-22.63-.33-11.2-.11-22.59.32-22.71.33h-.23c-7.57-.24-13.64-5.85-18.56-17.16-3.83-8.81-12.27-17.92-21.78-17.08-9.16.81-26.65,11.49-41.81,73.37.47,0,.94.07,1.42.07C168.85,127.25,174.52,90.44,198.19,90.44Z"/><path class="cls-1" d="M403.87,237.18l-.7-1.22-1.35-2.26-.49-.81c-.92-1.51-1.85-3-2.77-4.43-.11-.17-.21-.34-.32-.5s-.35-.57-.53-.84h0c-2.06-3.17-4.1-6.17-6.09-8.95-23.67,0-17.43,69.63-39.91,69.63S325.55,250,301.88,250s-29.33,42.81-51.81,42.81l0,0,0,0c-22.48,0-28.15-42.81-51.81-42.81s-27.34,37.81-49.82,37.81-16.24-69.62-39.91-69.63c-2,2.78-4,5.78-6.09,8.95h0c-.18.27-.36.56-.53.84s-.21.33-.32.5q-1.38,2.16-2.77,4.43c-.16.27-.32.54-.49.81L96.9,236l-.7,1.22a217.79,217.79,0,0,0-12.26,24.46c14.59-11.95,33.06,23.66,31.6,36.94h0a4,4,0,0,1,7.62,2.05c-.11,1-.2,1.93-.3,2.9,0,.17,0,.33,0,.49-.09,1-.17,1.9-.25,2.87a1.36,1.36,0,0,0,0,.2h0c-3.19,39.21,1,90.94,2.16,104.37,6,8.54,12.39,15.81,21.65,15.81,22.48,0,28.15-42.82,51.82-42.82,6.36,0,11.43,3.11,15.86,7.63a4,4,0,0,1,3.11,0c6.47,2.58,18.92,5.64,32.71,5.74h.33c13.79-.1,26.24-3.16,32.71-5.74a4,4,0,0,1,3.11,0c4.44-4.52,9.5-7.63,15.86-7.63,23.67,0,29.34,42.82,51.82,42.82,9.26,0,15.66-7.27,21.65-15.81,1.2-13.43,5.35-65.16,2.16-104.37h0a1.36,1.36,0,0,0,0-.2c-.08-1-.16-1.92-.25-2.87,0-.16,0-.32,0-.49-.1-1-.19-1.94-.3-2.9a4,4,0,0,1,7.62-2.05h0c-1.46-13.28,17-48.89,31.6-36.94A217.79,217.79,0,0,0,403.87,237.18Z"/></svg>