<svg id="图层_1" data-name="图层 1" xmlns="http://www.w3.org/2000/svg" viewBox="0 0 500 500"><defs><style>.cls-1{fill:#333;}</style></defs><title>画板 1 副本 163</title><path class="cls-1" d="M106.8,318.44h3.65c1.13-12.63,2.68-25.41,4.81-37.55A7.5,7.5,0,1,1,130,283.47c-2,11.23-3.42,23.13-4.5,35h7.83V292.35H160V275.63H133.36v-8.36l.94-1.49H160V249.06H144.69L168,211.8H136.34L120.9,242.5,108,218.08c-6.09,7.51-11.86,15-17.28,22.75l5,8.23H85.19q-2.09,3.24-4.1,6.58v10.14h24.85l.86,1.49v8.36H81.09v16.72H106.8Z"/><path class="cls-1" d="M230.3,336.72l-11.82,23.5-12.42-23.5H181.91l17.29,28.52H188V378h19l.66,1.14v6.4H188v12.8h19.68v20h19.52c.08-2.76,0-4.92,0-6.92,0-1.26-.06-2.46-.05-3.65a39.58,39.58,0,0,1-5.76-3.22c-.86-.6-1.66-1.22-2.41-1.81s-1.4-1.22-2-1.81a27.07,27.07,0,0,1-2.86-3.33,18.77,18.77,0,0,1-1.52-2.38c-.32-.58-.47-.89-.47-.89l1,.13c.64.08,1.54.26,2.68.41s2.47.35,3.95.55,3.14.34,4.9.46c.89,0,1.77.15,2.72.16.47,0,.93.05,1.41.07l1.45,0c2,.06,4,.1,6.15.1h12V385.58H228v-6.4l.72-1.14h19.67v-12.8H236.69l17.82-28.52Z"/><path class="cls-1" d="M142.72,449.12V447l.61-1H160V435.2h-9.9l15.06-24.12H144.65l-10,19.87-10.5-19.87H123c0,.44,0,.7,0,.74a7.54,7.54,0,0,1-3.8,6.82,41.35,41.35,0,0,0-7.47,5.59l6.64,11H108.9v4.59c2.4,2.61,6.29,4.68,11.7,6.23H125l.55,1v.2A119.81,119.81,0,0,0,142.72,449.12Z"/><polygon class="cls-1" points="159.83 345.78 151.97 361.4 143.72 345.78 127.67 345.78 139.16 364.74 131.72 364.74 131.72 373.25 144.36 373.25 144.8 374.01 144.8 378.26 131.72 378.26 131.72 386.77 144.8 386.77 144.8 400.04 158.31 400.04 158.31 386.77 171.87 386.77 171.87 378.26 158.31 378.26 158.31 374.01 158.79 373.25 171.87 373.25 171.87 364.74 164.08 364.74 175.92 345.78 159.83 345.78"/><polygon class="cls-1" points="266.54 331.92 266.54 339.55 278.26 339.55 278.26 351.46 290.38 351.46 290.38 339.55 302.54 339.55 302.54 331.92 290.38 331.92 290.38 328.11 290.81 327.43 302.54 327.43 302.54 319.8 295.55 319.8 306.18 302.8 291.74 302.8 284.7 316.81 277.3 302.8 262.9 302.8 273.2 319.8 266.54 319.8 266.54 327.43 277.87 327.43 278.26 328.11 278.26 331.92 266.54 331.92"/><polygon class="cls-1" points="199.21 280.05 192.31 293.76 185.06 280.05 170.98 280.05 181.06 296.69 174.54 296.69 174.54 304.16 185.63 304.16 186.02 304.82 186.02 308.56 174.54 308.56 174.54 316.02 186.02 316.02 186.02 327.68 197.88 327.68 197.88 316.02 209.77 316.02 209.77 308.56 197.88 308.56 197.88 304.82 198.29 304.16 209.77 304.16 209.77 296.69 202.94 296.69 213.33 280.05 199.21 280.05"/><polygon class="cls-1" points="350.89 299.87 341.1 319.35 330.8 299.87 310.78 299.87 325.11 323.52 315.84 323.52 315.84 334.13 331.6 334.13 332.15 335.07 332.15 340.37 315.84 340.37 315.84 350.98 332.15 350.98 332.15 367.53 349 367.53 349 350.98 365.9 350.98 365.9 340.37 349 340.37 349 335.07 349.6 334.13 365.9 334.13 365.9 323.52 356.19 323.52 370.96 299.87 350.89 299.87"/><path class="cls-1" d="M323.29,377.53,309.5,405,295,377.53H266.81l10.94,18.07c.81-.09,1.58-.19,2.33-.26l4-.51c1.13-.13,2.08-.32,2.72-.38s1-.11,1-.11-.16.31-.49.87a20,20,0,0,1-1.54,2.33,29.79,29.79,0,0,1-2.89,3.3c-.38.37-.8.74-1.23,1.12l5.37,8.87H273.93v14.94h22.2l.76,1.33v7.47H276.7c5.94,8.13,19.79,11.1,47.88,14.17q10.79.6,19.86.65V434.57H320.63V427.1l.84-1.33h23V410.83H330.75l20.81-33.3Z"/><path class="cls-1" d="M409.92,253.85h7.9A317,317,0,0,0,395.14,222l-1.66,3.3-8-15.21c-2.77-3.34-5.59-6.7-8.46-10.13-3-3.61-6.1-7.27-9.22-11a7.17,7.17,0,0,1-.84-1.27h-32l27.7,45.71H344.65v20.51h30.48l1.05,1.82v10.26H344.65v20.5h25.82c-.16-1-.33-2-.5-3a7.5,7.5,0,1,1,14.77-2.58c2.13,12.14,3.68,24.92,4.81,37.55h19.21v-32h25.43c-1.13-3.1-2.23-5.69-3.07-7.55-2-4.5-4.17-8.79-6.39-12.95h-16V255.67Z"/><path class="cls-1" d="M302.58,63.61l13.73,22.66h-8.88V96.43h15.1l.53.91v5.08H307.43v10.16h15.63v15.87H339.2V112.58h10.21c-1-3.52-2-6.92-3-10.16H339.2V97.34l.57-.91h4.72a163.67,163.67,0,0,0-9-21.79l-3.84,7.64-9.87-18.67Z"/><path class="cls-1" d="M145.65,132.69v3.09h19.81V116.33h19.86V103.86H165.46V97.63l.7-1.11h19.16V84.06H173.9l17.36-27.78h-13.7a50.59,50.59,0,0,0-7.89,9.48c-8.65,13-16.22,33.38-22.52,60.44C146.66,128.34,146.15,130.51,145.65,132.69Z"/><polygon class="cls-1" points="272 122.17 257.14 122.17 257.14 117.51 257.67 116.68 272 116.68 272 107.36 263.46 107.36 276.44 86.59 258.81 86.59 250.2 103.7 241.15 86.59 223.56 86.59 236.15 107.36 228 107.36 228 116.68 241.85 116.68 242.33 117.51 242.33 122.17 228 122.17 228 131.49 242.33 131.49 242.33 146.04 257.14 146.04 257.14 131.49 272 131.49 272 122.17"/></svg>