<svg id="图层_1" data-name="图层 1" xmlns="http://www.w3.org/2000/svg" viewBox="0 0 500 500"><defs><style>.cls-1{fill:#f7931e;}</style></defs><title>画板 1 副本 116</title><path class="cls-1" d="M274.53,127.63,321.75,101l12.64-29.58c-8.4-13.63-16.06-17.13-21.15-17.58-9.51-.85-17.95,8.27-21.78,17.08-4.92,11.31-11,16.92-18.56,17.16h-.23c-.12,0-11.53-.44-22.63-.33-11.2-.11-22.59.32-22.71.33h-.23c-7.57-.24-13.64-5.85-18.56-17.16-3.83-8.81-12.27-17.92-21.78-17.08-9.29.82-27.15,11.79-42.45,76.05-.51,2.11-1,4.27-1.52,6.45l70.5-24.58Z"/><path class="cls-1" d="M426,291.75c-13.07-54.93-49.93-93.29-55.55-98.89a3.21,3.21,0,0,1-.75-.68l-.29-.37c-.07-.09-.12-.19-.18-.28L250,284.09l-119.25-92.6a3.53,3.53,0,0,1-.21.32l-.29.36a3.05,3.05,0,0,1-.75.69c-5.62,5.61-42.48,44-55.53,98.8a78.34,78.34,0,0,0-2.1,17L114,315.18c.29-5.31.68-10.48,1.21-15.39a4,4,0,0,1,8,.85C118.28,346.13,125,414.08,125,414.76a4,4,0,0,1-1.81,3.76A32.27,32.27,0,0,0,119.1,422l30.42,23.63C158.63,445.64,250,339,250,339s91.38,106.67,100.51,106.6L381,422a32.41,32.41,0,0,0-4.16-3.45,4,4,0,0,1-1.81-3.76c.06-.68,6.74-68.64,1.85-114.12a4,4,0,0,1,8-.85c.53,4.91.92,10.09,1.21,15.4l42.09-6.53A77.36,77.36,0,0,0,426,291.75ZM269.74,336.53a9,9,0,1,1,9-9A9,9,0,0,1,269.74,336.53Zm0-31.73a9,9,0,1,1,9-9A9,9,0,0,1,269.74,304.8Zm96.76-25H325.31v-9H366.5Z"/></svg>