<svg id="图层_1" data-name="图层 1" xmlns="http://www.w3.org/2000/svg" viewBox="0 0 500 500"><defs><style>.cls-1{fill:#6c6;}</style></defs><title>1画板 1 副本 236</title><polygon class="cls-1" points="312.2 292.08 300.67 268.71 289.14 292.08 263.36 295.83 282.01 314.01 277.61 339.69 300.67 327.57 323.73 339.69 319.33 314.01 337.98 295.83 312.2 292.08"/><polygon class="cls-1" points="158.25 431.84 177.75 442.09 174.02 420.38 189.79 405.02 168 401.85 158.25 382.1 148.51 401.85 126.72 405.02 142.49 420.38 138.76 442.09 158.25 431.84"/><path class="cls-1" d="M439.32,320.38l-6.39-37.25c-.67-1.66-1.29-3.1-1.81-4.25-11.4-25.23-25.8-44.6-42.33-64.74L377,238.08l-47,6.84,34,33.18-8,46.85,18.24-9.58c-1.05-10.83-2.42-21.65-4.21-31.9a7.5,7.5,0,1,1,14.77-2.58c1.53,8.75,2.76,17.83,3.75,26.95l9.53-5,40.64,21.36C438.94,322.94,439.15,321.67,439.32,320.38Z"/><path class="cls-1" d="M327.76,62.16l-9.45,19.16-15.53,2.26.56.35s-1.81.28-4.93.48l-2.24.13-3.87.56,18.82,18.34-4.44,25.9,23.26-12.23,23.26,12.23-1-5.94C346,97.74,338.67,78.35,330.33,65.76,329.48,64.48,328.62,63.29,327.76,62.16Z"/><path class="cls-1" d="M154.76,98.63Q150.7,111,147.15,126.2c-.8,3.47-1.62,7-2.43,10.55l17.73,9.32L158,120.18l18.81-18.35Z"/><path class="cls-1" d="M211.47,76.1l-3.59-7.29-5.76,11.66c.54-.29,1.1-.59,1.69-.88,1.95-1,4.15-2.12,6.64-3.08Z"/><path class="cls-1" d="M186.07,84.65,197,95.28l-2.57,15,13.48-7.08,13.47,7.08-2.57-15,10.9-10.63-1.15-.17c-1.21,0-2.43.08-3.61.1-1.51,0-3,.13-4.42.15-2.89,0-5.62.2-8.19.27-1.28,0-2.51,0-3.69.11s-2.29.08-3.35.09l-5.54.08c-3.11,0-5-.12-5-.12s1.15-.88,3.28-2.25Z"/><polygon class="cls-1" points="350.71 407.2 364.19 414.28 361.61 399.28 372.52 388.65 357.45 386.46 350.71 372.81 343.98 386.46 328.91 388.65 339.81 399.28 337.24 414.28 350.71 407.2"/><path class="cls-1" d="M256.27,331.85A108.06,108.06,0,0,1,137.13,224.38a109,109,0,0,1,1.1-15.43A86.36,86.36,0,0,0,110.32,320c1.14-13.15,2.72-26.49,4.94-39.14A7.5,7.5,0,1,1,130,283.47a499,499,0,0,0-6,55.85,86.34,86.34,0,0,0,132.28-7.47Z"/></svg>