<svg id="图层_1" data-name="图层 1" xmlns="http://www.w3.org/2000/svg" viewBox="0 0 500 500"><defs><style>.cls-1{fill:#006aba;}</style></defs><title>画板 1 副本 145</title><path class="cls-1" d="M225,404.47,222,402a72.23,72.23,0,0,1-7.76-2.55,4,4,0,0,1-2.23-5.2c0-.1.1-.19.15-.29l-90.34-73.85c-.53,12.62-.47,25.9-.13,38.39l91.77,77.16c7.92-3.71,11.75-8.89,12.09-17.54a90.37,90.37,0,0,0-.36-10.92C225.06,406.26,225,405.36,225,404.47Z"/><path class="cls-1" d="M401.15,232.71,250,356.28,98.85,232.71A220.87,220.87,0,0,0,85,259.07L250,397.78,415,259.07A220.87,220.87,0,0,0,401.15,232.71Z"/><path class="cls-1" d="M125,414.76a4,4,0,0,1-1.81,3.76c-.1.07-10.71,7.21-9.19,14.63,2.16,10.5,22.44,14.48,57.43,11.44C160.44,427.89,140.33,417.12,125,414.76Z"/><path class="cls-1" d="M378.23,320.12,287.89,394c.05.1.11.19.15.29a4,4,0,0,1-2.23,5.2,71.49,71.49,0,0,1-7.76,2.55l-3,2.46c-.05.89-.11,1.79-.19,2.74a92.52,92.52,0,0,0-.36,10.92c.34,8.65,4.17,13.83,12.1,17.54l91.76-77.16C378.71,346,378.76,332.74,378.23,320.12Z"/><path class="cls-1" d="M376.79,418.52a4,4,0,0,1-1.81-3.76c-15.31,2.36-35.41,13.13-46.43,29.83,35,3,55.27-.94,57.43-11.44C387.5,425.73,376.89,418.59,376.79,418.52Z"/><path class="cls-1" d="M220.7,86.37c-4.7-2.44-8.71-7.56-12.16-15.48-3.83-8.81-12.27-17.92-21.78-17.08-8.21.73-23.12,9.39-37,55.76l71-23.19Z"/><path class="cls-1" d="M350.34,109.57h0c-13.91-46.37-28.82-55-37-55.76-9.51-.84-17.95,8.27-21.78,17.08-3.45,7.92-7.46,13-12.16,15.48h0Z"/></svg>