<svg id="图层_1" data-name="图层 1" xmlns="http://www.w3.org/2000/svg" viewBox="0 0 500 500"><defs><style>.cls-1{fill:#006aba;}</style></defs><title>画板 1 副本 147</title><path class="cls-1" d="M313.24,53.81c-9.51-.85-17.95,8.27-21.78,17.08-4.92,11.31-11,16.92-18.56,17.16h-.23c-.12,0-11.53-.44-22.63-.33-8.44-.08-17,.14-20.74.26l-98,101.59a3.27,3.27,0,0,1-.71,2.24l-.29.36a3.05,3.05,0,0,1-.75.69c-5.62,5.61-42.48,44-55.53,98.8C73.92,292,68,315,76.52,331L331.34,66.83C324.15,57,317.71,54.21,313.24,53.81Z"/><path class="cls-1" d="M113.38,340.18c0-.54,0-1.07,0-1.6l-5.09,5.27A13.21,13.21,0,0,0,113.38,340.18Z"/><path class="cls-1" d="M355.69,129.86a315.12,315.12,0,0,0-9.44-32.63l-224.78,233c-.36,19.24.4,39.11,1.32,54.75L358.26,140.89C357.41,137.14,356.54,133.43,355.69,129.86Z"/><path class="cls-1" d="M212,394.26a4,4,0,0,1,4.87-2.32L388.49,214a203.41,203.41,0,0,0-17.57-20.7L129.34,443.72c8.69,1.9,20.89,2.35,36.27,1.32l46.3-48A4,4,0,0,1,212,394.26Z"/><path class="cls-1" d="M145.8,123.79l58.3-60.43c-4.41-5.75-10.61-10.15-17.34-9.55C177.77,54.61,160.76,64.91,145.8,123.79Z"/><path class="cls-1" d="M304,440.9c4.28.9,9,1.76,14.34,2.65,3.48.4,6.82.74,10.05,1l48.21-50c.58-8.51,1.19-19.11,1.59-30.6Z"/><path class="cls-1" d="M398.93,229.15,237.11,396.87a104.93,104.93,0,0,0,12.76.91h.29c13.76-.1,26.21-3.16,32.68-5.74a4,4,0,1,1,3,7.42,77,77,0,0,1-10.7,3.3c0,1.48-.12,2.9-.25,4.45a90.85,90.85,0,0,0-.36,11c.31,7.79,3.47,12.76,9.93,16.38L378.61,337c-.07-12.57-.57-25.12-1.78-36.31a4,4,0,0,1,8-.85c1,9,1.49,18.92,1.7,29l38.73-40.14C419.21,265.24,409,245,398.93,229.15Z"/><path class="cls-1" d="M225.5,418.13a86.6,86.6,0,0,0-.21-9l-31,32.12C215.4,437,225,432,225.5,418.13Z"/></svg>