<svg id="图层_1" data-name="图层 1" xmlns="http://www.w3.org/2000/svg" viewBox="0 0 500 500"><defs><style>.cls-1{fill:#5500a0;}</style></defs><title>画板 1 副本 152</title><polygon class="cls-1" points="319.33 314.01 337.98 295.83 312.2 292.08 300.67 268.71 289.14 292.08 263.36 295.83 282.01 314.01 277.61 339.69 300.67 327.57 323.73 339.69 319.33 314.01"/><polygon class="cls-1" points="168 401.85 158.25 382.1 148.51 401.85 126.72 405.02 142.49 420.38 138.76 442.09 158.25 431.84 177.75 442.09 174.02 420.38 189.79 405.02 168 401.85"/><path class="cls-1" d="M426,291.75c-7.83-32.93-24.22-59.9-37.3-77.43L377,238.08l-47,6.84,34,33.18-8,46.85,21.94-11.53c-.26-4.4-.61-8.68-1.05-12.78a4,4,0,0,1,8-.85c.33,3.09.61,6.29.84,9.56L398,302.83l29.46,15.49C429.46,305.05,426.06,291.93,426,291.75Z"/><path class="cls-1" d="M318.31,81.32l-26,3.78,18.82,18.34-4.44,25.9,23.26-12.23,23.26,12.23-4-23.26c-7.33-23.33-14.87-36.48-21.52-43.76Z"/><path class="cls-1" d="M153.33,98.42a320.39,320.39,0,0,0-9,31.44c-.47,1.94-.93,3.93-1.4,5.94l19.54,10.27L158,120.18l18.81-18.35Z"/><path class="cls-1" d="M201.14,82.46l-15.07,2.19L197,95.28l-2.57,15,13.48-7.08,13.47,7.08-2.57-15,7.48-7.3a16.09,16.09,0,0,1-10.42-5.34l-1.23-.18-1.76-3.57a49,49,0,0,1-4.31-8c-.25-.59-.53-1.17-.82-1.76Z"/><polygon class="cls-1" points="350.71 407.2 364.19 414.28 361.61 399.28 372.52 388.65 357.45 386.46 350.71 372.81 343.98 386.46 328.91 388.65 339.81 399.28 337.24 414.28 350.71 407.2"/><path class="cls-1" d="M245.17,332.42A108.09,108.09,0,0,1,138.23,209a86.38,86.38,0,0,0-24.65,116.83c.25-9,.76-17.86,1.63-26a4,4,0,0,1,8,.85c-1.19,11-1.69,23.39-1.78,35.78a86.34,86.34,0,0,0,134.88-4.57A107.13,107.13,0,0,1,245.17,332.42Z"/></svg>