<svg id="图层_1" data-name="图层 1" xmlns="http://www.w3.org/2000/svg" viewBox="0 0 500 500"><defs><style>.cls-1{fill:#ffaebe;}</style></defs><title>画板 1 副本 144</title><path class="cls-1" d="M175.42,448.74c37.75-4.12,49.8-8.07,51.46-24.61a106,106,0,0,0,.31-12.7c0-1.26-.06-2.46-.05-3.65a39.58,39.58,0,0,1-5.76-3.22c-.86-.6-1.66-1.22-2.41-1.81s-1.4-1.22-2-1.81a27.07,27.07,0,0,1-2.86-3.33,18.77,18.77,0,0,1-1.52-2.38c-.32-.58-.47-.89-.47-.89l1,.13c.64.08,1.54.26,2.68.41s2.47.35,3.95.55,3.14.34,4.9.46c.89,0,1.77.15,2.72.16.47,0,.93.05,1.41.07l1.45,0c2,.06,4,.1,6.15.1h20.45c2.27,0,4.48,0,6.6,0s4.18,0,6.13-.13,3.83-.18,5.6-.31l2.55-.23c.82-.08,1.6-.19,2.37-.26l4-.51c1.13-.13,2.08-.32,2.72-.38s1-.11,1-.11-.16.31-.49.87a20,20,0,0,1-1.54,2.33,29.79,29.79,0,0,1-2.89,3.3c-.6.6-1.29,1.16-2,1.8s-1.54,1.19-2.4,1.81a40.22,40.22,0,0,1-5.58,3.18c0,1.24,0,2.49-.05,3.8a106,106,0,0,0,.31,12.7c1.66,16.54,13.71,20.49,51.46,24.61,44.84,2.54,67.52-2.27,69.34-14.7.72-5-7.4-12.14-13.11-15.41a7.54,7.54,0,0,1-3.79-6.81c0-.18.19-4.93.28-12.81-14.1-1.07-34.46.44-61.8-.51,24.48-2.1,49.9-13.62,61.85-15.65-.14-25-1.38-61.94-6.55-94.36-44.71,14.86-89.22,23.59-122.4,14.1-58.93-16.85-103.76-44.44-170.73-41.07-3.1,5.51-6,11.26-8.79,17.36-5.08,11.23-19.59,49.17,6.73,65.78,5.4,3.4,17.1,6,26.81,5.21a15.69,15.69,0,0,1-3.36-1.33c-6.25-3.41-8.63-10.22-6-17.37a5,5,0,0,1,9.35,3.39c-1.21,3.34.25,4.59,1.45,5.25a6.9,6.9,0,0,0,5.05.49,521.42,521.42,0,0,1,6.39-59.41A7.5,7.5,0,1,1,130,283.47c-3.58,20.46-5.48,43.15-6.46,63.69,38.56-.71,56.68,24.95,98.63,26.14-42.66,9.53-75.26-.55-99.48,2.05-.3,21.3.24,36.15.26,36.47a7.54,7.54,0,0,1-3.8,6.82c-5.7,3.26-13.82,10.43-13.1,15.41C107.9,446.47,130.57,451.27,175.42,448.74Z"/><path class="cls-1" d="M391.13,340.3a6.9,6.9,0,0,0,5.05-.49c1.2-.66,2.66-1.91,1.45-5.25a5,5,0,0,1,9.35-3.39c2.59,7.15.21,14-6,17.37a15.69,15.69,0,0,1-3.36,1.33c9.71.78,21.41-1.81,26.81-5.21,26.31-16.61,11.81-54.55,6.73-65.78-1.74-3.85-3.55-7.56-5.42-11.16-13.2,5.49-26.82,10.87-40.53,15.8A530,530,0,0,1,391.13,340.3Z"/><path class="cls-1" d="M188.67,254.63c-17.75-24.26-46.86-39.88-73.45-45.35-10.44,12.57-20.09,24.64-28.75,37.79C121.59,237.45,167.69,246.48,188.67,254.63Z"/><path class="cls-1" d="M252.92,135c-44.51-2.84-46.44-43-95.16-44.85a270.72,270.72,0,0,0-8.82,28.76C184.22,118.14,215.93,141.77,252.92,135Z"/><path class="cls-1" d="M196.84,83.7c.58-.38,1.25-.82,2-1.32s1.79-1.1,2.85-1.7c-7.43-8.81-18.44-15.27-28.91-19.27-1.06,1.34-2.12,2.78-3.16,4.35a102.46,102.46,0,0,0-7.34,13.39A72.49,72.49,0,0,1,196.84,83.7Z"/><path class="cls-1" d="M200.73,85.26q3,1.29,6,2.7c-.5-.94-1-1.86-1.63-2.76Z"/><path class="cls-1" d="M419.77,257.07c-8.61-14.57-18.4-27.5-29.12-40.64-39,47.24-148.69,63.86-186,54.53,75.45,35.72,121.88,24.18,167.46,5.84a7.3,7.3,0,0,1,5.17-2.11c12.68-5.23,25.37-10.87,38.69-16.05C417.29,258.13,418.55,257.61,419.77,257.07Z"/><path class="cls-1" d="M246,107.63c37.63,11.49,74.32.85,101.54-1.63a183.87,183.87,0,0,0-12.27-31.75C308.71,86.5,283.78,109.09,246,107.63Z"/></svg>