<svg id="图层_1" data-name="图层 1" xmlns="http://www.w3.org/2000/svg" viewBox="0 0 500 500"><defs><style>.cls-1{fill:#d9e021;}</style></defs><title>画板 1 副本 163</title><path class="cls-1" d="M270.61,296c10.72-1.89,6.42,15.36,2.55,43.1-4.67,33.51,28,37,27.5,2C300.06,298,286,289.64,292,263.56S245.59,298.91,270.61,296Z"/><path class="cls-1" d="M426,291.75c-13.07-54.93-49.93-93.29-55.55-98.89a3.05,3.05,0,0,1-.75-.69l-.29-.36a3.33,3.33,0,0,1-.69-2.59c-1.44-7-7.5-36.1-13-59.36-15.3-64.26-33.16-75.23-42.45-76.05-9.51-.85-17.95,8.27-21.78,17.08-4.92,11.31-11,16.92-18.56,17.16h-.23c-.12,0-11.53-.44-22.63-.33-11.2-.11-22.59.32-22.71.33h-.23c-7.57-.24-13.64-5.85-18.56-17.16-3.83-8.81-12.27-17.92-21.78-17.08-4.44.39-10.84,3.12-18,12.86h0l-.22.29c-.14.21-.29.41-.44.62l-.37.53c-.15.22-.3.43-.44.65s-.5.74-.75,1.13l-.42.65-.41.65-.42.7-.41.67-.43.73-.41.73-.42.73-.46.84-.38.69L162,77.8a.54.54,0,0,1-.05.11h0c-5.85,11.38-11.93,28-17.64,52-5.54,23.26-11.6,52.41-13,59.36a3.33,3.33,0,0,1-.69,2.59l-.29.36a3.05,3.05,0,0,1-.75.69c-5.62,5.61-42.48,44-55.53,98.8C73.92,292,67.68,316,77.09,332c3.86,6.54,10,10.89,18.09,12.91.31.07.7.15,1.11.22-15-21.06-14.15-51-11.29-64.15,3.33-15.33,11.93-3.41,18.33-9,5.92-5.16,7.67-15.66,8.42-28.16s25.67-37.65,19.75-19.25c-3.81,11.86-12.17,46,8.75,44.75,16.26-1,3.87-64.54,3.87-82s2.63-15.21,9.88-30.46,7.5-49.75,7.95-59,12.22-16.5,8.88,16.66c-3.16,31.48,24.34,18.34,22.39-15.16-1.71-29.48,12.95-19.5,17.45-10s.11,16.2-.17,24.83c-.67,20.67,20.49,20.22,20.12.67-.37-20.38,16.88-20.38,21.88-10.38s-10,27.13-2.5,40.26,25.67,9.78,22.17-11.72S286.58,80.3,294,97.3s12.88,24,22.42,15.5,3.32-38,14.18-25,29.44,82.38,19.61,115c-15.27,50.67-3.89,68,13.42,63,12-3.5,11.19-21.69,4.83-35.11-9.17-19.35,19.5-1,26.5,19.35s8,47.8,15,52.8c5,3.56,7.94,20.24,5.18,37.52a26.28,26.28,0,0,0,7.73-8.34C432.32,316,426.08,292,426,291.75Z"/><path class="cls-1" d="M376.79,418.52a4,4,0,0,1-1.81-3.76c.06-.68,6.74-68.64,1.85-114.12a4,4,0,0,1,3.55-4.4C361.33,293,361.67,387.3,347,362.3c-10-17-19.67-35.34-33.67.66s-80.33,28-89-2c-6.12-21.21-18.91-42.55-34.33-47s-17,27.67-33.85,31.15-21.82-28.81-33-44.47C118.28,346.13,125,414.08,125,414.76a4,4,0,0,1-1.81,3.76c-.1.07-10.71,7.21-9.19,14.63,2.37,11.48,26.39,15.18,67.64,10.4,30-5.06,43.19-9,43.84-25.42a90.37,90.37,0,0,0-.36-10.92c-.13-1.55-.24-3-.25-4.45a77,77,0,0,1-10.7-3.3,4,4,0,1,1,3-7.42c6.47,2.58,18.92,5.64,32.71,5.74h.29c13.76-.1,26.21-3.16,32.68-5.74a4,4,0,1,1,3,7.42,77,77,0,0,1-10.7,3.3c0,1.48-.12,2.9-.25,4.45a90.85,90.85,0,0,0-.36,11c.65,16.36,13.86,20.3,43.84,25.36,41.26,4.77,65.27,1.08,67.64-10.4C387.51,425.67,376.9,418.59,376.79,418.52Z"/></svg>