<svg id="图层_1" data-name="图层 1" xmlns="http://www.w3.org/2000/svg" viewBox="0 0 500 500"><defs><style>.cls-1{fill:#1c3f00;}</style></defs><title>画板 1 副本 170</title><path class="cls-1" d="M422.91,332c9.41-15.94,3.17-40,3.1-40.23-5.78-24.28-16.21-45.32-26.53-61.73H340.12l-37.54,65,37.54,65h38.2c.57-19.59.46-41.3-1.49-59.43a4,4,0,0,1,8-.85c1,9.6,1.56,20.18,1.74,30.91a5.2,5.2,0,0,0,2.21,1.82,5,5,0,0,0,5.34-.86c1.56-1.48,1.81-3.94.7-6.93a3,3,0,0,1,5.63-2.09c2,5.31,1.17,10.18-2.2,13.37a10.83,10.83,0,0,1-7.47,2.92,11,11,0,0,1-4.13-.81c0,.69,0,1.37,0,2.05,5.15,6.18,14.89,5.54,18.2,4.72C413,342.87,419.05,338.52,422.91,332Z"/><path class="cls-1" d="M110,216c-12.85,17.54-28.45,43.81-36,75.64A78.34,78.34,0,0,0,72,312.05H94.39l35.54-61.57Z"/><path class="cls-1" d="M132.36,184H145l22.57-39.09-18.68-32.37c-1.54,5.3-3.06,11.07-4.55,17.35C139.7,149.22,134.73,172.64,132.36,184Z"/><polygon class="cls-1" points="298.22 339.95 274.11 298.19 225.89 298.19 201.78 339.95 225.89 381.71 274.11 381.71 298.22 339.95"/><path class="cls-1" d="M376.79,418.52a4,4,0,0,1-1.81-3.76c0-.31,1.4-14.25,2.45-33.64H338.31l-22.57,39.1,14.14,24.48c34.18,2.83,54-1.19,56.1-11.55C387.51,425.67,376.9,418.59,376.79,418.52Z"/><path class="cls-1" d="M220.14,130.21h32.32l16.16-28-8.35-14.47c-3.2,0-6.73-.06-10.23,0-11.2-.11-22.59.32-22.71.33h-.23c-4.34-.14-8.18-2-11.6-5.78l-11.52,20Z"/><polygon class="cls-1" points="199.37 265.78 185.27 241.36 157.07 241.36 142.97 265.78 157.07 290.2 185.27 290.2 199.37 265.78"/><path class="cls-1" d="M156.86,89.05l2.54,4.4h23.53L194.7,73.07,183.89,54.36C177,56.36,167,64.17,156.86,89.05Z"/><path class="cls-1" d="M325.56,135.34l23,39.91h17.2c-2.63-12.39-6.48-30.15-10.11-45.39a320.88,320.88,0,0,0-8.94-31.21Z"/><path class="cls-1" d="M211.46,419.41l-22.1-38.29H145.15l-20.26,35.1a4,4,0,0,1-1,1.74l-.84,1.45L137.83,445c11.08,1.09,25.81.62,43.83-1.47,6.8-1.15,12.72-2.24,17.84-3.43Z"/><path class="cls-1" d="M288.6,76.59l8.16,14.13h29.59L336,74.06c-9-15.85-17.32-19.77-22.73-20.25-9.51-.85-17.95,8.27-21.78,17.08A53.07,53.07,0,0,1,288.6,76.59Z"/><path class="cls-1" d="M160,364.24l14.79-25.62L160,313H130.38l-8.87,15.36c-.16,6.77-.16,13.64-.07,20.39l8.94,15.49Z"/></svg>