<svg id="图层_1" data-name="图层 1" xmlns="http://www.w3.org/2000/svg" viewBox="0 0 500 500"><defs><style>.cls-1{fill:#ffb031;}</style></defs><title>1画板 1 副本 204</title><path class="cls-1" d="M439.56,317.89c1.13-15.69-5.37-32.22-8.44-39-8.4-18.59-18.43-34-29.73-48.86H340.12l-37.54,65,37.54,65h36.81c-.74-23.6-2.61-51.75-7-76.6a7.5,7.5,0,1,1,14.77-2.58,521.42,521.42,0,0,1,6.39,59.41,6.9,6.9,0,0,0,5.05-.49c1.2-.66,2.66-1.91,1.45-5.25a5,5,0,0,1,9.35-3.39c2.59,7.15.21,14-6,17.37a15.69,15.69,0,0,1-3.36,1.33c9.47.76,20.82-1.68,26.39-5Z"/><path class="cls-1" d="M109.89,215.76c-16,19.56-29.92,38.56-41,63.12-2.69,5.95-8,19.38-8.53,33.17h34l35.54-61.57Z"/><path class="cls-1" d="M145,184l22.57-39.09-17.49-30.3c-1,3.73-2,7.59-2.9,11.62-5.51,23.72-11.44,50.76-13,57.77Z"/><polygon class="cls-1" points="298.22 339.95 274.11 298.19 225.89 298.19 201.78 339.95 225.89 381.71 274.11 381.71 298.22 339.95"/><path class="cls-1" d="M380.81,418.63a7.54,7.54,0,0,1-3.79-6.81c0-.29.46-12.53.32-30.7h-39l-22.57,39.1,16.68,28.9c39.65,1.55,59.79-3.4,61.5-15.08C394.64,429.07,386.52,421.9,380.81,418.63Z"/><path class="cls-1" d="M204,102.22l16.16,28h32.32l16.16-28L258.34,84.4l-2.09-.05-2.46,0c-1.64,0-3.29-.08-4.94-.06s-3.28,0-4.92,0l-4.89,0c-1.62,0-3.22,0-4.82.07s-3.17,0-4.71.09-3.08.1-4.59.12-3,.13-4.42.15c-2.28,0-4.46.14-6.54.21Z"/><polygon class="cls-1" points="199.37 265.78 185.27 241.36 157.07 241.36 142.97 265.78 157.07 290.2 185.27 290.2 199.37 265.78"/><path class="cls-1" d="M159.4,93.45h23.53L194.7,73.07,182.93,52.69h-.5c-4.28,2.39-8.6,6.8-12.76,13.07a123.47,123.47,0,0,0-12,24.65Z"/><path class="cls-1" d="M325.56,135.34l23,39.91h15.31c-2.58-11.68-6.93-31.29-11.06-49q-3.3-14.2-7.07-25.88Z"/><path class="cls-1" d="M211.46,419.41l-22.1-38.29H145.15l-22.1,38.29L140.12,449a298.3,298.3,0,0,0,35.3-.23c8-.87,14.84-1.74,20.68-2.72Z"/><path class="cls-1" d="M287.32,74.36l1.45,2.52c1.89.72,3.64,1.46,5.2,2.16,2,.87,3.68,1.7,5.06,2.44,2.77,1.45,4.31,2.45,4.31,2.45s-1.81.28-4.93.48c-1.45.09-3.19.18-5.14.26l3.49,6h29.59l9.2-15.93a94.59,94.59,0,0,0-5.22-9c-6.2-9.35-12.77-14.58-19-15.12-8.32-.7-16.13,7.1-19.57,15.2A50.23,50.23,0,0,1,287.32,74.36Z"/><path class="cls-1" d="M160,364.24l14.79-25.62L160,313H130.38l-5.16,8.92c-.87,10.31-1.47,20.51-1.86,30.15l7,12.17Z"/></svg>