<svg id="图层_1" data-name="图层 1" xmlns="http://www.w3.org/2000/svg" viewBox="0 0 500 500"><defs><style>.cls-1{fill:#bc0056;}</style></defs><title>画板 1 副本 78</title><path class="cls-1" d="M426,291.75c-13.07-54.93-49.93-93.29-55.55-98.89a3.05,3.05,0,0,1-.75-.69l-.29-.36a3,3,0,0,1-.37-.58,2.89,2.89,0,0,1,0-.29,3.26,3.26,0,0,1-.22-1.51c0-.29-.08-.58-.13-.87-1.65-8-7.52-36.11-12.9-58.7-15.3-64.26-33.16-75.23-42.45-76.05-9.51-.84-17.95,8.27-21.78,17.08a53.26,53.26,0,0,1-3,5.91C325.65,131,398.87,286.91,250,318.63,101.2,286.91,174.42,131,211.53,76.8a53.26,53.26,0,0,1-3-5.91c-3.83-8.81-12.27-17.92-21.78-17.08-9.29.82-27.15,11.79-42.45,76.05-5.38,22.59-11.25,50.72-12.9,58.7l-.13.87a3.26,3.26,0,0,1-.22,1.51,2.89,2.89,0,0,1,0,.29,3,3,0,0,1-.37.58l-.29.36a3.05,3.05,0,0,1-.75.69c-5.62,5.6-42.48,44-55.55,98.89C74,292,67.75,316,77.16,332a26.31,26.31,0,0,0,8.52,8.84C76.57,297.62,104.38,254.57,128,222c-2.87,53,7.73,101.91,47,123.1-35,22.33-47.35,51.94-49.9,69.66a4,4,0,0,1-1.81,3.76c-.11.07-10.72,7.15-9.19,14.63,2.17,10.5,22.47,14.48,57.5,11.43C171.4,391,200.35,384.15,250,370.73c49.68,13.42,78.63,20.24,78.44,73.85,35,3.05,55.33-.93,57.5-11.43,1.53-7.48-9.08-14.56-9.19-14.63a4,4,0,0,1-1.81-3.76c-2.55-17.72-14.9-47.33-49.9-69.66C364.35,323.91,375,275,372.08,222c23.61,32.57,51.42,75.62,42.31,118.82a26.31,26.31,0,0,0,8.52-8.84C432.32,316,426.08,292,426,291.75Z"/></svg>