<svg id="图层_1" data-name="图层 1" xmlns="http://www.w3.org/2000/svg" viewBox="0 0 500 500"><defs><style>.cls-1{fill:#1c8913;}</style></defs><title>1画板 1 副本 198</title><path class="cls-1" d="M160.67,449.32c-.11-177.5-14.43-218.55-35-252.54L123,200c-21.52,25.67-40.1,47.85-54.14,78.93C64,289.59,50.63,324.57,72.2,342.2,70.68,267.41,115.59,226.11,116,240v0c.71,13.46.71,27,.29,38.26A7.5,7.5,0,0,1,130,283.47c-9.73,55.59-7.08,127.63-7,128.35a7.54,7.54,0,0,1-3.8,6.82c-5.7,3.26-13.82,10.43-13.1,15.41C107.68,445,125.59,450.05,160.67,449.32Z"/><path class="cls-1" d="M335.13,74a90.68,90.68,0,0,0-4.8-8.2c-6.2-9.35-12.77-14.58-19-15.12-8.32-.7-16.13,7.1-19.57,15.2a47.23,47.23,0,0,1-5.56,10.09l1,.38c2.5.9,4.75,1.84,6.73,2.73s3.68,1.7,5.06,2.44c2.77,1.45,4.31,2.45,4.31,2.45s-1.81.28-4.93.48c-1.56.1-3.45.19-5.58.28s-4.5.1-7.1.14l-8.29,0c-2.92-.07-6-.06-9.12-.18s-6.36-.16-9.62-.19l-2.45-.06-2.46,0c-1.64,0-3.29-.08-4.94-.06s-3.28,0-4.92,0l-4.89,0c-1.62,0-3.22,0-4.82.07s-3.17,0-4.71.09-3.08.1-4.59.12-3,.13-4.42.15c-2.89,0-5.62.2-8.19.27-1.28,0-2.51,0-3.69.11s-2.29.08-3.35.09l-5.54.08c-3.11,0-5-.12-5-.12s1.45-1.12,4.12-2.78a51.69,51.69,0,0,1,4.92-2.79c1.95-1,4.15-2.12,6.64-3.08.94-.39,1.92-.76,2.93-1.15a47.87,47.87,0,0,1-5.15-9.52C204.79,57.74,197,50,188.66,50.64c-6.22.54-12.79,5.77-19,15.12-8.46,12.77-15.9,32.54-22.11,58.75,20.36-13.35,51.67-16.71,102-16.71C279.68,107.8,319.78,96.85,335.13,74Z"/><path class="cls-1" d="M377,200l-2.65-3.17c-20.57,34-34.89,75-35,252.54,35.08.73,53-4.29,54.59-15.28.72-5-7.4-12.14-13.11-15.41a7.54,7.54,0,0,1-3.79-6.81c0-.72,2.67-72.8-7-128.35a7.5,7.5,0,0,1,13.74-5.27c-.42-11.26-.42-24.79.29-38.26v0c.4-13.85,45.31,27.45,43.79,102.24,21.57-17.63,8.16-52.61,3.32-63.32C417.08,247.8,398.5,225.62,377,200Z"/><path class="cls-1" d="M302.61,445.8C302,415,282,347.26,260.64,328.59a14.12,14.12,0,0,0-21.28,0C218,347.26,198,415,197.39,445.8c20.72-3.64,28.21-8.9,29.49-21.67a106,106,0,0,0,.31-12.7c0-1.26-.06-2.46-.05-3.65a39.58,39.58,0,0,1-5.76-3.22c-.86-.6-1.66-1.22-2.41-1.81s-1.4-1.22-2-1.81a27.07,27.07,0,0,1-2.86-3.33,18.77,18.77,0,0,1-1.52-2.38c-.32-.58-.47-.89-.47-.89l1,.13c.64.08,1.54.26,2.68.41s2.47.35,3.95.55,3.14.34,4.9.46c.89,0,1.77.15,2.72.16.47,0,.93.05,1.41.07l1.45,0c2,.06,4,.1,6.15.1h20.45c2.27,0,4.48,0,6.6,0s4.18,0,6.13-.13,3.83-.18,5.6-.31l2.55-.23c.82-.08,1.6-.19,2.37-.26l4-.51c1.13-.13,2.08-.32,2.72-.38s1-.11,1-.11-.16.31-.49.87a20,20,0,0,1-1.54,2.33,29.79,29.79,0,0,1-2.89,3.3c-.6.6-1.29,1.16-2,1.8s-1.54,1.19-2.4,1.81a40.22,40.22,0,0,1-5.58,3.18c0,1.24,0,2.49-.05,3.8a106,106,0,0,0,.31,12.7C274.4,436.9,281.89,442.16,302.61,445.8Z"/></svg>