<svg id="图层_1" data-name="图层 1" xmlns="http://www.w3.org/2000/svg" viewBox="0 0 500 500"><defs><style>.cls-1{fill:#333;}</style></defs><title>1画板 1 副本 177</title><path class="cls-1" d="M271.59,296.68c11.48-1.92,6.88,15.67,2.74,44-5,34.19,30,37.76,29.44,2-.65-44-15.7-52.55-9.28-79.17S244.81,299.62,271.59,296.68Z"/><path class="cls-1" d="M123.51,223.73c-4.08,12.1-13,46.93,9.36,45.67,17.41-1,8.3-61.95,8.3-79.82s2.82-15.52,10.58-31.08,9.29-46.81,9.77-56.25,12.26-27.08,8.69,6.77C166.82,141.14,199,132.14,191,96.75c-3.81-16.8,2.47-18.42,9-15,1.12-.67,2.4-1.4,3.85-2.12,1.95-1,4.15-2.12,6.64-3.08.94-.39,1.92-.76,2.93-1.15a47.87,47.87,0,0,1-5.15-9.52C204.79,57.74,197,50,188.66,50.64c-6.22.54-12.79,5.77-19,15.12-8.65,13-16.22,33.38-22.52,60.44-6.36,27.38-13.28,59.19-13.35,59.51a7.51,7.51,0,0,1-1.56,3.19c-3.12,3.78-6.2,7.44-9.22,11-21.52,25.67-40.1,47.85-54.14,78.93-5.08,11.23-19.59,49.17,6.73,65.78a34.24,34.24,0,0,0,9.63,3.69C69.85,327,73.94,300,77,286.72c3.57-15.65,12.78-3.48,19.62-9.19,6.34-5.27,5-21.4,5.78-34.16S129.84,205,123.51,223.73Z"/><path class="cls-1" d="M426.59,343.14c23.27-17.29,9.46-53.36,4.53-64.26C417.08,247.8,398.5,225.62,377,200c-3-3.61-6.1-7.27-9.22-11a7.51,7.51,0,0,1-1.56-3.19c-.07-.32-7-32.13-13.35-59.51-6.3-27.06-13.87-47.39-22.52-60.44-6.2-9.35-12.77-14.58-19-15.12-8.32-.7-16.13,7.1-19.57,15.2a47.23,47.23,0,0,1-5.56,10.09l1,.38c2.5.9,4.75,1.84,6.73,2.73s3.68,1.7,5.06,2.44c2.77,1.45,4.31,2.45,4.31,2.45s-1.81.28-4.93.48c-1.56.1-3.45.19-5.58.28s-4.5.1-7.1.14l-8.29,0c-2.92-.07-6-.06-9.12-.18s-6.36-.16-9.62-.19l-2.45-.06-2.46,0c-1.64,0-3.29-.08-4.94-.06s-3.28,0-4.92,0l-4.89,0c-1.62,0-3.22,0-4.82.07s-3.17,0-4.71.09-3.08.1-4.59.12-3,.13-4.42.15c-2.89,0-5.62.2-8.19.27-1.28,0-2.51,0-3.69.11s-2.29.08-3.35.09h-.33a29,29,0,0,1,2.94,3c9,11,.82,14,.19,22.79-1.7,23.71,23.84,20.51,21.54.68C227,89.25,247.67,90.93,253,101.13s-10.71,27.69-2.68,41.08,27.48,10,23.73-12,15.43-53.75,23.41-36.4,9.69,29.06,19.9,20.39S314.41,75.73,326,89s32,77.25,26.83,114.49c-.71,5.21-23.87,74.26,19.15,62.3,12.84-3.57,12-22.14,5.17-35.84-9.81-19.74,20.87-1,28.36,19.75s8.57,48.79,16.06,53.89C426.61,307,429.44,325.22,426.59,343.14Z"/><path class="cls-1" d="M385.74,422l-.49-.33a4.33,4.33,0,0,1-.9-.74,40.09,40.09,0,0,0-3.54-2.32,7.54,7.54,0,0,1-3.79-6.81c0-.62,2-54.84-3.79-105.45-8.22,24.64-7.89,77.41-19.87,57.94-10.66-17.33-21.05-36.06-36,.68s-86,28.58-95.27-2c-6.56-21.65-20.24-43.43-36.75-48s-18.19,28.24-36.23,31.79c-12.28,2.41-19.14-12.08-23.7-26.62a830.91,830.91,0,0,0-2.4,91.67,7.54,7.54,0,0,1-3.8,6.82c-5.7,3.26-13.82,10.43-13.1,15.41,1.82,12.42,24.49,17.22,69.34,14.69,37.75-4.12,49.8-8.07,51.46-24.61a106,106,0,0,0,.31-12.7c0-1.26-.06-2.46-.05-3.65a39.58,39.58,0,0,1-5.76-3.22c-.86-.6-1.66-1.22-2.41-1.81s-1.4-1.22-2-1.81a27.07,27.07,0,0,1-2.86-3.33,18.77,18.77,0,0,1-1.52-2.38c-.32-.58-.47-.89-.47-.89l1,.13c.64.08,1.54.26,2.68.41s2.47.35,3.95.55,3.14.34,4.9.46c.89,0,1.77.15,2.72.16.47,0,.93.05,1.41.07l1.45,0c2,.06,4,.1,6.15.1h20.45c2.27,0,4.48,0,6.6,0s4.18,0,6.13-.13,3.83-.18,5.6-.31l2.55-.23c.82-.08,1.6-.19,2.37-.26l4-.51c1.13-.13,2.08-.32,2.72-.38s1-.11,1-.11-.16.31-.49.87a20,20,0,0,1-1.54,2.33,29.79,29.79,0,0,1-2.89,3.3c-.6.6-1.29,1.16-2,1.8s-1.54,1.19-2.4,1.81a40.22,40.22,0,0,1-5.58,3.18c0,1.24,0,2.49-.05,3.8a106,106,0,0,0,.31,12.7c1.66,16.54,13.71,20.49,51.46,24.61,44.84,2.54,67.52-2.27,69.34-14.7C394.45,430.41,390.26,425.62,385.74,422Z"/></svg>