<svg id="图层_1" data-name="图层 1" xmlns="http://www.w3.org/2000/svg" viewBox="0 0 500 500"><defs><style>.cls-1{fill:#ffff71;}</style></defs><title>画板 1 副本 94</title><path class="cls-1" d="M256.21,312.46a9.91,9.91,0,0,0-12.25-.08c-20.93,14-40,95-40,126.62,14.39-3.93,21.09-9.31,21.54-20.87a90.37,90.37,0,0,0-.36-10.92c-.13-1.55-.24-3-.25-4.45a77,77,0,0,1-10.7-3.3,4,4,0,1,1,3-7.42c5.85,2.34,16.59,5,28.8,5.62l.49,0c1.13.05,2.27.09,3.42.1h.33c1.15,0,2.29,0,3.42-.1l.5,0c12.2-.57,22.94-3.28,28.79-5.62a4,4,0,1,1,3,7.42,77,77,0,0,1-10.7,3.3c0,1.48-.12,2.9-.25,4.45a90.37,90.37,0,0,0-.36,10.92c.45,11.56,7.15,16.94,21.54,20.87C296.11,407.79,277.1,326.68,256.21,312.46Z"/><path class="cls-1" d="M130.29,192.17a3.05,3.05,0,0,1-.75.69c-1.3,1.3-4.3,4.39-8.28,9a.13.13,0,0,1,0,.06c-13.18,15.33-37.19,47.7-47.21,89.82C74,292,67.75,316,77.16,332a26.39,26.39,0,0,0,5.23,6.38c.34-75.14,41.84-109.9,42.22-96.06h0c.25,27.86-2.08,55.71-2.08,55.71v0a4,4,0,0,1,.65,2.6C118.28,346.13,125,414.08,125,414.76a4,4,0,0,1-1.81,3.76c-.1.07-10.71,7.21-9.19,14.63,2,9.76,19.7,13.89,50.31,12-.32-180.22-17-213.86-33.75-253.31Z"/><path class="cls-1" d="M313.24,53.81c-9.51-.85-17.95,8.27-21.78,17.08-4.92,11.31-11,16.92-18.56,17.16h-.23c-.12,0-11.53-.44-22.63-.33-11.2-.11-22.59.32-22.71.33h-.23c-7.57-.24-13.64-5.85-18.56-17.16-3.83-8.81-12.27-17.92-21.78-17.08-9.29.82-27.15,11.79-42.45,76.05-.95,4-1.91,8.1-2.85,12.26,17.53-25,48.27-30.49,108.19-30.49,31.31,0,74.35-13.69,83.28-42.52C325.11,57.36,318,54.23,313.24,53.81Z"/><path class="cls-1" d="M426,291.75c-10-42.12-34-74.49-47.21-89.82a.13.13,0,0,1,0-.06c-4-4.62-7-7.71-8.28-9a3.05,3.05,0,0,1-.75-.69l-.29-.36c-16.72,39.45-33.43,73.09-33.75,253.31,30.61,1.92,48.3-2.21,50.31-12,1.52-7.42-9.09-14.56-9.19-14.63a4,4,0,0,1-1.81-3.76c.06-.68,6.74-68.63,1.85-114.12a4,4,0,0,1,.65-2.6v0s-2.33-27.85-2.08-55.71h0c.38-13.84,41.88,20.92,42.22,96.06a26.39,26.39,0,0,0,5.23-6.38C432.32,316,426.08,292,426,291.75Z"/></svg>