<svg id="图层_1" data-name="图层 1" xmlns="http://www.w3.org/2000/svg" viewBox="0 0 500 500"><defs><style>.cls-1{fill:#333;}</style></defs><title>画板 1 副本 157</title><path class="cls-1" d="M225.52,84.57h-.06l-.54,0c-1.51,0-3,.13-4.42.15-2.89,0-5.62.2-8.19.27-1.28,0-2.51,0-3.69.11s-2.29.08-3.35.09l-5.54.08c-3.11,0-5-.12-5-.12s1.45-1.12,4.12-2.78a51.69,51.69,0,0,1,4.92-2.79c1.95-1,4.15-2.12,6.64-3.08.94-.39,1.92-.76,2.93-1.15a47.87,47.87,0,0,1-5.15-9.52C204.79,57.74,197,50,188.66,50.64c-6.22.54-12.79,5.77-19,15.12-8.65,13-16.22,33.38-22.52,60.44-6.36,27.38-13.28,59.19-13.35,59.51a8.36,8.36,0,0,1-.38,1.2v0C154,148.33,212,84.57,225.52,84.57Z"/><path class="cls-1" d="M431.12,278.88C417.08,247.8,398.5,225.62,377,200c-3-3.61-6.1-7.27-9.22-11A7.35,7.35,0,0,1,366.6,187l0,0c-17.52,53.53-87.66,137.43-116.58,152-28.92-14.53-99.06-98.43-116.58-152h0a7.24,7.24,0,0,1-1.16,2c-3.12,3.78-6.2,7.44-9.22,11-21.52,25.67-40.1,47.85-54.14,78.93a108.15,108.15,0,0,0-6.38,18.43l50.32-.42c.72-5.41,1.52-10.77,2.44-16a7.49,7.49,0,0,1,14.87,1.53l28,95.37,48.53-31.62L250,382.88l43.3-36.71,48.53,31.62,28-95.37a7.49,7.49,0,0,1,14.87-1.53c.92,5.23,1.72,10.59,2.44,16l50.32.42A108.15,108.15,0,0,0,431.12,278.88Z"/><path class="cls-1" d="M366.2,185.71c-.07-.32-7-32.13-13.35-59.51-6.3-27.06-13.87-47.39-22.52-60.44-6.2-9.35-12.77-14.58-19-15.12-8.32-.7-16.13,7.1-19.57,15.2a47.23,47.23,0,0,1-5.56,10.09l1,.38c2.5.9,4.75,1.84,6.73,2.73s3.68,1.7,5.06,2.44c2.77,1.45,4.31,2.45,4.31,2.45s-1.81.28-4.93.48c-1.56.1-3.45.19-5.58.28s-4.5.1-7.1.14l-8.29,0-1.56,0c15.69,3.79,70.77,64.79,90.7,102.19v0A8.36,8.36,0,0,1,366.2,185.71Z"/><path class="cls-1" d="M273.15,424.38c1.76,16.32,13.88,20.26,51.43,24.36,44.84,2.54,67.52-2.27,69.34-14.7.72-5-7.4-12.14-13.11-15.41a7.33,7.33,0,0,1-1.95-1.63l-41.34-13.86Z"/><path class="cls-1" d="M121.15,417a7.62,7.62,0,0,1-2,1.64c-5.7,3.26-13.82,10.43-13.1,15.41,1.82,12.42,24.49,17.22,69.34,14.69,37.55-4.1,49.67-8,51.43-24.36l-64.37-21.24Z"/></svg>