<svg id="图层_1" data-name="图层 1" xmlns="http://www.w3.org/2000/svg" viewBox="0 0 500 500"><defs><style>.cls-1{fill:#ffb031;}</style></defs><title>1画板 1 副本 203</title><path class="cls-1" d="M169.67,65.76c-8.42,12.7-15.81,32.32-22,58.3,22-.37,27.67-37.58,51-37.58s29.06,37.6,51.33,37.6,27.89-37.6,51.33-37.6,29,37.21,51,37.58c-6.19-26-13.58-45.6-22-58.3-6.2-9.35-12.77-14.58-19-15.12-8.32-.7-16.13,7.1-19.57,15.2a47.23,47.23,0,0,1-5.56,10.09l1,.38c2.5.9,4.75,1.84,6.73,2.73s3.68,1.7,5.06,2.44c2.77,1.45,4.31,2.45,4.31,2.45s-1.81.28-4.93.48c-1.56.1-3.45.19-5.58.28s-4.5.1-7.1.14l-8.29,0c-2.92-.07-6-.06-9.12-.18s-6.36-.16-9.62-.19l-2.45-.06-2.46,0c-1.64,0-3.29-.08-4.94-.06s-3.28,0-4.92,0l-4.89,0c-1.62,0-3.22,0-4.82.07s-3.17,0-4.71.09-3.08.1-4.59.12-3,.13-4.42.15c-2.89,0-5.62.2-8.19.27-1.28,0-2.51,0-3.69.11s-2.29.08-3.35.09l-5.54.08c-3.11,0-5-.12-5-.12s1.45-1.12,4.12-2.78a51.69,51.69,0,0,1,4.92-2.79c1.95-1,4.15-2.12,6.64-3.08.94-.39,1.92-.76,2.93-1.15a47.87,47.87,0,0,1-5.15-9.52C204.79,57.74,197,50,188.66,50.64,182.44,51.18,175.87,56.41,169.67,65.76Z"/><path class="cls-1" d="M391.73,217.75C372.27,225.61,376.55,288,354.82,288c-23.19,0-27-38.61-51.39-38.61S273.17,293.15,250,293.15l0,0,0,0c-23.19,0-29-43.72-53.45-43.72S168.26,288,145.07,288c-21.7,0-17.46-62.25-36.83-70.26-11,13.57-21,27-29.73,42.28,13.66-7.26,32.38,20.21,34.56,35,.65-4.79,1.38-9.53,2.19-14.17A7.5,7.5,0,1,1,130,283.47c-9.73,55.59-7.08,127.63-7,128.35a7.57,7.57,0,0,1-1.1,4.18c5.84,8,12.2,14.47,21.13,14.47,23.19,0,29-43.73,53.45-43.73,6.51,0,11.7,3.12,16.25,7.68l.41.05c.64.08,1.54.26,2.68.41s2.47.35,3.95.55,3.14.34,4.9.46c.89,0,1.77.15,2.72.16.47,0,.93.05,1.41.07l1.45,0c2,.06,4,.1,6.15.1h20.45c2.27,0,4.48,0,6.6,0s4.18,0,6.13-.13,3.83-.18,5.6-.31l2.55-.23c.82-.08,1.6-.19,2.37-.26l4-.51c1.13-.13,2.08-.32,2.72-.38l.45-.06c4.54-4.54,9.72-7.65,16.22-7.65,24.41,0,30.26,43.73,53.45,43.73,9,0,15.34-6.54,21.19-14.55a7.54,7.54,0,0,1-1.05-4.1c0-.72,2.67-72.8-7-128.35a7.5,7.5,0,1,1,14.77-2.58c.79,4.52,1.5,9.14,2.14,13.8,2.44-14.94,21.1-42,34.66-34.55C412.79,244.81,402.76,231.35,391.73,217.75Z"/></svg>