<svg id="图层_1" data-name="图层 1" xmlns="http://www.w3.org/2000/svg" viewBox="0 0 500 500"><defs><style>.cls-1{fill:#ffff71;}</style></defs><title>1画板 1 副本 110</title><path class="cls-1" d="M271.11,285.83c-5.32,0-9.63,4.05-9.63,9.05s4.31,9.06,9.63,9.06,9.63-4.06,9.63-9.06S276.43,285.83,271.11,285.83Z"/><path class="cls-1" d="M271.11,317.75c-5.32,0-9.63,4.06-9.63,9.06s4.31,9.06,9.63,9.06,9.63-4.06,9.63-9.06S276.43,317.75,271.11,317.75Z"/><path class="cls-1" d="M146.07,130.89l64.65-21.21,65.53,16,50.51-26.83L336.68,77a98.2,98.2,0,0,0-6.35-11.28c-6.2-9.35-12.77-14.58-19-15.12-8.32-.7-16.13,7.1-19.57,15.2a47.23,47.23,0,0,1-5.56,10.09l1,.38c2.5.9,4.75,1.84,6.73,2.73s3.68,1.7,5.06,2.44c2.77,1.45,4.31,2.45,4.31,2.45s-1.81.28-4.93.48c-1.56.1-3.45.19-5.58.28s-4.5.1-7.1.14l-8.29,0c-2.92-.07-6-.06-9.12-.18s-6.36-.16-9.62-.19l-2.45-.06-2.46,0c-1.64,0-3.29-.08-4.94-.06s-3.28,0-4.92,0l-4.89,0c-1.62,0-3.22,0-4.82.07s-3.17,0-4.71.09-3.08.1-4.59.12-3,.13-4.42.15c-2.89,0-5.62.2-8.19.27-1.28,0-2.51,0-3.69.11s-2.29.08-3.35.09l-5.54.08c-3.11,0-5-.12-5-.12s1.45-1.12,4.12-2.78a51.69,51.69,0,0,1,4.92-2.79c1.95-1,4.15-2.12,6.64-3.08.94-.39,1.92-.76,2.93-1.15a47.87,47.87,0,0,1-5.15-9.52C204.79,57.74,197,50,188.66,50.64c-6.22.54-12.79,5.77-19,15.12-8.65,13-16.22,33.38-22.52,60.44C146.79,127.75,146.43,129.31,146.07,130.89Z"/><path class="cls-1" d="M431.12,278.88C417.08,247.8,398.5,225.62,377,200L372,194,250,283.1,128,194l-5,6c-21.52,25.67-40.1,47.85-54.14,78.93-2.42,5.36-7,16.78-8.24,29.07l50.22,6.17c1.09-11.22,2.52-22.48,4.4-33.23A7.5,7.5,0,1,1,130,283.47c-9.73,55.59-7.08,127.63-7,128.35a7.54,7.54,0,0,1-3.8,6.82,41.36,41.36,0,0,0-6.79,4.95l30.11,22C152.25,445.64,250,338.31,250,338.31s97.77,107.33,107.53,107.26l30.07-21.95a41.37,41.37,0,0,0-6.83-5,7.54,7.54,0,0,1-3.79-6.81c0-.72,2.67-72.8-7-128.35a7.42,7.42,0,0,1,.71-4.69H330.57v-9h44.07v5.46a7.48,7.48,0,0,1,10.1,5.7c1.88,10.76,3.31,22,4.4,33.23L439.36,308C438.1,295.67,433.54,284.24,431.12,278.88Zm-160,57c-5.32,0-9.63-4.06-9.63-9.06s4.31-9.06,9.63-9.06,9.63,4.06,9.63,9.06S276.43,335.87,271.11,335.87Zm0-31.93c-5.32,0-9.63-4.06-9.63-9.06s4.31-9.05,9.63-9.05,9.63,4.05,9.63,9.05S276.43,303.94,271.11,303.94Z"/></svg>