<svg id="图层_1" data-name="图层 1" xmlns="http://www.w3.org/2000/svg" viewBox="0 0 500 500"><defs><style>.cls-1{fill:#fcee21;}</style></defs><title>画板 1 副本 80</title><path class="cls-1" d="M283.71,357.8a25.88,25.88,0,0,0,13.93-47.68,17.73,17.73,0,0,0,5.13-12.57c0-9.53-7.26-17.25-16.21-17.25a16.09,16.09,0,0,0-14.15,8.82,23.71,23.71,0,0,0-9.15-1.82c-12.75,0-23.08,10-23.08,22.25a22.45,22.45,0,0,0,17.68,21.63c0,.25,0,.49,0,.74A25.88,25.88,0,0,0,283.71,357.8Z"/><path class="cls-1" d="M93.3,265.15a22.85,22.85,0,0,0,20.8,22.76c.37-2.36.75-4.71,1.16-7a7.5,7.5,0,0,1,14.8,2.39A22.85,22.85,0,1,0,93.3,265.15Z"/><path class="cls-1" d="M158.11,283.67a19.63,19.63,0,1,0,19.63,19.63A19.63,19.63,0,0,0,158.11,283.67Z"/><path class="cls-1" d="M145.13,243.12a15.54,15.54,0,1,0-15.54-15.54A15.54,15.54,0,0,0,145.13,243.12Z"/><path class="cls-1" d="M110.19,321.53c.45-5.34,1-10.72,1.59-16.08A15.8,15.8,0,1,0,97.08,328a4.34,4.34,0,0,1,1.14,0A15.78,15.78,0,0,0,110.19,321.53Z"/><path class="cls-1" d="M190.89,394.26a29.48,29.48,0,1,0-26.24-42.92,18.25,18.25,0,1,0,1.92,30.11A29.47,29.47,0,0,0,190.89,394.26Z"/><path class="cls-1" d="M184.23,427.93a8.32,8.32,0,1,0-8.32-8.31A8.31,8.31,0,0,0,184.23,427.93Z"/><path class="cls-1" d="M203.81,79.59c1.95-1,4.15-2.12,6.64-3.08.94-.39,1.92-.76,2.93-1.15a40.2,40.2,0,0,1-3-4.85,16.66,16.66,0,1,0,6.82,14.31c-1.7.06-3.34.14-4.92.18-1.28,0-2.51,0-3.69.11s-2.29.08-3.35.09l-5.54.08c-3.11,0-5-.12-5-.12s1.45-1.12,4.12-2.78A51.69,51.69,0,0,1,203.81,79.59Z"/><circle class="cls-1" cx="169.41" cy="95.3" r="8"/><path class="cls-1" d="M265.36,104A8.67,8.67,0,1,0,274,95.3,8.67,8.67,0,0,0,265.36,104Z"/><path class="cls-1" d="M347.77,106.77c-5.16-17.55-11-31.3-17.44-41l-.69-1a24,24,0,1,0,18.13,42Z"/><path class="cls-1" d="M353.06,143.14a10.5,10.5,0,1,0-10.5,10.5A10.51,10.51,0,0,0,353.06,143.14Z"/><path class="cls-1" d="M151,153.64a8.39,8.39,0,1,0-7.33-12.44c-.35,1.51-.69,3-1,4.51A8.38,8.38,0,0,0,151,153.64Z"/><path class="cls-1" d="M406.52,236.94c-7.28-10.09-15.16-19.77-23.53-29.81a28.83,28.83,0,0,0-3.1-.18,26.83,26.83,0,1,0,26.63,30Z"/><circle class="cls-1" cx="339.74" cy="271.46" r="15.12"/><path class="cls-1" d="M347.89,209.12a9.39,9.39,0,1,0-9.39-9.39A9.39,9.39,0,0,0,347.89,209.12Z"/><path class="cls-1" d="M439.68,313c-.3-14.12-5.81-28-8.56-34.13-.16-.36-.33-.7-.5-1.06A23,23,0,1,0,439.68,313Z"/><path class="cls-1" d="M339.39,342.41a22.94,22.94,0,0,0,37.54,17.7c-.36-11.52-1-24.13-2.05-36.91a22.94,22.94,0,0,0-35.49,19.21Z"/><circle class="cls-1" cx="335.81" cy="376.17" r="9.13"/><path class="cls-1" d="M296.23,376.17A19.23,19.23,0,0,0,277,395.4c0,.09,0,.18,0,.26l.7-.06c.82-.08,1.6-.19,2.37-.26l4-.51c1.13-.13,2.08-.32,2.72-.38s1-.11,1-.11-.16.31-.49.87a20,20,0,0,1-1.54,2.33,29.79,29.79,0,0,1-2.89,3.3c-.6.6-1.29,1.16-2,1.8-.56.46-1.16.91-1.79,1.37a19.22,19.22,0,1,0,17.18-27.84Z"/><path class="cls-1" d="M359.81,423.3a12,12,0,1,0-12,12A12,12,0,0,0,359.81,423.3Z"/><circle class="cls-1" cx="140" cy="412.3" r="11"/><circle class="cls-1" cx="201.17" cy="306.17" r="8.63"/></svg>