<svg id="图层_1" data-name="图层 1" xmlns="http://www.w3.org/2000/svg" viewBox="0 0 500 500"><defs><style>.cls-1{fill:#ffce00;}</style></defs><title>1画板 1 副本 89</title><path class="cls-1" d="M226.88,424.13a106,106,0,0,0,.31-12.7c0-1.11-.05-2.16-.05-3.21l-1.31-1.07a42.38,42.38,0,0,1-4.45-2.59c-.86-.6-1.66-1.22-2.41-1.81s-1.4-1.22-2-1.81a27.07,27.07,0,0,1-2.86-3.33l0-.05L125,324.94c-1,12.95-1.64,25.67-2,37.22l93,78.3C223,436.92,226.1,431.92,226.88,424.13Z"/><path class="cls-1" d="M122.94,412.87a7.51,7.51,0,0,1-3.76,5.77c-5.7,3.26-13.82,10.43-13.1,15.41,1.82,12.42,24.49,17.22,69.34,14.69C163.11,430.12,140.66,416.64,122.94,412.87Z"/><path class="cls-1" d="M169.67,65.76c-6,9-11.41,21.45-16.29,37.19l54.73-17.83c-1,0-1.94.07-2.84.08l-5.54.08c-3.11,0-5-.12-5-.12s1.45-1.12,4.12-2.78a51.69,51.69,0,0,1,4.92-2.79c1.95-1,4.15-2.12,6.64-3.08.94-.39,1.92-.76,2.93-1.15a47.87,47.87,0,0,1-5.15-9.52C204.79,57.74,197,50,188.66,50.64,182.44,51.18,175.87,56.41,169.67,65.76Z"/><path class="cls-1" d="M391.46,217.41l-141.2,117L108.75,217.16c-10.43,12.83-20,25.5-28.41,39.71l34.18,28.48c.25-1.49.48-3,.74-4.46A7.5,7.5,0,1,1,130,283.47c-.75,4.29-1.42,8.67-2,13.11l119.64,99.69h5.23L372.05,297c-.62-4.58-1.31-9.09-2.08-13.5a7.5,7.5,0,1,1,14.77-2.58c.28,1.6.54,3.22.8,4.84l34.29-28.57C411.42,242.92,401.88,230.25,391.46,217.41Z"/><path class="cls-1" d="M284.32,440.61l92.69-78c-.33-11.55-.93-24.28-2-37.25l-90.87,74.08c-.41.45-.85.93-1.34,1.42s-1.29,1.16-2,1.8-1.54,1.19-2.4,1.81c-.61.41-1.27.83-1.95,1.23L273,408.52c0,.9-.1,1.82-.19,2.78,0,.06,0,.14,0,.21a104.65,104.65,0,0,0,.31,12.62C273.92,432,277.1,437.07,284.32,440.61Z"/><path class="cls-1" d="M380.81,418.63a7.52,7.52,0,0,1-3.73-5.66c-17.64,3.92-39.79,17.33-52,35.77l.94.07c43.87,2.35,66.09-2.47,67.89-14.77C394.64,429.07,386.52,421.9,380.81,418.63Z"/><path class="cls-1" d="M292.83,84.69l-1.61,0,55.34,18c-4.86-15.65-10.29-28-16.23-37-6.2-9.35-12.77-14.58-19-15.12-8.32-.7-16.13,7.1-19.57,15.2a47.23,47.23,0,0,1-5.56,10.09l1,.38c2.5.9,4.75,1.84,6.73,2.73s3.68,1.7,5.06,2.44c2.77,1.45,4.31,2.45,4.31,2.45s-1.81.28-4.93.48C296.85,84.51,295,84.6,292.83,84.69Z"/></svg>