<svg id="图层_1" data-name="图层 1" xmlns="http://www.w3.org/2000/svg" viewBox="0 0 500 500"><defs><style>.cls-1{fill:#fff;}</style></defs><title>画板 1 副本 17</title><polygon class="cls-1" points="256.14 238.15 263.35 252.04 273.67 241.93 256.14 238.15"/><path d="M275.34,241.17a3,3,0,0,0-2.93-3c-15.6-.14-21.64-16.22-21.89-16.9a3,3,0,0,0-5.73.69c-.67,6.38-6.77,18.29-18.46,18.29a3,3,0,0,0,0,5.92c11.22,0,18.76-8,22.25-15.94a35.21,35.21,0,0,0,6.3,7.24,2,2,0,0,0,.18,1l6.52,13.83a1.93,1.93,0,0,0,1.47,1.1,1.63,1.63,0,0,0,.31,0,1.94,1.94,0,0,0,1.43-.62l8.17-8.59.16-.21A3,3,0,0,0,275.34,241.17ZM263.92,248l-3.11-6.59a25.78,25.78,0,0,0,7.17,2.31Z"/></svg>