<svg id="图层_1" data-name="图层 1" xmlns="http://www.w3.org/2000/svg" viewBox="0 0 500 500"><defs><style>.cls-1{fill:#6d141c;}.cls-2{fill:#8e2023;}.cls-3{fill:#fff;}</style></defs><title>画板 1 副本 17</title><path class="cls-1" d="M203.14,216.39s52.83,13.24,93.72-2.71c0,0-8.95,93.52-47.61,99.36S203.14,216.39,203.14,216.39Z"/><path class="cls-2" d="M214,274.77s36.84-34.49,68.2,2.08c0,0-8.82,38.21-34.82,36.33S214,274.77,214,274.77Z"/><polygon class="cls-3" points="293.83 214.51 281.93 239.68 269.91 220.29 293.83 214.51"/><path d="M298.07,212.08a2,2,0,0,0-1.93-.26c-13.15,5.13-29,7.73-47,7.73a210.72,210.72,0,0,1-45.51-5.1,2,2,0,0,0-2.48,2.08c.3,4,7.61,98.75,45,98.75a22.51,22.51,0,0,0,3.44-.26c39.75-6,48.93-97.27,49.3-101.15A2,2,0,0,0,298.07,212.08Zm-7.17,5.77-9.11,19.27L272.38,222A120.88,120.88,0,0,0,290.9,217.85ZM249,311.07a19.7,19.7,0,0,1-2.84.21c-30.43,0-39.27-76.83-40.74-92.34a219.51,219.51,0,0,0,43.76,4.61,164.7,164.7,0,0,0,20.59-1.25l11.17,18a1.24,1.24,0,0,0,1,.58H282a1.26,1.26,0,0,0,1-.7l11-23.38.42-.14C292.5,233,281.71,306.11,249,311.07Z"/></svg>