<svg id="图层_1" data-name="图层 1" xmlns="http://www.w3.org/2000/svg" viewBox="0 0 500 500"><defs><style>.cls-1{fill:#fff;}</style></defs><title>画板 1 副本 23</title><path class="cls-1" d="M277.18,245.18l19.25,8.44-3-26h0A33.81,33.81,0,0,1,277.18,245.18Z"/><path d="M296,230.68a24.22,24.22,0,0,0,2.06-6.1,3.35,3.35,0,0,0-6.62-1.09c-.18,1-4.8,24.5-46.46,26.11h-.2c-39.13,3.88-49.64-19.57-50.07-20.56a3.36,3.36,0,0,0-6.2,2.58c.46,1.1,10.91,25.14,47.73,25.13,2.87,0,5.9-.14,9.1-.46,15-.59,25.72-3.85,33.43-8.08l16.83,7.38a2.19,2.19,0,0,0,.87.18,2.15,2.15,0,0,0,2.14-2.41Zm-12.78,14.77a39.77,39.77,0,0,0,9.12-8.73l1.55,13.41Z"/></svg>