<svg id="图层_1" data-name="图层 1" xmlns="http://www.w3.org/2000/svg" viewBox="0 0 500 500"><defs><style>.cls-1{fill:#fff;}.cls-2{fill:#8e2023;}</style></defs><title>画板 1 副本 35</title><polygon class="cls-1" points="271.45 239.26 294.98 229.55 291.6 251.45 271.45 239.26"/><path d="M288.68,254.93a2.24,2.24,0,0,1-1.47-.55l-16.07-14a2.26,2.26,0,0,1,.64-3.79l23.81-9.5a2.25,2.25,0,0,1,3,2.79l-7.74,23.5a2.26,2.26,0,0,1-1.54,1.46A2.06,2.06,0,0,1,288.68,254.93Zm-11.81-15.51,10.74,9.34,5.16-15.69Z"/><path class="cls-2" d="M226.67,240.79c.13,10.05.59,36.26,18.91,35.62,20.92-.74,25.78-20.58,23.19-37.63"/><path d="M247.44,244.31c-13.19,0-26.55-2-37.45-6.26a3.72,3.72,0,0,1,2.71-6.92c27.5,10.75,69.64,5.17,81-6.84a3.71,3.71,0,1,1,5.39,5.11C290.05,239,269,244.31,247.44,244.31Z"/><path d="M246.56,278.5c-5.93,0-10.76-1.82-14.33-5.41-7.77-7.8-7.7-22.09-7.66-30.63v-1.67a2.1,2.1,0,0,1,4.2,0v1.69c0,7.89-.1,21.09,6.44,27.65,2.8,2.81,6.51,4.18,11.36,4.18h0c6.69,0,11.88-2.12,15.42-6.28,5.22-6.16,6.92-16.73,4.78-29.76a2.1,2.1,0,0,1,4.14-.68c2.34,14.27.31,26-5.73,33.15-4.36,5.15-10.63,7.76-18.6,7.76Z"/><path d="M249.05,261.79h-.12a2.09,2.09,0,0,1-2-2.21,134.88,134.88,0,0,0-.57-17.38,2.1,2.1,0,0,1,4.18-.43,136.14,136.14,0,0,1,.57,18A2.09,2.09,0,0,1,249.05,261.79Z"/></svg>