<svg id="图层_1" data-name="图层 1" xmlns="http://www.w3.org/2000/svg" viewBox="0 0 500 500"><defs><style>.cls-1{fill:#fff;}</style></defs><title>画板 1 副本 53</title><polygon class="cls-1" points="293 240 280 253 296 261 293 240"/><path d="M296.29,237.76a20.63,20.63,0,0,0,1-2.39,3.12,3.12,0,1,0-5.89-2c-2.63,7.61-13.53,18.66-27.2,24-8.87,3.46-22.52,5.91-37.17-2a3.12,3.12,0,0,0-3,5.49,48.52,48.52,0,0,0,23.31,6,52.74,52.74,0,0,0,19.08-3.71,61.89,61.89,0,0,0,12.88-6.92l16.47,7.1a2.14,2.14,0,0,0,2.13-.24,2.17,2.17,0,0,0,.87-2ZM282.92,253a35.34,35.34,0,0,0,9.65-9.62l0,.27,1.54,14.18-10.82-4.66Z"/></svg>