<svg id="图层_1" data-name="图层 1" xmlns="http://www.w3.org/2000/svg" viewBox="0 0 500 500"><defs><style>.cls-1{fill:#6d141c;}.cls-2{fill:#fff;}.cls-3{fill:#8e2023;}</style></defs><title>画板 1 副本 59</title><path class="cls-1" d="M181.3,226.53H319.45s8.4,81.94-69.27,81.94S181.3,226.53,181.3,226.53Z"/><polygon class="cls-2" points="318.3 229.3 306.1 249.23 294.46 236.71 283.13 249.12 272.36 236.27 260.67 249.02 249.56 236.5 237.35 248.9 225.71 236.38 214.38 248.8 203.61 235.95 191.92 248.69 180.8 229.81 318.3 229.3"/><path d="M306.1,251a1.76,1.76,0,0,1-1.31-.57l-10.32-11.09-10,11a1.81,1.81,0,0,1-1.36.58,1.77,1.77,0,0,1-1.33-.64L272.3,239,262,250.23a1.71,1.71,0,0,1-1.33.58,1.82,1.82,0,0,1-1.33-.6l-9.84-11.09-10.86,11a1.87,1.87,0,0,1-1.31.53,1.74,1.74,0,0,1-1.28-.57L225.72,239l-10,11a1.93,1.93,0,0,1-1.36.59A1.81,1.81,0,0,1,213,250l-9.45-11.28L193.24,249.9a1.76,1.76,0,0,1-1.51.57,1.79,1.79,0,0,1-1.35-.87l-11.13-18.88a1.79,1.79,0,1,1,3.09-1.82l9.9,16.79,10-10.95a1.81,1.81,0,0,1,1.36-.58,1.77,1.77,0,0,1,1.33.64l9.45,11.27,10-10.89a1.77,1.77,0,0,1,1.31-.59h0a1.8,1.8,0,0,1,1.31.57l10.37,11.15,10.89-11.07a1.81,1.81,0,0,1,1.33-.54,1.78,1.78,0,0,1,1.29.61l9.79,11L271,235.06a1.79,1.79,0,0,1,2.69.06l9.46,11.27,9.95-10.89a1.77,1.77,0,0,1,1.31-.58h0a1.82,1.82,0,0,1,1.32.57l10,10.79,11-17.92a1.79,1.79,0,0,1,3.06,1.87l-12.2,19.94a1.82,1.82,0,0,1-1.35.84Z"/><path class="cls-3" d="M188.5,273.7s52.61-47.72,122.1,0c0,0-12.33,34.57-61.13,34.77S188.5,273.7,188.5,273.7Z"/><path d="M249.47,312.05c-23.18,0-41.28-7.07-53.82-21-22.6-25.15-18.81-63.27-18.64-64.88a3.59,3.59,0,0,1,3.57-3.2H318.74a3.59,3.59,0,0,1,3.57,3.22c.16,1.61,3.77,39.71-18.92,64.86C290.79,305,272.65,312.05,249.47,312.05ZM184,230.12c-.35,9.4.17,37.38,17.06,56.15,11.12,12.35,27.42,18.61,48.46,18.61s37.41-6.28,48.59-18.66c17-18.81,17.62-46.7,17.3-56.1Z"/></svg>