<svg id="图层_1" data-name="图层 1" xmlns="http://www.w3.org/2000/svg" viewBox="0 0 500 500"><defs><style>.cls-1{fill:#fff;}</style></defs><title>画板 1 副本 59</title><path class="cls-1" d="M257.71,238.16,281.64,258l7.84-26.36C280.42,231.6,257.71,238.16,257.71,238.16Z"/><path d="M296.55,227.12a3.32,3.32,0,0,0-3.92-2.59c-5.24,1.07-12.49,3.21-24.47,7-6.13,1.5-11.07,2.92-11.5,3a3.83,3.83,0,0,0-1.8,1.16l-2.38.75-7.87,2.49c-17,5.39-28.26,4-35.39-4.21a3.32,3.32,0,0,0-5,4.34c5.59,6.48,13.1,9.7,22.72,9.7a66.07,66.07,0,0,0,19.7-3.49l7.88-2.49,2.08-.66,22.66,18.75a3.8,3.8,0,0,0,3.51.71,3.81,3.81,0,0,0,2.52-2.54l7.84-26.36a3.91,3.91,0,0,0,.11-1.48L294,231A3.32,3.32,0,0,0,296.55,227.12Zm-16.9,24.3-13.93-11.53c5.72-1.48,13-3.21,18.56-4Z"/></svg>