<svg id="图层_1" data-name="图层 1" xmlns="http://www.w3.org/2000/svg" viewBox="0 0 500 500"><defs><style>.cls-1{fill:#fff;}</style></defs><title>画板 1 副本 29</title><path class="cls-1" d="M290.8,235.89l-11.61,19.87L267.63,235l-.15-.86c8.75,4.23,18.83,7.25,23.32,1.79"/><path d="M222.07,242.31a18.54,18.54,0,0,1-7.47-1.47c-9.4-4.08-10.76-14.86-10.81-15.32a3.09,3.09,0,0,1,6.14-.73c0,.09,1,7.77,7.17,10.39,4.89,2.1,14.62,1.72,33.16-12a3.09,3.09,0,0,1,3.61-.05c6,4.2,23.59,14.26,32.15,10.43,2.85-1.27,4.51-4.15,5.08-8.81a3.09,3.09,0,0,1,6.14.75c-.85,6.9-3.77,11.51-8.7,13.71-11.59,5.18-30.19-5.76-36.37-9.77C240.22,238,230.14,242.31,222.07,242.31Z"/><path d="M277.47,256.49h-.05a2.3,2.3,0,0,1-1.88-1.07l-12.07-19.24a2.28,2.28,0,0,1,3.86-2.42l10.24,16.3,10.67-15.46a2.28,2.28,0,1,1,3.75,2.59l-12.64,18.32A2.29,2.29,0,0,1,277.47,256.49Z"/></svg>