<svg id="图层_1" data-name="图层 1" xmlns="http://www.w3.org/2000/svg" viewBox="0 0 500 500"><defs><style>.cls-1{fill:#631700;}</style></defs><title>画板 1 副本 20</title><path class="cls-1" d="M422.91,332c9.41-15.94,3.17-40,3.1-40.23-13.07-54.93-49.93-93.29-55.55-98.89a3.05,3.05,0,0,1-.75-.69l-.29-.36a3.33,3.33,0,0,1-.69-2.59c-1.44-7-7.5-36.1-13-59.36-15.3-64.26-33.16-75.23-42.45-76.05-9.51-.85-17.95,8.27-21.78,17.08-4.92,11.31-11,16.92-18.56,17.16h-.23c-.12,0-11.53-.44-22.63-.33-11.2-.11-22.59.32-22.71.33h-.23c-7.57-.24-13.64-5.85-18.56-17.16-3.83-8.81-12.27-17.92-21.78-17.08-9.29.82-27.15,11.79-42.45,76.05-5.54,23.26-11.6,52.41-13,59.36a3.33,3.33,0,0,1-.69,2.59l-.29.36a3.05,3.05,0,0,1-.75.69c-5.62,5.61-42.48,44-55.53,98.8C73.92,292,67.68,316,77.09,332c3.86,6.54,10,10.89,18.09,12.91,3.31.82,13,1.46,18.2-4.72,0-.68,0-1.36,0-2.05a11,11,0,0,1-4.13.81,10.83,10.83,0,0,1-7.47-2.92c-3.37-3.19-4.17-8.06-2.2-13.37a3,3,0,0,1,5.63,2.09c-1.11,3-.86,5.45.7,6.93a5,5,0,0,0,5.34.86,5.18,5.18,0,0,0,2.21-1.81c.18-10.74.71-21.32,1.74-30.92a4,4,0,0,1,8,.85C118.28,346.13,125,414.08,125,414.76a4,4,0,0,1-1.81,3.76c-.1.07-10.71,7.21-9.19,14.63,2.37,11.48,26.39,15.18,67.64,10.4,30-5.06,43.19-9,43.84-25.42a90.37,90.37,0,0,0-.36-10.92c-.13-1.55-.24-3-.25-4.45a77,77,0,0,1-10.7-3.3,4,4,0,1,1,3-7.42c6.47,2.58,18.92,5.64,32.71,5.74h.29c13.76-.1,26.21-3.16,32.68-5.74a4,4,0,1,1,3,7.42,77,77,0,0,1-10.7,3.3c0,1.48-.12,2.9-.25,4.45a90.85,90.85,0,0,0-.36,11c.65,16.36,13.86,20.3,43.84,25.36,41.26,4.77,65.27,1.08,67.64-10.4,1.53-7.48-9.08-14.56-9.19-14.63a4,4,0,0,1-1.81-3.76c.06-.68,6.74-68.64,1.85-114.12a4,4,0,0,1,8-.85c1,9.6,1.56,20.18,1.74,30.91a5.2,5.2,0,0,0,2.21,1.82,5,5,0,0,0,5.34-.86c1.56-1.48,1.81-3.94.7-6.93a3,3,0,0,1,5.63-2.09c2,5.31,1.17,10.18-2.2,13.37a10.83,10.83,0,0,1-7.47,2.92,11,11,0,0,1-4.13-.81c0,.69,0,1.37,0,2.05,5.15,6.18,14.89,5.54,18.2,4.72C413,342.87,419.05,338.52,422.91,332Z"/></svg>