<svg id="图层_1" data-name="图层 1" xmlns="http://www.w3.org/2000/svg" viewBox="0 0 500 500"><defs><style>.cls-1{fill:#ff57cc;}</style></defs><title>画板 1 副本 68</title><path class="cls-1" d="M431.12,278.88C417.08,247.8,398.5,225.62,377,200c-3-3.61-6.1-7.27-9.22-11a7.51,7.51,0,0,1-1.56-3.19c-.07-.32-7-32.13-13.35-59.51-6.3-27.06-13.87-47.39-22.52-60.44-6.2-9.35-12.77-14.58-19-15.12-8.32-.7-16.13,7.1-19.57,15.2a47.23,47.23,0,0,1-5.56,10.09l1,.38c2.5.9,4.75,1.84,6.73,2.73s3.68,1.7,5.06,2.44c2.77,1.45,4.31,2.45,4.31,2.45s-1.81.28-4.93.48c-1.56.1-3.45.19-5.58.28s-4.5.1-7.1.14l-8.29,0c-2.92-.07-6-.06-9.12-.18s-6.36-.16-9.62-.19l-2.45-.06-2.46,0c-1.64,0-3.29-.08-4.94-.06s-3.28,0-4.92,0l-4.89,0c-1.62,0-3.22,0-4.82.07s-3.17,0-4.71.09-3.08.1-4.59.12-3,.13-4.42.15c-2.89,0-5.62.2-8.19.27-1.28,0-2.51,0-3.69.11s-2.29.08-3.35.09l-5.54.08c-3.11,0-5-.12-5-.12s1.45-1.12,4.12-2.78a51.69,51.69,0,0,1,4.92-2.79c1.95-1,4.15-2.12,6.64-3.08.94-.39,1.92-.76,2.93-1.15a47.87,47.87,0,0,1-5.15-9.52C204.79,57.74,197,50,188.66,50.64c-6.22.54-12.79,5.77-19,15.12-8.65,13-16.22,33.38-22.52,60.44-6.36,27.38-13.28,59.19-13.35,59.51a7.51,7.51,0,0,1-1.56,3.19c-3.12,3.78-6.2,7.44-9.22,11-21.52,25.67-40.1,47.85-54.14,78.93-5.08,11.23-19.59,49.17,6.73,65.78,5.4,3.4,17.1,6,26.81,5.21a15.69,15.69,0,0,1-3.36-1.33c-6.25-3.41-8.63-10.22-6-17.37a5,5,0,0,1,9.35,3.39c-1.21,3.34.25,4.59,1.45,5.25a6.9,6.9,0,0,0,5.05.49,521.42,521.42,0,0,1,6.39-59.41A7.5,7.5,0,1,1,130,283.47c-9.73,55.59-7.08,127.63-7,128.35a7.54,7.54,0,0,1-3.8,6.82c-5.7,3.26-13.82,10.43-13.1,15.41,1.82,12.42,24.49,17.22,69.34,14.69,37.75-4.12,49.8-8.07,51.46-24.61a106,106,0,0,0,.31-12.7c0-1.26-.06-2.46-.05-3.65a39.58,39.58,0,0,1-5.76-3.22c-.86-.6-1.66-1.22-2.41-1.81s-1.4-1.22-2-1.81a27.07,27.07,0,0,1-2.86-3.33,18.77,18.77,0,0,1-1.52-2.38c-.32-.58-.47-.89-.47-.89l1,.13c.64.08,1.54.26,2.68.41s2.47.35,3.95.55,3.14.34,4.9.46c.89,0,1.77.15,2.72.16.47,0,.93.05,1.41.07l1.45,0c2,.06,4,.1,6.15.1h20.45c2.27,0,4.48,0,6.6,0s4.18,0,6.13-.13,3.83-.18,5.6-.31l2.55-.23c.82-.08,1.6-.19,2.37-.26l4-.51c1.13-.13,2.08-.32,2.72-.38s1-.11,1-.11-.16.31-.49.87a20,20,0,0,1-1.54,2.33,29.79,29.79,0,0,1-2.89,3.3c-.6.6-1.29,1.16-2,1.8s-1.54,1.19-2.4,1.81a40.22,40.22,0,0,1-5.58,3.18c0,1.24,0,2.49-.05,3.8a106,106,0,0,0,.31,12.7c1.66,16.54,13.71,20.49,51.46,24.61,44.84,2.54,67.52-2.27,69.34-14.7.72-5-7.4-12.14-13.11-15.41a7.54,7.54,0,0,1-3.79-6.81c0-.72,2.67-72.8-7-128.35a7.5,7.5,0,1,1,14.77-2.58,521.42,521.42,0,0,1,6.39,59.41,6.9,6.9,0,0,0,5.05-.49c1.2-.66,2.66-1.91,1.45-5.25a5,5,0,0,1,9.35-3.39c2.59,7.15.21,14-6,17.37a15.69,15.69,0,0,1-3.36,1.33c9.71.78,21.41-1.81,26.81-5.21C450.7,328.05,436.2,290.11,431.12,278.88Z"/></svg>