<svg id="图层_1" data-name="图层 1" xmlns="http://www.w3.org/2000/svg" viewBox="0 0 500 500"><defs><style>.cls-1{fill:#6d141c;}.cls-2{fill:#8e2023;}.cls-3{fill:#fff;}</style></defs><title>画板 1 副本 23</title><path class="cls-1" d="M274.53,263.31c-13.36-12-34.37-11.09-47.29-2.34-2.34-8.12-5-11.65-7.17-23,11.36,2.1,25.76-1.13,32.1-18,1.58,8.47,13.78,23.48,29.45,18.27C279.72,249.37,277.56,253.92,274.53,263.31Z"/><path class="cls-2" d="M226.61,260.37c12.85-8.83,33.86-9.88,47.29,2.05C265.88,287.73,240.63,308.1,226.61,260.37Z"/><polygon class="cls-3" points="264.37 237 281.19 239.01 272.57 251.68 264.37 237"/><path d="M291.1,232.68a2.35,2.35,0,0,0-3.31-.47,24.43,24.43,0,0,1-6.6,3.62,2.17,2.17,0,0,0-.95.3,16.91,16.91,0,0,1-11.07-.49c-8.31-3.21-14.09-12-15.08-17.08a2.36,2.36,0,0,0-4.54-.37c-2.89,7.85-7.74,13.1-14.4,15.59-8.65,3.24-17.92,1-23.23-1.92a2.36,2.36,0,1,0-2.27,4.14,33.47,33.47,0,0,0,8.89,3.24c7.25,36.11,17.83,54.41,31.48,54.41.42,0,.83,0,1.25,0,17.37-1.4,31.08-32.39,32.45-53.67a29.69,29.69,0,0,0,6.91-3.94A2.35,2.35,0,0,0,291.1,232.68Zm-15.67,8.88a22.08,22.08,0,0,0,2.52-.15l-5.27,7.73-5.05-9A22.22,22.22,0,0,0,275.43,241.56ZM250.9,288.88c-6.4.52-18.36-5.25-27.39-48.9a31,31,0,0,0,13.29-1.77,28,28,0,0,0,14.74-13A33.65,33.65,0,0,0,263.42,238l8,14.3a1.35,1.35,0,0,0,1.11.68h.06a1.34,1.34,0,0,0,1.1-.58l4.68-6.88C275.22,265.45,263,287.91,250.9,288.88Z"/></svg>