<svg id="图层_1" data-name="图层 1" xmlns="http://www.w3.org/2000/svg" viewBox="0 0 500 500"><defs><style>.cls-1{fill:#6d141c;}.cls-2{fill:#fff;}.cls-3{fill:#8e2023;}</style></defs><title>画板 1 副本 47</title><path class="cls-1" d="M299.07,230.68v0C296,322,273.31,327.8,243.19,325.35,180.24,312.48,201.41,234,201.41,234a24.76,24.76,0,0,0,7.08.25c9.67-1.49,14.95-2.87,27.64-9.44,5.59-2,12.35-7.45,27.57.77,5.71,3.11,18,7,24.59,6.8A38,38,0,0,0,299.07,230.68Z"/><path class="cls-2" d="M294,231.84l-13.45,16.71-11.11-20.41c6.13,2.33,14,4.37,18.81,4.22A40.69,40.69,0,0,0,294,231.84Z"/><path class="cls-3" d="M291.35,272.51h0c-1.3,44.25-24.9,54.71-48.16,52.83-19.39-6.27-36.34-17.46-40.9-42.09l.56-1.95s16-32.14,44.65-33.19C262.15,248.51,281.53,254.9,291.35,272.51Z"/><path d="M307.45,214.44a3,3,0,1,0-5.29,2.94c1.66,3,2,5.34,1.07,7-1.63,2.85-7.39,4.75-15,4.94-5.69.18-17.43-3.37-23.05-6.43-14.34-7.73-22.4-4.23-27.73-1.91-.82.36-1.6.7-2.31.95l-.37.16c-12.5,6.48-17.49,7.72-26.6,9.13-3.69.31-8.48.11-10.6-2.55-2.33-2.93-.78-7.81-.77-7.86a3,3,0,0,0-5.74-1.91c-.11.32-2.61,8,1.74,13.49a11.41,11.41,0,0,0,3.84,3.12c-.36,9-1.29,59.1,20.32,81.75a34.57,34.57,0,0,0,25.91,11.11h.25c2.81.23,5.7.39,8.62.39,10.58,0,21.57-2.08,30.49-10.49,14.43-13.62,20.79-40.85,19.95-85.56a13.34,13.34,0,0,0,6.35-5.33C310.56,223.76,310.21,219.4,307.45,214.44Zm-19.08,20.94.65,0-8.15,10.12L274,232.86C279.1,234.4,284.49,235.52,288.37,235.38ZM278,313.88c-9.67,9.12-22.34,9.45-34.59,8.46h-.27a28.3,28.3,0,0,1-21.86-9.23c-18.76-19.66-19-64.48-18.7-75.89a26.19,26.19,0,0,0,3,.18c1,0,2,0,3.13-.14l.2,0c9.61-1.48,15.23-2.85,28.4-9.66.82-.31,1.63-.66,2.48-1,5-2.18,10.68-4.65,22.42,1.68a54.4,54.4,0,0,0,7,3.06l9.82,18.08a1.71,1.71,0,0,0,1.35.89h.15a1.71,1.71,0,0,0,1.33-.64L293.74,235c.78-.11,1.58-.23,2.38-.39C296.71,275.88,290.79,301.84,278,313.88Z"/></svg>