<svg id="图层_1" data-name="图层 1" xmlns="http://www.w3.org/2000/svg" viewBox="0 0 500 500"><title>画板 1 副本 63</title><path d="M129.54,192.86c-4.73,4.71-31.53,32.58-47.7,73.93L250,270.37l-119.71-78.2A3.05,3.05,0,0,1,129.54,192.86Z"/><path d="M370.53,192.86c4.73,4.71,31.53,32.58,47.7,73.93l-168.16,3.58,119.71-78.2A3.05,3.05,0,0,0,370.53,192.86Z"/><path d="M250.07,270.37,220.83,86.44C216.08,84,212,78.89,208.54,70.89c-3.83-8.81-12.27-17.92-21.78-17.08-6.28.56-16.49,5.76-27.18,29Z"/><path d="M250.07,270.37,279.24,86.44c4.75-2.42,8.81-7.55,12.29-15.55,3.83-8.81,12.27-17.92,21.78-17.08,6.28.56,16.49,5.76,27.18,29Z"/><path d="M121.58,325.49c-1.21,41.9,3.39,88.71,3.44,89.27a4,4,0,0,1-1.81,3.76c-.1.07-10.71,7.21-9.19,14.63,1.4,6.76,10.3,10.81,25.79,12L250.07,270.37Z"/><path d="M378.49,325.49c1.21,41.9-3.39,88.71-3.44,89.27a4,4,0,0,0,1.81,3.76c.1.07,10.71,7.21,9.19,14.63-1.39,6.76-10.3,10.81-25.79,12L250,270.37Z"/><path d="M212,394.26a4,4,0,0,1,5.2-2.22c6.47,2.58,18.92,5.64,32.71,5.74h.29c13.76-.1,26.21-3.16,32.68-5.74a4,4,0,0,1,5.2,2.22l-37.8-123.79Z"/></svg>