<svg id="图层_1" data-name="图层 1" xmlns="http://www.w3.org/2000/svg" viewBox="0 0 500 500"><defs><style>.cls-1{fill:#6d141c;}.cls-2{fill:#8e2023;}.cls-3{fill:#fff;}.cls-4{fill:none;}</style></defs><title>画板 1 副本 65</title><path class="cls-1" d="M292.73,268.16c1,31.47-19.18,56.87-43.84,55.44s-43.35-21.75-41.53-53.19,18.23-68.74,42.89-67.32S291.88,240.07,292.73,268.16Z"/><path class="cls-2" d="M289.78,290.21l-.85-1c-28.56-36.85-69.14-9.69-80.25-1.09,4.7,21.22,20.56,34.37,40.21,35.51C267.41,324.68,283.38,310.62,289.78,290.21Z"/><path class="cls-3" d="M253.77,203.51l8.94,24.37,13-9S262.9,203.58,253.77,203.51Z"/><path class="cls-4" d="M292.73,268.16c1,31.47-19.18,56.87-43.84,55.44s-43.35-21.75-41.53-53.19,18.23-68.74,42.89-67.32S291.88,240.07,292.73,268.16Z"/><path d="M295.23,268.08c-.93-30.74-19.58-66-44.84-67.49-.51,0-1,0-1.51,0-24.7,0-42.08,36.19-44,69.71-1.8,31.28,16.24,54.24,43.89,55.84.71,0,1.42.06,2.12.06,10.29,0,20.31-4.48,28.19-12.61C289.88,302.4,295.77,285.83,295.23,268.08ZM272.65,219l-9.13,6.32L256.8,207C262.62,209.08,268,213.34,272.65,219Zm2.82,91.07c-7.51,7.75-16.66,11.62-26.44,11-24.7-1.43-40.81-22.22-39.17-50.56,1.81-31.39,17.93-65,39-65,.41,0,.81,0,1.22,0a22.18,22.18,0,0,1,2.82.36l8.25,22.49a1.66,1.66,0,0,0,1.05,1,1.62,1.62,0,0,0,1.43-.21l11-7.64c9.12,12.44,15.06,30.25,15.56,46.64S285.35,299.89,275.47,310.07Z"/></svg>