<svg id="图层_1" data-name="图层 1" xmlns="http://www.w3.org/2000/svg" viewBox="0 0 500 500"><defs><style>.cls-1{fill:#fff;}</style></defs><title>画板 1 副本 47</title><path class="cls-1" d="M271.09,237.79l21.23,14.37,3-29.61h0C294.81,223,287.94,234,271.09,237.79Z"/><path d="M298,218a3,3,0,0,0-4.15.86c-4.94,7.52-20.14,17.07-38.6,20-12.95,2-32.08,1.5-49.66-12.66a3,3,0,0,0-3.77,4.68,66.26,66.26,0,0,0,42.38,14.86,76.79,76.79,0,0,0,12-.95,82,82,0,0,0,15-3.83l19.78,13.4a2.62,2.62,0,0,0,1.44.44,2.57,2.57,0,0,0,2.56-2.31l2.92-28.87c.37-.48.72-1,1-1.43A3,3,0,0,0,298,218Zm-7.77,29.66-13.12-8.88A43.63,43.63,0,0,0,292,230Z"/></svg>