<svg id="图层_1" data-name="图层 1" xmlns="http://www.w3.org/2000/svg" viewBox="0 0 500 500"><defs><style>.cls-1{fill:#fff;}</style></defs><title>画板 1 副本 65</title><polygon class="cls-1" points="266 239 282 252 290 233 266 239"/><path d="M297.48,225.2a3.07,3.07,0,0,0-3.9-.91,3,3,0,0,0-1.19.36,5.46,5.46,0,0,0-1.23,1l-.58.54c-8.35,4.84-22.39,8.39-37,9.25-17.09,1-32-1.76-41.45-7.58a25.27,25.27,0,0,0,.64-4.18,3.07,3.07,0,0,0-6.13-.48c-.33,4.33-1.39,6.05-3.71,9.82l-.52.85a3.07,3.07,0,0,0,1,4.22,3,3,0,0,0,1.6.46,3.09,3.09,0,0,0,2.62-1.47l.52-.84c.58-.94,1.1-1.81,1.59-2.65,9.9,5.81,23.38,8.23,37,8.23a123.9,123.9,0,0,0,14.86-.91l.13.12L281,255.66a3.07,3.07,0,0,0,1.86.63,3.47,3.47,0,0,0,.78-.1,3.09,3.09,0,0,0,2-1.77L296.06,230l.75-.52A3.07,3.07,0,0,0,297.48,225.2Zm-15.93,23.18-9.5-7.23a43.83,43.83,0,0,0,14.56-4.63Z"/><path d="M251.66,252.29l-.87.26c-7.33,2.18-9.3,2.77-16.56-1.48a3.07,3.07,0,0,0-3.11,5.3c5,2.95,8.58,4,11.93,4,3,0,5.87-.86,9.5-1.94l.86-.25a3.07,3.07,0,1,0-1.75-5.89Z"/></svg>