<svg id="图层_1" data-name="图层 1" xmlns="http://www.w3.org/2000/svg" viewBox="0 0 500 500"><defs><style>.cls-1{fill:#fff;}</style></defs><title>画板 1 副本 64</title><path class="cls-1" d="M329.56,183.26a30.68,30.68,0,1,1-19-39A30.67,30.67,0,0,1,329.56,183.26Z"/><path d="M300.56,206.45a33.18,33.18,0,1,1,31.37-22.38A33,33,0,0,1,300.56,206.45Zm0-61.37a28.19,28.19,0,1,0,9.17,1.54A28.18,28.18,0,0,0,300.56,145.08Z"/><path d="M304.37,162.18a11.7,11.7,0,0,0-14.89,7.27,11.71,11.71,0,0,0,7.26,14.9,11.87,11.87,0,0,0,3.82.64,11.72,11.72,0,0,0,3.81-22.81Z"/><path class="cls-1" d="M228.45,180.88a30.68,30.68,0,1,1-19-39A30.68,30.68,0,0,1,228.45,180.88Z"/><path d="M199.44,204.07a33.18,33.18,0,1,1,31.37-22.38A33.22,33.22,0,0,1,199.44,204.07Zm0-61.37a28.22,28.22,0,1,0,9.18,1.55A28.18,28.18,0,0,0,199.44,142.7Z"/><path d="M210,165.75a11.66,11.66,0,0,0-6.72-5.95,11.87,11.87,0,0,0-3.82-.64A11.72,11.72,0,1,0,210,165.75Z"/></svg>