<svg id="图层_1" data-name="图层 1" xmlns="http://www.w3.org/2000/svg" viewBox="0 0 500 500"><defs><style>.cls-1{opacity:0.2;}</style></defs><title>画板 1 副本 66</title><g class="cls-1"><path d="M226,418a92,92,0,0,0-.37-10.92c-.13-1.55-.23-3-.25-4.45a77.69,77.69,0,0,1-10.7-3.3A3.52,3.52,0,0,1,214,399c-.22,8.86-1.52,26.28-8.38,39.61C219.2,434.67,225.55,429.28,226,418Z"/></g><g class="cls-1"><path d="M282.89,399.79a68.86,68.86,0,0,1-9.25,3c.25,3.54.16,8.08.36,16,.42,10.62,7.52,16,20.87,19.91-7-13.08-9.93-30.91-10.54-39.91A3.77,3.77,0,0,1,282.89,399.79Z"/></g></svg>