<svg id="图层_1" data-name="图层 1" xmlns="http://www.w3.org/2000/svg" viewBox="0 0 500 500"><defs><style>.cls-1{fill:#fff;}</style></defs><title>画板 1 副本 29</title><path class="cls-1" d="M260,248.29c57.61-8,54.92-43.17,54.92-43.17s-27.95,11.1-74,13.13c-56.2,2.48-67.4.43-67.4.43S200.9,256.5,260,248.29Z"/><path d="M316,201.61a2.53,2.53,0,0,0-2.64,0c-.19.12-19.56,12-72.43,14.53-15.56.76-29.17,1.15-40.43,1.15-20.93,0-26.75-1.35-26.79-1.36a2.51,2.51,0,0,0-2.85,3.59c.66,1.26,16.81,30.94,74.75,30.94h0c5.9,0,12.11-.32,18.47-.94C289.82,247,302.9,234.8,309.34,225A48.72,48.72,0,0,0,317.21,204,2.52,2.52,0,0,0,316,201.61ZM214.85,222.15c7-.16,14.63-.44,22.81-.81l-12.85,20.14Zm6.41,21.2a92,92,0,0,1-22.75-7.17L210.8,223Zm76.06-30.23-7.48,21.25-13.9-16.67A195.27,195.27,0,0,0,297.32,213.12Zm-29.08,5.69-9.3,21.51L245,221C253.67,220.46,261.38,219.71,268.24,218.81ZM206,222.3,196,233l-5.28-10.82c2.85.07,6.1.12,9.82.12Zm-27.44-.69c1.94.16,4.43.33,7.59.46l4.89,10A56.15,56.15,0,0,1,178.55,221.61Zm67.06,23.85a141.77,141.77,0,0,1-17.88-1.09l13.72-21.51L257.38,245C253.36,245.31,249.41,245.46,245.61,245.46Zm18-.92c-.74.08-1.46.13-2.19.19l10.88-25.15,15.24,18.28A65.05,65.05,0,0,1,263.59,244.54Zm30.79-11,7.38-21a1.93,1.93,0,0,0,.1-.82,96.05,96.05,0,0,0,9.44-3.5A46.24,46.24,0,0,1,294.38,233.55Z"/></svg>