<?xml version="1.0" encoding="utf-8"?>
<!-- Generator: Adobe Illustrator 22.0.0, SVG Export Plug-In . SVG Version: 6.00 Build 0)  -->
<svg version="1.1" id="图层_1" xmlns="http://www.w3.org/2000/svg" xmlns:xlink="http://www.w3.org/1999/xlink" x="0px" y="0px"
	 viewBox="0 0 500 500" style="enable-background:new 0 0 500 500;" xml:space="preserve">
<style type="text/css">
	.st0{opacity:0.5;}
	.st1{fill:#FFFFFF;}
	.st2{opacity:0.4;}
</style>
<title>1画板 1 副本 22</title>
<g class="st0">
	<path class="st1" d="M431.1,278.9c-7.5-16.4-16.9-32-27.8-46.4c11.6,23.4,25.8,52.7,27.5,62.3c3.5,19,4.5,30.1-0.8,45.4
		C448.4,322.1,435.8,289.2,431.1,278.9z"/>
</g>
<g class="st2">
	<path d="M227.1,407.8c-2-0.9-3.9-2-5.8-3.2c-0.9-0.6-1.7-1.2-2.4-1.8s-1.4-1.2-2-1.8c-0.8-0.8-1.4-1.5-2-2.2
		c0.2,3.3,0.4,9.6,0.2,17.6c-0.2,6.2,1.3,13.9-2.5,16.5c-13.5,9.4-45.2,11.7-55.6,11.7c-11.5,0-33.8-1-48.6-5.3
		c7,8.6,29,11.7,67,9.5c37.8-4.1,49.8-8.1,51.5-24.6c0.4-4.2,0.5-8.5,0.3-12.7C227.2,410.2,227.1,409,227.1,407.8z"/>
</g>
<g class="st2">
	<path d="M342,444.5c-10.5,0-42.2-2.3-55.6-11.7c-3.8-2.6-2.3-10.3-2.5-16.5c-0.2-7.4-0.1-13.2,0.1-16.7c-0.4,0.4-0.8,0.8-1.2,1.2
		c-0.6,0.6-1.3,1.2-2,1.8s-1.5,1.2-2.4,1.8c-1.8,1.2-3.6,2.3-5.6,3.2c0,1.2,0,2.5,0,3.8c-0.2,4.2,0,8.5,0.3,12.7
		c1.7,16.5,13.7,20.5,51.5,24.6c38.6,2.2,60.7-1.1,67.3-9.9C377.1,443.5,353.9,444.5,342,444.5z"/>
</g>
<g class="st0">
	<path class="st1" d="M130.5,280.8l-0.4,0.8c0.1,0.6,0,1.3-0.1,1.9c-9.7,55.6-7.1,127.6-7,128.4c0,0.1,0,0.1,0,0.2
		c0.5,0.6,1,1.2,1.5,1.7c-0.3-14.4,2.6-39.8,4-64.7C130.4,314.7,130.5,280.8,130.5,280.8z"/>
</g>
<g class="st2">
	<path d="M105.2,310.6c-1.7,12.5-0.1,22.8,2.2,29.9c0.5,0,1-0.1,1.5-0.2c1-19.5,3-38.9,6.2-58.2
		C111.5,284.8,107.8,290.8,105.2,310.6z"/>
</g>
<g class="st0">
	<path class="st1" d="M374.5,413.7c1-0.9,1.9-2,2.6-3.2c0.3-10,1.9-74.7-6.9-125.9c-0.5-1.3-1-2.6-1.7-3.8c0,0,0.1,33.9,2,68.2
		C371.9,373.9,374.9,399.3,374.5,413.7z"/>
</g>
<g class="st2">
	<path d="M393.8,310.6c-2.4-17.7-5.5-24.4-8.7-27.5c3,18.9,5,38,6,57.2l0.5,0.1C394.6,330.8,395.3,320.6,393.8,310.6z"/>
</g>
<g class="st0">
	<path class="st1" d="M93.6,236.7c-9.7,13.2-18,27.3-24.8,42.2c-4.5,10-16.5,41.3-0.4,59.7c-4.7-14.5-3.6-25.4-0.3-43.8
		C69.8,285.8,82.5,259.3,93.6,236.7z"/>
</g>
<g class="st0">
	<path class="st1" d="M173.6,74.3c3.1,4.8,5.5-1.1,8.9-6c2.9-4.2,10.6-6,4.5-8.8C180.6,56.5,170.3,69.2,173.6,74.3z"/>
</g>
<g class="st0">
	<path class="st1" d="M316.5,68.3c3.5,4.9,5.8,10.8,8.9,6c3.3-5.1-7-17.8-13.4-14.8C305.9,62.3,313.5,64.1,316.5,68.3z"/>
</g>
</svg>
