<svg xmlns="http://www.w3.org/2000/svg" id="图层_1" viewBox="0 0 200 200">
    <style>
        .st0{fill:#85eef9}.st1{fill:#21dbf9}.st2{fill:#aff5f9}.st3{fill:#23a7f7}
    </style>
    <path d="M12.4 96.9c0 48.3 39.2 87.5 87.5 87.5s87.5-39.2 87.5-87.5S148.2 9.4 99.9 9.4 12.4 48.6 12.4 96.9z" class="st0"/>
    <path d="M161.8 35.1L38 158.8c34.2 34.1 89.6 34.1 123.7 0 34.2-34.2 34.2-89.5.1-123.7z" class="st1"/>
    <path d="M99.8 97l4-87.6c-1.3-.1-2.6-.1-3.9-.1C71.5 9.4 46.2 23 30.3 44l69.5 53z" class="st2"/>
    <path d="M36.2 96.9c0 35.1 28.5 63.6 63.6 63.6s63.6-28.5 63.6-63.6-28.5-63.6-63.6-63.6-63.5 28.5-63.6 63.6z" class="st3"/>
    <path d="M96.3 94.7C82.2 85.4 61 86.4 42.6 90c-.5 3-.8 6.1-.8 9.2 0 32 26 57.9 57.9 57.9 32 0 57.9-26 57.9-57.9 0-1.7-.1-3.3-.2-5-21.6 7.1-46.5 10.1-61.1.5z" class="st1"/>
    <path d="M96.3 94.7C82.2 85.4 61 86.4 42.6 90c-.5 3-.8 6.1-.8 9.2 0 32 26 57.9 57.9 57.9 32 0 57.9-26 57.9-57.9 0-1.7-.1-3.3-.2-5-21.6 7.1-46.5 10.1-61.1.5z" class="st1"/>
    <circle cx="70.4" cy="100.8" r="8.1" class="st3"/>
    <circle cx="82.2" cy="115.6" r="2.9" class="st3"/>
    <circle cx="83.6" cy="143" r="2.9" class="st3"/>
    <circle cx="52.4" cy="107.7" r="2.9" class="st3"/>
    <circle cx="66.3" cy="125.2" r="6.7" class="st3"/>
</svg>
