<svg xmlns="http://www.w3.org/2000/svg" width="200" height="200" class="icon" viewBox="0 0 1024 1024">
    <path fill="#E83828" d="M512.1 64.8C265.1 64.8 64.9 265 64.9 512s200.2 447.2 447.2 447.2S959.3 759 959.3 512 759.1 64.8 512.1 64.8zm296.7 743.9c-38.5 38.5-83.4 68.8-133.4 89.9-51.7 21.9-106.7 33-163.3 33s-111.6-11.1-163.3-33c-50-21.1-94.8-51.4-133.4-89.9-38.5-38.5-68.8-83.4-89.9-133.4-21.9-51.7-33-106.7-33-163.3s11.1-111.6 33-163.3c21.1-50 51.4-94.8 89.9-133.4 38.5-38.6 83.4-68.8 133.4-89.9 51.7-22 106.6-33 163.3-33 56.7 0 111.6 11.1 163.3 33 50 21.1 94.8 51.4 133.4 89.9 38.5 38.5 68.8 83.4 89.9 133.4 21.9 51.7 33 106.7 33 163.3s-11.1 111.6-33 163.3c-21.1 50-51.4 94.8-89.9 133.4z"/>
    <path fill="#E83828" d="M706.5 318.5c-5.4-5.4-14.1-5.4-19.5 0L512.1 493.4 337.3 318.5c-5.4-5.4-14.1-5.4-19.5 0s-5.4 14.1 0 19.5l174.8 174.8-174.9 174.9c-5.4 5.4-5.4 14.1 0 19.5 2.7 2.7 6.2 4 9.8 4s7.1-1.3 9.8-4l174.8-174.8 174.8 174.8c2.7 2.7 6.2 4 9.8 4s7.1-1.3 9.8-4c5.4-5.4 5.4-14.1 0-19.5L531.6 512.9l174.8-174.8c5.4-5.4 5.4-14.2.1-19.6z"/>
</svg>
