<svg id="图层_1" data-name="图层 1" xmlns="http://www.w3.org/2000/svg" viewBox="0 0 500 500"><title>画板 1 副本 19</title><path d="M458.08,311c-.75-16.73-6.65-32-10.1-39.69-15.09-33.4-34.43-56.48-56.82-83.21l-7.46-8.91c-1.79-8.22-7.5-34.22-12.84-57.14-7-30.28-15.85-53.18-26.2-68.07C332.12,35.89,319,32.1,310.24,32.1c-16.74,0-29.89,13.31-35.5,26.5-2.1,4.95-4.41,8.2-5.91,8.36H231.17c-1.5-.16-3.81-3.41-5.91-8.36-5.61-13.19-18.75-26.5-35.5-26.5-8.78,0-21.88,3.78-34.42,21.84C145,68.83,136.18,91.73,129.14,122c-5.34,22.93-11,48.93-12.85,57.15-2.52,3-5,6-7.45,8.91C86.45,214.79,67.11,237.87,52,271.27c-3.45,7.64-9.35,23-10.1,39.69-1,21.84,7.27,38.9,23.82,49.34,7.78,4.91,21.07,8.21,33.08,8.21,1.9,0,3.73-.08,5.5-.23-.36,16.89-.18,30.59,0,38.07-7.34,5.49-18.57,16.36-16.54,30.36C89,445,94,456.14,111.17,462.37c10.24,3.73,24.28,5.53,42.94,5.53,6.84,0,14.22-.23,22.56-.7l.56-.05c17.57-1.91,33.06-3.91,44.67-9.06,14-6.22,21.9-17,23.39-32.2l0-.16c.36-4.35.45-7.77.44-10.54,1.28,0,2.6.07,3.95.08h.48c1.39,0,2.75,0,4.07-.08,0,2.77.08,6.19.44,10.54l0,.16c1.49,15.15,9.36,26,23.39,32.2,11.61,5.15,27.1,7.15,44.67,9.06l.56.05c8.34.47,15.72.7,22.56.7,18.66,0,32.71-1.8,42.94-5.52C406,456.14,411,445,412.23,436.72c2-14-9.2-24.88-16.54-30.37.17-7.48.35-21.18,0-38.07,1.77.15,3.6.23,5.5.23,12,0,25.3-3.3,33.08-8.21C450.81,349.86,459,332.8,458.08,311Z"/></svg>