<svg id="图层_1" data-name="图层 1" xmlns="http://www.w3.org/2000/svg" viewBox="0 0 500 500"><title>画板 1 副本 7</title><path d="M441.85,287.72c-13-54.3-46.84-92.93-57.6-104.14-2-9.71-7.54-36-12.66-57.5-7-29.5-15.55-51.83-25.33-66.37C333.87,41.28,320.78,37.42,312,37.42c-17.55,0-30.09,14.52-35.5,27-2.17,5-3.84,6.76-4.45,7.3-2.86-.1-10.13-.32-18.08-.32l-3.95,0-3.95,0c-8,0-15.22.22-18.08.32-.61-.54-2.28-2.33-4.45-7.3-5.4-12.44-18-27-35.49-27-8.8,0-21.9,3.86-34.29,22.28-9.78,14.55-18.3,36.88-25.33,66.38-5.1,21.43-10.64,47.78-12.66,57.5C105,194.79,71.12,233.43,58.15,287.72c-1,4-7.56,31.47,4.86,52.54,6.08,10.32,15.84,17.41,28.23,20.48a37.09,37.09,0,0,0,8.82,1,41.49,41.49,0,0,0,4.64-.26c.62,20.56,2,38.57,2.78,48-5.7,5.52-12.58,15-10.11,27.05,1.44,7,6.29,16.47,21.2,21.73,8.21,2.89,18.75,4.29,32.22,4.29a291.37,291.37,0,0,0,32.93-2.15l.66-.1c14.94-2.52,28.11-5,38.07-10.16,12.74-6.58,19.48-17.13,20-31.36,0-.07,0-.13,0-.19,0-1.5,0-2.87,0-4.12,2.43.16,4.84.26,7.22.28h.5c2.38,0,4.79-.12,7.22-.28,0,1.25,0,2.62,0,4.12v.19c.56,14.23,7.31,24.78,20,31.36,10,5.14,23.13,7.64,38.07,10.16l.66.1a291.37,291.37,0,0,0,32.93,2.15c13.47,0,24-1.4,32.22-4.29,14.91-5.26,19.76-14.71,21.2-21.72,2.47-12.07-4.41-21.54-10.11-27.06.81-9.43,2.16-27.44,2.78-48a41.49,41.49,0,0,0,4.64.26,37.09,37.09,0,0,0,8.82-1c12.39-3.07,22.15-10.16,28.23-20.48C449.42,319.19,442.88,291.68,441.85,287.72Z"/></svg>