<svg id="图层_1" data-name="图层 1" xmlns="http://www.w3.org/2000/svg" viewBox="0 0 500 500"><defs><style>.cls-1{fill:#ff007a;}.cls-2{fill:#fff;}.cls-3{fill:#f9a2c3;}.cls-4{fill:#5500a0;}</style></defs><title>画板 1 副本 12</title><path d="M441.85,287.72c-13-54.3-46.84-92.93-57.6-104.14-2-9.71-7.54-36-12.66-57.5-7-29.5-15.55-51.83-25.33-66.37C333.87,41.28,320.78,37.42,312,37.42c-17.55,0-30.09,14.52-35.5,27-2.17,5-3.84,6.76-4.45,7.3-2.86-.1-10.13-.32-18.08-.32l-3.95,0-3.95,0c-8,0-15.22.22-18.08.32-.61-.54-2.28-2.33-4.45-7.3-5.4-12.44-18-27-35.49-27-8.8,0-21.9,3.86-34.29,22.28-9.78,14.55-18.3,36.88-25.33,66.38-5.1,21.43-10.64,47.78-12.66,57.5C105,194.79,71.12,233.43,58.15,287.72c-1,4-7.56,31.47,4.86,52.54,6.08,10.32,15.84,17.41,28.23,20.48a37.09,37.09,0,0,0,8.82,1,41.49,41.49,0,0,0,4.64-.26c.62,20.56,2,38.57,2.78,48-5.7,5.52-12.58,15-10.11,27.05,1.44,7,6.29,16.47,21.2,21.73,8.21,2.89,18.75,4.29,32.22,4.29a291.37,291.37,0,0,0,32.93-2.15l.66-.1c14.94-2.52,28.11-5,38.07-10.16,12.74-6.58,19.48-17.13,20-31.36,0-.07,0-.13,0-.19,0-1.5,0-2.87,0-4.12,2.43.16,4.84.26,7.22.28h.5c2.38,0,4.79-.12,7.22-.28,0,1.25,0,2.62,0,4.12v.19c.56,14.23,7.31,24.78,20,31.36,10,5.14,23.13,7.64,38.07,10.16l.66.1a291.37,291.37,0,0,0,32.93,2.15c13.47,0,24-1.4,32.22-4.29,14.91-5.26,19.76-14.71,21.2-21.72,2.47-12.07-4.41-21.54-10.11-27.06.81-9.43,2.16-27.44,2.78-48a41.49,41.49,0,0,0,4.64.26,37.09,37.09,0,0,0,8.82-1c12.39-3.07,22.15-10.16,28.23-20.48C449.42,319.19,442.88,291.68,441.85,287.72Z"/><path class="cls-1" d="M422.91,332c9.41-15.94,3.17-40,3.1-40.23-13.07-54.93-49.93-93.29-55.55-98.89a3.05,3.05,0,0,1-.75-.69l-.29-.36a3.33,3.33,0,0,1-.69-2.59c-1.44-7-7.5-36.1-13-59.36-15.3-64.26-33.16-75.23-42.45-76.05-9.51-.85-17.95,8.27-21.78,17.08-4.92,11.31-11,16.92-18.56,17.16h-.23c-.12,0-11.53-.44-22.63-.33-11.2-.11-22.59.32-22.7.33h-.24c-7.57-.24-13.64-5.85-18.56-17.16-3.83-8.81-12.27-17.92-21.78-17.08-9.29.82-27.15,11.79-42.45,76.05-5.54,23.26-11.6,52.41-13,59.36a3.33,3.33,0,0,1-.69,2.59l-.29.36a3.05,3.05,0,0,1-.75.69c-5.62,5.61-42.48,44-55.53,98.8C73.92,292,67.68,316,77.09,332c3.86,6.54,10,10.89,18.09,12.91,3.31.82,13,1.46,18.2-4.72,0-.68,0-1.36,0-2.05a11,11,0,0,1-4.13.81,10.83,10.83,0,0,1-7.47-2.92c-3.37-3.19-4.17-8.06-2.2-13.37a3,3,0,0,1,5.63,2.09c-1.11,3-.86,5.45.7,6.93a5,5,0,0,0,5.34.86,5.18,5.18,0,0,0,2.21-1.81c.18-10.74.71-21.32,1.74-30.92a4,4,0,0,1,8,.85C118.28,346.13,125,414.08,125,414.76a4,4,0,0,1-1.81,3.76c-.1.07-10.71,7.21-9.19,14.63,2.37,11.48,26.39,15.18,67.64,10.4,30-5.06,43.19-9,43.84-25.42a90.37,90.37,0,0,0-.36-10.92c-.13-1.55-.24-3-.25-4.45a77,77,0,0,1-10.7-3.3,4,4,0,1,1,3-7.42c6.47,2.58,18.92,5.64,32.71,5.74h.29c13.76-.1,26.21-3.16,32.68-5.74a4,4,0,1,1,3,7.42,77,77,0,0,1-10.7,3.3c0,1.48-.12,2.9-.25,4.45a90.85,90.85,0,0,0-.36,11c.65,16.36,13.86,20.3,43.84,25.36,41.26,4.77,65.27,1.08,67.64-10.4,1.53-7.48-9.08-14.56-9.19-14.63a4,4,0,0,1-1.81-3.76c.06-.68,6.74-68.64,1.85-114.12a4,4,0,0,1,8-.85c1,9.6,1.56,20.18,1.74,30.91a5.2,5.2,0,0,0,2.21,1.82,5,5,0,0,0,5.34-.86c1.56-1.48,1.81-3.94.7-6.93a3,3,0,0,1,5.63-2.09c2,5.31,1.17,10.18-2.2,13.37a10.83,10.83,0,0,1-7.47,2.92,11,11,0,0,1-4.13-.81c0,.69,0,1.37,0,2.05,5.15,6.18,14.89,5.54,18.2,4.72C413,342.87,419.05,338.52,422.91,332Z"/><polygon class="cls-2" points="257.13 228.65 262.33 243.04 270.65 233.93 257.13 228.65"/><path d="M262.35,244.45l-.31,0a1.51,1.51,0,0,1-1.1-.95l-5.52-14.83a1.5,1.5,0,0,1,2.82-1l4.68,12.59,7-7.37a1.5,1.5,0,1,1,2.17,2.07l-8.67,9.1A1.49,1.49,0,0,1,262.35,244.45Z"/><path d="M227.72,237.48a3,3,0,0,1,0-5.92c12.12,0,18.33-11.26,19-17.29a3,3,0,0,1,5.81-.42c.17.67,4.43,16.49,19.8,16.63a3,3,0,0,1,0,5.92h0c-11.2-.1-18.32-6.87-22.21-13.4C246.23,230.47,238.44,237.48,227.72,237.48Z"/><path d="M279.68,161.8c-1.92,2.35-4.42,10.9-4.64,14.12-.25,3.7,2.22,11.05,3.18,14.57s3.92,10.31,6.69,12.53c4.43,3.54,16.21,5.84,21.87,5.9,5.27.07,15.61-4.81,15.61-4.81S331.69,192,333,186.88a25.33,25.33,0,0,0-5.31-23.18c-4.55-5.09-19.33-13.33-26.11-12.43C295.14,152.12,282.42,158.45,279.68,161.8Z"/><path d="M306.89,213.8h-.17c-5.53-.06-18.94-2.24-24.86-7-4.14-3.32-7.42-11.59-8.36-15.07-.17-.63-.4-1.42-.65-2.29-1.61-5.48-2.92-10.32-2.68-13.89s2.89-13.4,5.74-16.87c3.69-4.52,17.51-11.29,25-12.28a12.22,12.22,0,0,1,1.74-.11c8.84,0,23.66,8.54,28.65,14.12a30.33,30.33,0,0,1,6.39,27.68c-1.5,5.72-9.82,16.79-11.47,18.95a4.8,4.8,0,0,1-1.8,1.45C322.6,209.41,313,213.8,306.89,213.8Zm-4.19-57.72-.46,0c-5.9.78-17.14,6.79-18.78,8.79-1.11,1.46-3.37,8.69-3.55,11.36-.15,2.12,1.45,7.56,2.3,10.48.28.94.53,1.78.72,2.48.93,3.49,3.66,8.91,5,10,3,2.41,13.18,4.77,18.87,4.83h.05c2.64,0,8.45-2.11,12.35-3.85,4-5.36,8.43-12.15,9.06-14.55A20.44,20.44,0,0,0,324.07,167C320.33,162.75,308,156.08,302.7,156.08Z"/><path class="cls-2" d="M297.67,161.35c-.28,1.61-.72,5.25-.35,7,.42,1.95,2.55,5.45,3.57,7.14s3.55,4.74,5.31,5.48c2.81,1.17,9.25.62,12.19-.19,2.73-.75,7.36-4.8,7.36-4.8s3-7.67,2.94-10.49c-.12-5.52-6.57-8.83-9.44-10.64-3.1-2-9.67-4.58-13-3.11C303,153.09,298.25,157.89,297.67,161.35Z"/><path class="cls-2" d="M281.36,189.49a8.54,8.54,0,0,0-.69,2,9.64,9.64,0,0,0,.45,2.43,5,5,0,0,0,1.12,2.09,7.78,7.78,0,0,0,3.65,1,8.85,8.85,0,0,0,2.61-.8,14.32,14.32,0,0,0,1.77-2.88,6.57,6.57,0,0,0-1.12-4.87c-.76-.85-3.28-1.31-4.41-1.16A5.36,5.36,0,0,0,281.36,189.49Z"/><polygon class="cls-2" points="288.97 157.08 290.58 160.35 294.19 161.57 290.83 162.82 289.06 166.78 287.49 162.86 283.75 161.34 287.36 160.35 288.97 157.08"/><path d="M337,165.35c-16.08,0-30.74-8.41-41.46-23.88a4.24,4.24,0,0,1,7-4.83c6.7,9.66,18.44,21,36.22,20.19a4.24,4.24,0,0,1,.39,8.47C338.36,165.34,337.65,165.35,337,165.35Z"/><path d="M171.64,167a45.55,45.55,0,0,0-3.23,12.23c-.26,3.7,1.75,7.76,2.71,11.28S175,200.8,177.82,203c4.42,3.54,16.2,5.84,21.86,5.9,5.27.07,15.61-4.81,15.61-4.81s9.3-12.16,10.63-17.23c2.61-9.93-5.61-23.67-7.66-26-3.36-3.82-15.57-11-22.34-10.08C189.45,151.65,174.46,161.1,171.64,167Z"/><path d="M199.79,213.8h-.17c-5.53-.06-18.94-2.24-24.85-7-4.15-3.32-7.43-11.59-8.37-15.07-.23-.85-.56-1.83-.91-2.85-1-3-2.2-6.42-2-10a50.47,50.47,0,0,1,3.69-14c3.61-7.53,20-17.86,28.05-18.93a14.11,14.11,0,0,1,1.87-.12c8.93,0,21.12,7.65,24.77,11.82,2.84,3.23,11.88,18.45,8.72,30.47-1.5,5.72-9.82,16.79-11.47,18.95a4.85,4.85,0,0,1-1.79,1.45C215.51,209.41,205.87,213.8,199.79,213.8Zm-2.64-58.21a5,5,0,0,0-.59,0c-5.34.71-18.57,9.39-20.52,13.46a41.54,41.54,0,0,0-2.76,10.46c-.12,1.65.68,4,1.44,6.19.39,1.14.79,2.3,1.11,3.48.93,3.48,3.67,8.89,5,10,3,2.41,13.18,4.77,18.87,4.83h0c2.63,0,8.44-2.11,12.35-3.86,4-5.36,8.43-12.15,9.06-14.54,1.93-7.32-4.74-19.42-6.61-21.55C212.2,161.36,202.41,155.59,197.15,155.59Z"/><path class="cls-2" d="M191.51,161.35c-.27,1.61-.71,5.25-.34,7,.41,1.95,2.54,5.45,3.56,7.14s3.55,4.74,5.31,5.48c2.82,1.17,9.25.62,12.19-.19,2.73-.75,7.36-4.8,7.36-4.8s3-5.31,2.94-8.13c-.11-5.52-6.1-9.31-9-11.12-3.11-2-10.14-6.46-13.52-5C196.83,153.09,192.1,157.89,191.51,161.35Z"/><path class="cls-2" d="M174.27,189.49a7.77,7.77,0,0,0-.7,2A9.64,9.64,0,0,0,174,194a5.16,5.16,0,0,0,1.12,2.09,7.78,7.78,0,0,0,3.65,1,8.85,8.85,0,0,0,2.61-.8,14.73,14.73,0,0,0,1.78-2.88,6.62,6.62,0,0,0-1.13-4.87c-.76-.85-3.28-1.31-4.41-1.16A5.31,5.31,0,0,0,174.27,189.49Z"/><polygon class="cls-2" points="182.34 159.91 183.95 163.18 187.56 164.4 184.21 165.65 182.43 169.6 180.86 165.69 177.13 164.17 180.73 163.18 182.34 159.91"/><path d="M161.71,165.1h-.65a4.24,4.24,0,1,1,.13-8.48c13.35.2,28.4-7.75,36.6-19.36a4.24,4.24,0,0,1,6.93,4.9C195,155.94,177.77,165.1,161.71,165.1Z"/><path class="cls-3" d="M328.9,219.42c0-5.59,4-10.15,9-10.21l30.55-.26c5,0,9.14,4.45,9.18,10h0c0,5.59-4,10.15-9,10.2l-30.55.26c-5,0-9.14-4.45-9.18-10Z"/><line x1="341.82" y1="222.01" x2="345.83" y2="214.35"/><path d="M341.82,223.25a1.21,1.21,0,0,1-.58-.14,1.24,1.24,0,0,1-.52-1.67l4-7.66a1.24,1.24,0,0,1,2.19,1.15l-4,7.66A1.23,1.23,0,0,1,341.82,223.25Z"/><line x1="350.71" y1="223.64" x2="354.9" y2="215.63"/><path d="M350.71,224.88a1.17,1.17,0,0,1-.57-.14,1.24,1.24,0,0,1-.53-1.67l4.19-8a1.24,1.24,0,0,1,2.2,1.15l-4.19,8A1.24,1.24,0,0,1,350.71,224.88Z"/><line x1="359.25" y1="223.57" x2="362.51" y2="217.31"/><path d="M359.25,224.8a1.21,1.21,0,0,1-.58-.14,1.24,1.24,0,0,1-.52-1.67l3.27-6.25a1.24,1.24,0,0,1,2.19,1.15l-3.27,6.25A1.23,1.23,0,0,1,359.25,224.8Z"/><path class="cls-3" d="M171.17,219.42c0-5.59-4-10.15-9-10.21L131.58,209c-5,0-9.14,4.45-9.18,10h0c0,5.59,4,10.15,9,10.2l30.55.26c5,0,9.14-4.45,9.18-10Z"/><line x1="158.25" y1="222.01" x2="154.24" y2="214.35"/><path d="M158.25,223.25a1.23,1.23,0,0,1-1.09-.66l-4-7.66a1.24,1.24,0,1,1,2.19-1.15l4,7.66a1.24,1.24,0,0,1-.52,1.67A1.18,1.18,0,0,1,158.25,223.25Z"/><line x1="149.36" y1="223.64" x2="145.17" y2="215.63"/><path d="M149.36,224.88a1.24,1.24,0,0,1-1.1-.66l-4.19-8a1.24,1.24,0,0,1,2.2-1.15l4.19,8a1.24,1.24,0,0,1-.53,1.67A1.17,1.17,0,0,1,149.36,224.88Z"/><line x1="140.82" y1="223.57" x2="137.56" y2="217.31"/><path d="M140.83,224.8a1.24,1.24,0,0,1-1.1-.66l-3.27-6.25a1.24,1.24,0,0,1,2.2-1.15l3.26,6.25a1.24,1.24,0,0,1-.52,1.67A1.2,1.2,0,0,1,140.83,224.8Z"/><path class="cls-4" d="M198.19,90.44c23.66,0,29.33,36.81,51.81,36.81s28.15-36.81,51.81-36.81,29.34,36.81,51.82,36.81c.48,0,.95,0,1.41-.07-15.15-61.88-32.64-72.56-41.8-73.37-9.51-.85-17.95,8.27-21.78,17.08-4.92,11.31-11,16.92-18.56,17.16h-.23c-.12,0-11.53-.44-22.63-.33-11.2-.11-22.59.32-22.7.33h-.24c-7.57-.24-13.64-5.85-18.56-17.16-3.83-8.81-12.27-17.92-21.78-17.08-9.16.81-26.65,11.49-41.81,73.37.47,0,.94.07,1.42.07C168.85,127.25,174.52,90.44,198.19,90.44Z"/><path class="cls-4" d="M403.87,237.18l-.7-1.22-1.35-2.26-.49-.81c-.92-1.51-1.85-3-2.77-4.43-.11-.17-.21-.34-.32-.5s-.35-.57-.53-.84h0c-2.06-3.17-4.1-6.17-6.09-8.95-23.67,0-17.43,69.63-39.91,69.63S325.55,250,301.88,250s-29.33,42.81-51.81,42.81l0,0,0,0c-22.48,0-28.15-42.81-51.81-42.81s-27.34,37.81-49.82,37.81-16.24-69.62-39.91-69.63c-2,2.78-4,5.78-6.09,8.95h0c-.18.27-.36.56-.53.84s-.21.33-.32.5q-1.38,2.16-2.77,4.43l-.49.81L96.9,236l-.7,1.22a217.79,217.79,0,0,0-12.26,24.46c14.59-11.95,33.06,23.66,31.6,36.94h0a4,4,0,0,1,7.62,2.05c-.11,1-.2,1.93-.3,2.9,0,.17,0,.33,0,.49-.09,1-.17,1.9-.25,2.87a1.36,1.36,0,0,0,0,.2h0c-3.19,39.21,1,90.94,2.16,104.37,6,8.54,12.39,15.81,21.65,15.81,22.48,0,28.15-42.82,51.82-42.82,6.36,0,11.43,3.11,15.86,7.63a4,4,0,0,1,3.11,0c6.47,2.58,18.92,5.64,32.71,5.74h.33c13.79-.1,26.24-3.16,32.71-5.74a4,4,0,0,1,3.11,0c4.44-4.52,9.5-7.63,15.86-7.63,23.67,0,29.34,42.82,51.82,42.82,9.26,0,15.66-7.27,21.65-15.81,1.2-13.43,5.35-65.16,2.16-104.37h0a1.36,1.36,0,0,0,0-.2c-.08-1-.16-1.92-.25-2.87,0-.16,0-.32,0-.49-.1-1-.19-1.94-.3-2.9a4,4,0,0,1,7.62-2.05h0c-1.46-13.28,17-48.89,31.6-36.94A217.79,217.79,0,0,0,403.87,237.18Z"/></svg>