<svg id="图层_1" data-name="图层 1" xmlns="http://www.w3.org/2000/svg" viewBox="0 0 500 500"><defs><style>.cls-1{fill:#f9a2c3;}.cls-2{fill:#fff;}</style></defs><title>画板 1 副本 16</title><path d="M338.68,163.53c-17.8.83-29.52-10.53-36.22-20.19a4.24,4.24,0,0,0-7,4.83,68.09,68.09,0,0,0,4.74,6.07c-7.68,1.31-20.75,7.8-24.32,12.17-2.85,3.47-5.5,13.29-5.74,16.88s1.07,8.4,2.68,13.89c.25.87.48,1.65.65,2.28.94,3.49,4.22,11.75,8.36,15.07,5.91,4.74,19.33,6.91,24.86,7h.17c6.08,0,15.71-4.4,17.58-5.28a4.9,4.9,0,0,0,1.8-1.45c1.65-2.17,10-13.24,11.47-19A30.44,30.44,0,0,0,334.19,172c.91.06,1.83.1,2.76.1.7,0,1.41,0,2.12-.05a4.24,4.24,0,0,0-.39-8.48Z"/><path d="M221.92,165.35c-3.1-3.53-12.35-9.57-20.54-11.31a51.09,51.09,0,0,0,3.34-4.19,4.24,4.24,0,1,0-6.93-4.89c-8.2,11.6-23.24,19.55-36.6,19.35a4.24,4.24,0,1,0-.13,8.48h.65a44.31,44.31,0,0,0,5.61-.38l-.09.16a50.47,50.47,0,0,0-3.69,14c-.25,3.62.92,7,2,10,.35,1,.68,2,.91,2.85.94,3.48,4.22,11.75,8.37,15.07,5.91,4.74,19.32,6.91,24.86,7h.16c6.08,0,15.72-4.4,17.59-5.28a4.88,4.88,0,0,0,1.79-1.46c1.65-2.16,10-13.23,11.47-19C233.8,183.79,224.76,168.58,221.92,165.35Z"/><path class="cls-1" d="M328.9,227.12c0-5.59,4-10.15,9-10.2l30.55-.27c5,0,9.14,4.45,9.18,10h0c0,5.59-4,10.15-9,10.2l-30.55.26c-5,0-9.14-4.45-9.18-10Z"/><path d="M346.4,221a1.24,1.24,0,0,0-1.67.52l-4,7.66a1.24,1.24,0,0,0,.52,1.67,1.21,1.21,0,0,0,.58.14,1.23,1.23,0,0,0,1.09-.66l4-7.66A1.23,1.23,0,0,0,346.4,221Z"/><path d="M355.47,222.24a1.23,1.23,0,0,0-1.67.52l-4.19,8a1.24,1.24,0,0,0,.53,1.67,1.17,1.17,0,0,0,.57.14,1.24,1.24,0,0,0,1.1-.66l4.19-8A1.24,1.24,0,0,0,355.47,222.24Z"/><path d="M363.09,223.92a1.24,1.24,0,0,0-1.67.52l-3.27,6.26a1.24,1.24,0,0,0,.52,1.67,1.34,1.34,0,0,0,.58.14,1.24,1.24,0,0,0,1.09-.67l3.27-6.25A1.24,1.24,0,0,0,363.09,223.92Z"/><path class="cls-1" d="M170.11,224.38c0,5.47-4,9.91-8.91,9.92l-29.93,0c-4.93,0-8.93-4.43-8.94-9.89h0c0-5.48,4-9.92,8.91-9.92l29.94-.05c4.93,0,8.92,4.42,8.93,9.9Z"/><path d="M158,220.67a1.21,1.21,0,0,0-1.64.51l-4,7.47a1.21,1.21,0,0,0,.51,1.64,1.15,1.15,0,0,0,.56.15,1.23,1.23,0,0,0,1.08-.65l4-7.48A1.21,1.21,0,0,0,158,220.67Z"/><path d="M149.34,219a1.22,1.22,0,0,0-1.64.5l-4.15,7.81a1.22,1.22,0,0,0,.5,1.64,1.17,1.17,0,0,0,.57.14,1.21,1.21,0,0,0,1.07-.64l4.15-7.81A1.21,1.21,0,0,0,149.34,219Z"/><path d="M141,219a1.22,1.22,0,0,0-1.64.5l-3.23,6.11a1.22,1.22,0,0,0,.51,1.64,1.25,1.25,0,0,0,.56.14,1.23,1.23,0,0,0,1.08-.65l3.22-6.1A1.21,1.21,0,0,0,141,219Z"/><path class="cls-2" d="M297.67,169.05c-.28,1.61-.72,5.25-.35,6.95.42,1.95,2.55,5.46,3.57,7.14s3.55,4.75,5.31,5.48c2.81,1.17,9.25.62,12.19-.19,2.73-.74,7.36-4.8,7.36-4.8s3-7.67,2.94-10.48a6.71,6.71,0,0,0-.31-1.92,48,48,0,0,1-22.76-11.56C302.45,161.35,298.22,165.79,297.67,169.05Z"/><path class="cls-2" d="M284.74,195a5.37,5.37,0,0,0-3.38,2.16,8.32,8.32,0,0,0-.69,2,9.56,9.56,0,0,0,.45,2.43,5,5,0,0,0,1.12,2.09,7.78,7.78,0,0,0,3.65,1,8.85,8.85,0,0,0,2.61-.8,14.32,14.32,0,0,0,1.77-2.88,6.57,6.57,0,0,0-1.12-4.87C288.39,195.35,285.87,194.89,284.74,195Z"/><polygon class="cls-2" points="288.97 164.78 287.36 168.06 283.75 169.04 287.49 170.56 289.06 174.48 290.83 170.52 294.19 169.27 290.58 168.06 288.97 164.78"/><path class="cls-2" d="M191.51,169.05c-.27,1.61-.71,5.25-.34,6.95.41,1.95,2.54,5.46,3.56,7.14s3.55,4.75,5.31,5.48c2.82,1.17,9.25.62,12.19-.19,2.73-.74,7.36-4.8,7.36-4.8s3-5.31,2.94-8.13c-.11-5.52-6.1-9.3-9-11.11-3.11-2-10.14-6.46-13.52-5C196.83,160.79,192.1,165.59,191.51,169.05Z"/><path class="cls-2" d="M174.27,197.2a7.58,7.58,0,0,0-.7,2,9.56,9.56,0,0,0,.45,2.43,5.16,5.16,0,0,0,1.12,2.09,7.78,7.78,0,0,0,3.65,1,8.85,8.85,0,0,0,2.61-.8,14.73,14.73,0,0,0,1.78-2.88,6.62,6.62,0,0,0-1.13-4.87c-.76-.85-3.28-1.31-4.41-1.16A5.32,5.32,0,0,0,174.27,197.2Z"/><polygon class="cls-2" points="182.34 167.61 183.95 170.88 187.56 172.1 184.21 173.35 182.43 177.31 180.86 173.39 177.13 171.87 180.73 170.88 182.34 167.61"/></svg>