<svg id="图层_1" data-name="图层 1" xmlns="http://www.w3.org/2000/svg" viewBox="0 0 500 500"><defs><style>.cls-1{fill:#2b2929;}.cls-2{fill:#231815;}.cls-3{fill:#fff;}</style></defs><title>画板 1 副本 58</title><path class="cls-1" d="M342.3,157.84c-1.66-1-3.27-2.21-4.82-3.35-1.81-1.33-4.29-3.15-5.16-3.27l-.27-.05c-5.05-1.28-12.14-1.8-24.5-1.8h-4.17c-10.17.08-18,.68-23.93,1.81-2.23,1.08-15.42,7.15-28.5,7.26h-.34c-12.67,0-26.07-5.8-28.3-6.81-6.06-1.06-14-1.52-24.43-1.46l-5.78,0c-11,0-20.47.08-25.9,1.52l-.26,0c-.76.12-2.3,1.38-3.67,2.49a32.07,32.07,0,0,1-7,4.7,41.66,41.66,0,0,1-8.49,2.64l-.46.1a56.78,56.78,0,0,0,.54,8.63,13.27,13.27,0,0,1,5.85,5.89c2.2,4.48,3.4,10.6,4,13.54.11.55.19.95.24,1.17s.08.24.11.36l0,.08.06.16c5,14.95,20.33,24.13,40,23.84,22.48-.34,41-13.67,43-31a1.69,1.69,0,0,1,.08-.39c1.87-6.43,5.77-10.07,11-10.26a.24.24,0,0,1,.12,0c5.22.07,9.21,3.62,11.23,10a2.74,2.74,0,0,1,.09.39c2.5,17.45,21,31.12,42.19,31.12h.78c18.28-.28,33.61-10.73,38.15-26l.06-.17a.83.83,0,0,1,0-.15c0-.09.05-.19.08-.29s.06-.37.1-.68c.33-2.08,1-6.41,2.89-9.77a17.25,17.25,0,0,1,6.76-6.53,54.27,54.27,0,0,0-.74-8.54A65.17,65.17,0,0,1,342.3,157.84ZM198.46,208.51c-.74,0-1.47,0-2.19,0h-.36c-.66,0-1.32,0-2-.08h-.16c-13.57-.81-24.71-6.09-28.67-16.25l-.09-.25c-.14-.38-.28-.77-.4-1.17-.05-.15-.09-.29-.13-.44-.1-.34-.19-.69-.27-1,0-.18-.09-.37-.13-.55s-.13-.67-.18-1-.07-.4-.1-.6c-.05-.35-.08-.71-.12-1.07,0-.2,0-.39-.05-.58,0-.55-.07-1.12-.08-1.69s0-1.25,0-1.86h0c.07-14.69,3.32-23.23,27.85-24.65h0l2-.1,1.16,0,.94,0c.76,0,1.54,0,2.35,0h3.51q1.14,0,2.22,0l1.11,0,1.45,0,1.65.08.71,0,2.05.13.4,0h0c18.38,1.49,21,7.26,21.42,17.39a.37.37,0,0,0,0,.11h0c.09,2.12.09,4.44.12,7C232.74,198.84,217.48,208.23,198.46,208.51Zm107.61-1h0l-1.53,0c-14.67.2-27.26-5.26-32.08-15.83a1.6,1.6,0,0,1-.1-.23c-.17-.37-.33-.75-.47-1.13l-.15-.43c-.12-.33-.23-.66-.33-1-.06-.17-.11-.35-.16-.53s-.17-.63-.24-1-.09-.39-.13-.59-.12-.64-.18-1-.07-.4-.1-.61l-.12-1.06c0-.19,0-.37-.05-.56,0-.55-.07-1.1-.08-1.67-.21-16.52-1.65-24.66,31.24-25.3l2.23,0c1.08,0,2.13,0,3.14,0h.1c17.8.26,25.3,4.11,28.44,11.13l0,0c.13.31.25.63.37,1,1.42,3.72,1.77,8.25,1.85,13.55C338,198.57,323.91,206.77,306.07,207.46Z"/><path d="M357.65,161.68l-.1-.69a2.43,2.43,0,0,0-1.58-1.94,61.05,61.05,0,0,1-11.11-5.33c-1.5-.93-3-2.05-4.51-3.14-2.88-2.11-5.17-3.8-7.22-4.14-5.46-1.36-12.88-1.92-25.58-1.92-1.36,0-2.76,0-4.21,0-10.55.08-18.72.71-25,1.92a2.51,2.51,0,0,0-.84.27c-1,.47-14.15,6.77-26.63,6.87h-.3c-12.49,0-26.41-6.44-26.55-6.5a2.31,2.31,0,0,0-.68-.2c-6.38-1.14-14.69-1.65-25.53-1.57l-5.77,0c-11.71,0-21,.09-27,1.65-2,.36-3.8,1.82-5.86,3.5a28.1,28.1,0,0,1-5.94,4,35.39,35.39,0,0,1-7.53,2.32,19.34,19.34,0,0,0-2.41.63,2.4,2.4,0,0,0-1.46,1.54c-1,3.22.13,11.66.37,13.32a2.43,2.43,0,0,0,1.65,2,8.43,8.43,0,0,1,4.47,4c1.91,3.9,3,9.59,3.56,12.33.18.91.27,1.33.36,1.63l.06.22.12.42a2.74,2.74,0,0,0,.15.4c5.68,16.58,22.33,26.87,43.55,26.87h1c24.81-.38,45.29-15.44,47.75-35.07,1.27-4.23,3.42-6.45,6.41-6.59,3,.08,5.17,2.24,6.55,6.44,2.95,19.68,23.53,35.06,47,35.06h.86c20.27-.32,37.34-12,42.61-29.12a2.37,2.37,0,0,0,.18-.53s0-.13.07-.3l0-.07.05-.17c.05-.2.13-.62.22-1.2.28-1.8.86-5.55,2.32-8.15a12.56,12.56,0,0,1,5.52-5A2.42,2.42,0,0,0,358.2,174C359,171.39,358.37,166.68,357.65,161.68Zm-1.78,11.61a14.78,14.78,0,0,0-6.83,6.07c-2.08,3.69-2.55,9.08-2.77,9.92a1.05,1.05,0,0,0-.06.24c-.07.26-.11.43-.11.43l0,0c-4.6,15.46-20.12,27.41-40.43,27.72-22.52.36-42.66-14-45.41-33.18-1.13-3.57-3.64-8.23-9-8.31-5.32.19-7.72,4.92-8.77,8.51-2.28,19.29-22.43,32.79-45.4,33.15-20.88.32-37.1-9.85-42.31-25.5h0s-.05-.15-.12-.42a1.83,1.83,0,0,0-.08-.25c-.3-1-1.48-9.09-4.07-14.35a10.72,10.72,0,0,0-5.89-5.29s-1.36-9.38-.46-12.24c1.44-.54,5.55-1,10.09-3,5.07-2.3,8.49-7,11.31-7.37,6.67-1.77,18.43-1.53,32.29-1.64,10.77-.08,18.95.43,25.15,1.54h0s14.61,6.84,27.9,6.73c13.64-.11,27.75-7.16,27.75-7.16h0c6.08-1.2,14.11-1.83,24.67-1.91,13.49-.1,22.81.22,29.28,1.86,2.36.31,6.67,4.32,10.94,7a63.78,63.78,0,0,0,11.57,5.54C355.61,164.56,356.59,170.83,355.87,173.29Z"/><path d="M343.58,155.79c-4.27-2.65-8.58-6.66-10.94-7-6.47-1.64-15.79-2-29.28-1.86-10.56.08-18.59.71-24.67,1.91h0s-14.11,7-27.75,7.16c-13.29.11-27.9-6.73-27.9-6.73h0c-6.2-1.11-14.38-1.62-25.15-1.54-13.86.11-25.62-.13-32.29,1.64-2.82.42-6.24,5.07-11.31,7.37-4.54,2-8.65,2.47-10.09,3-.9,2.86.46,12.24.46,12.24a10.72,10.72,0,0,1,5.89,5.29c2.59,5.26,3.77,13.33,4.07,14.35a1.83,1.83,0,0,1,.08.25c.07.27.12.42.12.42h0c5.21,15.65,21.43,25.82,42.31,25.5,23-.36,43.12-13.86,45.4-33.15,1-3.59,3.45-8.32,8.77-8.51,5.31.08,7.82,4.74,9,8.31,2.75,19.17,22.89,33.54,45.41,33.18,20.31-.31,35.83-12.26,40.43-27.72l0,0s0-.17.11-.43a1.05,1.05,0,0,1,.06-.24c.22-.84.69-6.23,2.77-9.92a14.78,14.78,0,0,1,6.83-6.07c.72-2.46-.26-8.73-.72-12A63.78,63.78,0,0,1,343.58,155.79Zm10.11,15.85a17.25,17.25,0,0,0-6.76,6.53c-1.89,3.36-2.56,7.69-2.89,9.77,0,.31-.08.55-.1.68s-.06.2-.08.29a.83.83,0,0,0,0,.15l-.06.17c-4.54,15.27-19.87,25.72-38.15,26h-.78c-21.16,0-39.69-13.67-42.19-31.12a2.74,2.74,0,0,0-.09-.39c-2-6.37-6-9.92-11.23-10a.24.24,0,0,0-.12,0c-5.23.19-9.13,3.83-11,10.26a1.69,1.69,0,0,0-.08.39c-2.05,17.33-20.55,30.66-43,31-19.65.29-35-8.89-40-23.84l-.06-.16,0-.08c0-.12-.07-.24-.11-.36s-.13-.62-.24-1.17c-.57-2.94-1.77-9.06-4-13.54a13.27,13.27,0,0,0-5.85-5.89,56.78,56.78,0,0,1-.54-8.63l.46-.1a41.66,41.66,0,0,0,8.49-2.64,32.07,32.07,0,0,0,7-4.7c1.37-1.11,2.91-2.37,3.67-2.49l.26,0c5.43-1.44,14.91-1.48,25.9-1.52l5.78,0c10.4-.06,18.37.4,24.43,1.46,2.23,1,15.63,6.82,28.3,6.81H251c13.08-.11,26.27-6.18,28.5-7.26,5.92-1.13,13.76-1.73,23.93-1.81h4.17c12.36,0,19.45.52,24.5,1.8l.27.05c.87.12,3.35,1.94,5.16,3.27,1.55,1.14,3.16,2.32,4.82,3.35A65.17,65.17,0,0,0,353,163.1,54.27,54.27,0,0,1,353.69,171.64Z"/><path d="M163.56,181.88l27.85-24.65C166.88,158.65,163.63,167.19,163.56,181.88Z"/><path class="cls-2" d="M191.43,157.23l2-.1Z"/><path d="M230.54,166.46a29.85,29.85,0,0,1,1.87,8.34c-.44-10.13-3-15.9-21.42-17.39l-43.73,38.84a21.88,21.88,0,0,1-2.15-4.1c4,10.16,15.1,15.44,28.67,16.25-1.49-.09-2.95-.23-4.38-.43Z"/><path d="M198.71,208.5h-.25c19-.28,34.28-9.67,34.07-26.64,0-2.51,0-4.83-.12-7Z"/><path class="cls-2" d="M200.68,157h0Z"/><path class="cls-2" d="M163.64,185.44c0-.55-.07-1.12-.08-1.69C163.57,184.32,163.6,184.89,163.64,185.44Z"/><path class="cls-2" d="M164.09,188.7c-.07-.33-.13-.67-.18-1C164,188,164,188.37,164.09,188.7Z"/><path class="cls-2" d="M164.49,190.29c-.1-.34-.19-.69-.27-1C164.3,189.6,164.39,190,164.49,190.29Z"/><path class="cls-2" d="M198.46,208.51c-.74,0-1.47,0-2.19,0C197,208.51,197.72,208.52,198.46,208.51Z"/><path class="cls-2" d="M163.81,187.09c-.05-.35-.08-.71-.12-1.07C163.73,186.38,163.76,186.74,163.81,187.09Z"/><path class="cls-2" d="M206.18,157.12l1.65.08Z"/><path class="cls-2" d="M203.62,157.05l1.11,0Z"/><path class="cls-2" d="M195.91,208.49c-.66,0-1.32,0-2-.08C194.59,208.45,195.25,208.47,195.91,208.49Z"/><path class="cls-2" d="M165,191.9c-.14-.38-.28-.77-.4-1.17C164.74,191.13,164.88,191.52,165,191.9Z"/><path class="cls-2" d="M208.54,157.24l2.05.13Z"/><path class="cls-2" d="M194.6,157.08l.94,0Z"/><path class="cls-2" d="M272.35,191.45c-.17-.37-.33-.75-.47-1.13C272,190.7,272.18,191.08,272.35,191.45Z"/><path class="cls-2" d="M271.24,188.36c-.09-.31-.17-.63-.24-1C271.07,187.73,271.16,188.05,271.24,188.36Z"/><path class="cls-2" d="M303.81,156.61H307C305.94,156.61,304.89,156.6,303.81,156.61Z"/><path d="M296.22,156.84c1.68-.08,3.46-.15,5.36-.19-32.89.64-31.45,8.78-31.24,25.3,0-.62,0-1.23,0-1.84Z"/><path d="M337.27,175.11l-31.2,32.35c17.84-.69,31.91-8.89,31.66-25.2-.08-5.3-.43-9.83-1.85-13.55A33.16,33.16,0,0,1,337.27,175.11Z"/><path class="cls-2" d="M270.42,183.62c0-.55-.07-1.1-.08-1.67C270.35,182.52,270.38,183.07,270.42,183.62Z"/><path class="cls-2" d="M271.73,189.89c-.12-.33-.23-.66-.33-1C271.5,189.23,271.61,189.56,271.73,189.89Z"/><path d="M335.49,167.76c-3.14-7-10.64-10.87-28.44-11.13,3,.05,5.76.2,8.23.45l-41.37,37.29a20.52,20.52,0,0,1-1.46-2.69c4.82,10.57,17.41,16,32.08,15.83a55.09,55.09,0,0,1-7-.35Z"/><path class="cls-2" d="M270.59,185.24l-.12-1.06Z"/><path class="cls-2" d="M270.87,186.82c-.07-.32-.12-.64-.18-1C270.75,186.18,270.8,186.5,270.87,186.82Z"/><path class="cls-3" d="M197.89,157h0Z"/><path class="cls-3" d="M163.69,186c0-.2,0-.39-.05-.58C163.65,185.63,163.67,185.82,163.69,186Z"/><path class="cls-3" d="M163.91,187.69c0-.2-.07-.4-.1-.6C163.84,187.29,163.88,187.49,163.91,187.69Z"/><path class="cls-3" d="M195.54,157.06c.77,0,1.54,0,2.35,0C197.08,157,196.3,157,195.54,157.06Z"/><path class="cls-3" d="M164.62,190.73c-.05-.15-.09-.29-.13-.44C164.53,190.44,164.57,190.58,164.62,190.73Z"/><path class="cls-3" d="M164.22,189.25c0-.18-.09-.37-.13-.55C164.13,188.88,164.18,189.07,164.22,189.25Z"/><path class="cls-3" d="M165.11,192.15l-.09-.25Z"/><path class="cls-3" d="M191.41,157.23Z"/><path class="cls-3" d="M193.44,157.13l1.16,0Z"/><path class="cls-3" d="M163.56,181.88h0c0,.61,0,1.23,0,1.86Z"/><path class="cls-3" d="M201.4,157q1.14,0,2.22,0Q202.54,157,201.4,157Z"/><path class="cls-3" d="M211,157.4l-.4,0,.4,0Z"/><path class="cls-3" d="M207.83,157.2l.71,0Z"/><path class="cls-3" d="M204.73,157.08l1.45,0Z"/><path class="cls-3" d="M211,157.41l-.4,0-2.05-.13-.71,0-1.65-.08-1.45,0-1.11,0q-1.08,0-2.22,0h-3.51c-.81,0-1.58,0-2.35,0l-.94,0-1.16,0-2,.1h0l-27.85,24.65v1.87c0,.57,0,1.14.08,1.69,0,.19,0,.38.05.58,0,.36.07.72.12,1.07,0,.2.07.4.1.6s.11.68.18,1,.09.37.13.55c.08.35.17.7.27,1,0,.15.08.29.13.44.12.4.26.79.4,1.17l.09.25a21.88,21.88,0,0,0,2.15,4.1Z"/><path class="cls-3" d="M271.4,188.89c-.06-.17-.11-.35-.16-.53C271.29,188.54,271.34,188.72,271.4,188.89Z"/><path class="cls-3" d="M271.88,190.32l-.15-.43Z"/><path class="cls-3" d="M270.47,184.18c0-.19,0-.37-.05-.56C270.43,183.81,270.46,184,270.47,184.18Z"/><path class="cls-3" d="M270.69,185.85c0-.2-.07-.4-.1-.61C270.62,185.45,270.66,185.65,270.69,185.85Z"/><path class="cls-3" d="M271,187.41c-.05-.2-.09-.39-.13-.59C270.91,187,271,187.21,271,187.41Z"/><path class="cls-3" d="M301.58,156.65l2.23,0Z"/><path class="cls-3" d="M272.45,191.68a1.6,1.6,0,0,1-.1-.23A1.6,1.6,0,0,0,272.45,191.68Z"/><path class="cls-3" d="M307,156.62h0Z"/><path class="cls-3" d="M315.28,157.08c-2.47-.25-5.2-.4-8.23-.45h-3.24l-2.23,0c-1.9,0-3.68.11-5.36.19l-25.9,23.27c0,.61,0,1.22,0,1.84s0,1.12.08,1.67c0,.19,0,.37.05.56l.12,1.06c0,.21.07.41.1.61s.11.65.18,1,.08.39.13.59.15.64.24,1,.1.36.16.53c.1.34.21.67.33,1l.15.43c.14.38.3.76.47,1.13a1.6,1.6,0,0,0,.1.23,20.52,20.52,0,0,0,1.46,2.69Z"/><path class="cls-3" d="M335.51,167.74l0,0c.14.31.27.63.39,1C335.76,168.37,335.64,168.05,335.51,167.74Z"/><path class="cls-3" d="M306.06,207.47h0l-1.54,0Z"/><path class="cls-3" d="M335.88,168.71c-.12-.32-.25-.64-.39-1l-37.95,39.4a55.09,55.09,0,0,0,7,.35l1.54,0,31.2-32.35A33.16,33.16,0,0,0,335.88,168.71Z"/><path class="cls-3" d="M232.42,174.91a.37.37,0,0,1,0-.11v.12Z"/><path class="cls-3" d="M196.27,208.5h0Z"/><path class="cls-3" d="M193.94,208.41h0Z"/><path class="cls-3" d="M232.41,174.92v-.12a29.85,29.85,0,0,0-1.87-8.34L189.4,208c1.43.2,2.89.34,4.38.43h.16c.65,0,1.31.06,2,.08h.36c.72,0,1.45,0,2.19,0h.25Z"/></svg>