<svg id="图层_1" data-name="图层 1" xmlns="http://www.w3.org/2000/svg" viewBox="0 0 500 500"><defs><style>.cls-1{fill:#fff;}</style></defs><title>画板 1 副本 40</title><path class="cls-1" d="M224.89,177.87a31.69,31.69,0,1,1-31.69-31.68A31.69,31.69,0,0,1,224.89,177.87Z"/><path d="M193.2,212.54a34.67,34.67,0,1,1,34.66-34.67A34.7,34.7,0,0,1,193.2,212.54Zm0-63.38a28.72,28.72,0,1,0,28.71,28.71A28.74,28.74,0,0,0,193.2,149.16Z"/><path d="M193.2,152.49a25.87,25.87,0,1,0,25.86,25.86A25.89,25.89,0,0,0,193.2,152.49Z"/><path class="cls-1" d="M338.48,177.87a31.68,31.68,0,1,1-31.68-31.68A31.68,31.68,0,0,1,338.48,177.87Z"/><path d="M306.8,212.54a34.67,34.67,0,1,1,34.66-34.67A34.7,34.7,0,0,1,306.8,212.54Zm0-63.38a28.72,28.72,0,1,0,28.71,28.71A28.74,28.74,0,0,0,306.8,149.16Z"/><path d="M306.8,152.49a25.87,25.87,0,1,0,25.86,25.86A25.89,25.89,0,0,0,306.8,152.49Z"/><path class="cls-1" d="M325.55,183.56a14.94,14.94,0,0,0-4-.79,18.71,18.71,0,0,0-4.45,1.46,9.8,9.8,0,0,0-3.64,2.62c-.92,1.54-1.14,5.32-.92,7.1s2.16,4.69,2.16,4.69,2.83,2.19,4.47,2.4c3.22.4,5.93-2.76,7.22-4.26s4.62-5.35,4.06-7.43S327.51,184.2,325.55,183.56Z"/><path class="cls-1" d="M287.57,189.75a8.41,8.41,0,0,0-.75,2.2,10.7,10.7,0,0,0,.48,2.62c.17.61.71,2.68,1.21,3.08a8.38,8.38,0,0,0,3.92,1.06,9.55,9.55,0,0,0,2.8-.86,15.38,15.38,0,0,0,1.91-3.1,7,7,0,0,0-1.21-5.22c-.82-.91-3.52-1.41-4.74-1.25S288.07,188.7,287.57,189.75Z"/><path class="cls-1" d="M286.91,162.67a8.08,8.08,0,0,0-.66,1.92,9.54,9.54,0,0,0,.43,2.29,4.78,4.78,0,0,0,1.05,2,7.43,7.43,0,0,0,3.42.92,8.27,8.27,0,0,0,2.44-.75,13.74,13.74,0,0,0,1.67-2.7,6.17,6.17,0,0,0-1.05-4.56c-.72-.8-3.08-1.23-4.14-1.09A5,5,0,0,0,286.91,162.67Z"/><path class="cls-1" d="M327.57,177.41c-23.81,0-21.34,25.27-21.34,25.27h0s2.33-25.27-21.47-25.27h0c23.8,0,21.33-24,21.33-24h.14s-2.47,24,21.34,24Z"/><path class="cls-1" d="M327.8,165c-8.71,0-7.8,9.25-7.8,9.25h0s.85-9.25-7.86-9.25h0c8.71,0,7.81-8.79,7.81-8.79H320s-.91,8.79,7.8,8.79Z"/><path class="cls-1" d="M212,183.56a14.94,14.94,0,0,0-4-.79,18.86,18.86,0,0,0-4.45,1.46,9.8,9.8,0,0,0-3.64,2.62c-.92,1.54-1.14,5.32-.92,7.1s2.16,4.69,2.16,4.69,2.83,2.19,4.47,2.4c3.22.4,5.93-2.76,7.22-4.26s4.62-5.35,4.06-7.43S213.91,184.2,212,183.56Z"/><path class="cls-1" d="M174,189.75a8.41,8.41,0,0,0-.75,2.2,10.7,10.7,0,0,0,.48,2.62c.17.61.71,2.68,1.21,3.08a8.41,8.41,0,0,0,3.92,1.06,9.44,9.44,0,0,0,2.8-.86,15.38,15.38,0,0,0,1.91-3.1,7,7,0,0,0-1.21-5.22c-.81-.91-3.52-1.41-4.74-1.25S174.47,188.7,174,189.75Z"/><path class="cls-1" d="M173.31,162.67a7.66,7.66,0,0,0-.66,1.92,9.54,9.54,0,0,0,.43,2.29,4.9,4.9,0,0,0,1,2,7.43,7.43,0,0,0,3.42.92A8.16,8.16,0,0,0,180,169a13.74,13.74,0,0,0,1.67-2.7,6.21,6.21,0,0,0-1-4.56c-.72-.8-3.08-1.23-4.14-1.09A5,5,0,0,0,173.31,162.67Z"/><path class="cls-1" d="M214,177.41c-23.8,0-21.33,25.27-21.33,25.27h0s2.32-25.27-21.48-25.27h0c23.8,0,21.33-19.82,21.33-19.82l.15-3.36s-2.47,23.18,21.33,23.18Z"/><path class="cls-1" d="M214.21,165c-8.72,0-7.81,9.25-7.81,9.25h0s.85-9.25-7.86-9.25h0c8.71,0,7.81-8.79,7.81-8.79h.05s-.91,8.79,7.81,8.79Z"/></svg>