<svg id="图层_1" data-name="图层 1" xmlns="http://www.w3.org/2000/svg" viewBox="0 0 500 500"><defs><style>.cls-1{fill:#fff;}</style></defs><title>画板 1 副本 28</title><path class="cls-1" d="M325.22,152.8c1.4,17.26-1.83,38.44-27.6,42.46-23.29,3.64-34.18-12.49-35.58-29.76Z"/><path class="cls-1" d="M162.78,152.8c-1.4,17.26,1.83,38.44,27.6,42.46,23.29,3.64,34.18-12.49,35.58-29.76Z"/><path d="M327.74,152.59a2.53,2.53,0,0,0-3-2.27l-40.87,8.22c12.44-8.8,23.5-20.49,25.38-22.51a5,5,0,1,0-7.33-6.81c-10.46,11.26-30.94,29.19-41.38,29.36a4.13,4.13,0,0,1-3.37-1.16,5,5,0,1,0-7.1,7,14.07,14.07,0,0,0,9.79,4.1c2.08,14.32,11.27,29.75,31.39,29.75a43.52,43.52,0,0,0,6.79-.55C313.06,195.41,330.42,185.67,327.74,152.59Zm-30.51,40.17a38.28,38.28,0,0,1-6,.49c-16.78,0-24.5-12.56-26.35-25.21a32.34,32.34,0,0,0,4.85-1.5l7.83-1.57a7.15,7.15,0,0,0-.49,3.18c.47,7.83,7.15,16.59,15.36,16.59h0a11.22,11.22,0,0,0,1.15-.06c6.41-.62,12.55-7.66,11.74-18.36-.26-3.5-1.48-5.35-3.1-6.32l20.66-4.15C323.93,177.82,315.52,189.91,297.23,192.76Z"/><path d="M237.92,157.39a5,5,0,0,0-7.07,0,4.12,4.12,0,0,1-3.23,1.16h-.14c-10.42-.17-30.91-18.1-41.38-29.36a5,5,0,0,0-7.33,6.81c1.88,2,12.94,13.71,25.38,22.51l-40.87-8.22a2.53,2.53,0,0,0-3,2.27c-2.68,33.08,14.68,42.82,29.72,45.17a43.52,43.52,0,0,0,6.79.55c20.11,0,29.31-15.43,31.39-29.75a14.07,14.07,0,0,0,9.79-4.1A5,5,0,0,0,237.92,157.39Zm-41.15,35.86a38.28,38.28,0,0,1-6-.49c-18.29-2.85-26.7-14.94-25.65-36.91L185.78,160c-1.62,1-2.84,2.82-3.1,6.32-.81,10.7,5.33,17.74,11.74,18.36a11.22,11.22,0,0,0,1.15.06c8.21,0,14.89-8.76,15.36-16.6a7.13,7.13,0,0,0-.49-3.17l7.83,1.57a32.34,32.34,0,0,0,4.85,1.5C221.27,180.69,213.55,193.25,196.77,193.25Z"/></svg>