<svg id="图层_1" data-name="图层 1" xmlns="http://www.w3.org/2000/svg" viewBox="0 0 500 500"><defs><style>.cls-1{fill:#f9a2c3;}.cls-2{fill:#fff;}</style></defs><title>画板 1 副本 34</title><path d="M230.4,181c-3.5-22.19-18.2-25-30.61-25-2.09,0-4.3.09-6.77.27-10.21.73-18,3.3-23.16,7.61-5.83,4.88-8.45,12.06-7.77,21.35,1.36,18.81,15.34,32.47,33.26,32.47.86,0,1.74,0,2.61-.1a36.83,36.83,0,0,0,26.26-13.45A29.4,29.4,0,0,0,230.4,181Z"/><path d="M329.14,163.86C324,159.55,316.19,157,306,156.25c-2.47-.18-4.68-.27-6.77-.27-12.41,0-27.11,2.85-30.61,25a29.4,29.4,0,0,0,6.18,23.11A36.83,36.83,0,0,0,301,217.58c.87.06,1.75.1,2.61.1h0c17.91,0,31.89-13.66,33.25-32.47C337.59,175.92,335,168.74,329.14,163.86Z"/><path class="cls-1" d="M328.9,227.12c0-5.59,4-10.15,9-10.2l30.55-.27c5,0,9.14,4.45,9.18,10h0c0,5.59-4,10.15-9,10.2l-30.55.26c-5,0-9.14-4.45-9.18-10Z"/><path d="M346.4,221a1.24,1.24,0,0,0-1.67.52l-4,7.66a1.24,1.24,0,0,0,.52,1.67,1.21,1.21,0,0,0,.58.14,1.23,1.23,0,0,0,1.09-.66l4-7.66A1.23,1.23,0,0,0,346.4,221Z"/><path d="M355.47,222.24a1.23,1.23,0,0,0-1.67.52l-4.19,8a1.24,1.24,0,0,0,.53,1.67,1.17,1.17,0,0,0,.57.14,1.24,1.24,0,0,0,1.1-.66l4.19-8A1.24,1.24,0,0,0,355.47,222.24Z"/><path d="M363.09,223.92a1.24,1.24,0,0,0-1.67.52l-3.27,6.26a1.24,1.24,0,0,0,.52,1.67,1.34,1.34,0,0,0,.58.14,1.24,1.24,0,0,0,1.09-.67l3.27-6.25A1.24,1.24,0,0,0,363.09,223.92Z"/><path class="cls-1" d="M170.11,224.38c0,5.47-4,9.91-8.91,9.92l-29.93,0c-4.93,0-8.93-4.43-8.94-9.89h0c0-5.48,4-9.92,8.91-9.92l29.94-.05c4.93,0,8.92,4.42,8.93,9.9Z"/><path d="M158,220.67a1.21,1.21,0,0,0-1.64.51l-4,7.47a1.21,1.21,0,0,0,.51,1.64,1.15,1.15,0,0,0,.56.15,1.23,1.23,0,0,0,1.08-.65l4-7.48A1.21,1.21,0,0,0,158,220.67Z"/><path d="M149.34,219a1.22,1.22,0,0,0-1.64.5l-4.15,7.81a1.22,1.22,0,0,0,.5,1.64,1.17,1.17,0,0,0,.57.14,1.21,1.21,0,0,0,1.07-.64l4.15-7.81A1.21,1.21,0,0,0,149.34,219Z"/><path d="M141,219a1.22,1.22,0,0,0-1.64.5l-3.23,6.11a1.22,1.22,0,0,0,.51,1.64,1.25,1.25,0,0,0,.56.14,1.23,1.23,0,0,0,1.08-.65l3.22-6.1A1.21,1.21,0,0,0,141,219Z"/><path class="cls-2" d="M183.23,158.72c-5.83.49-10.16,5.89-9.64,12s5.68,10.76,11.51,10.27,10.17-5.88,9.66-12S189.08,158.23,183.23,158.72Z"/><path class="cls-2" d="M200,212.23c1.15,0,11.56,1.23,18.9-9.79,0,0,5.61-6.86.79-10.23-4.56-3.19-7.81,4.11-9.53,6.12-2.53,2.94-6.19,5.17-9.8,5.37-3.24.17-8.73-.83-9.11,2.55C190.49,213,200,212.23,200,212.23Z"/><path d="M169.06,169.06a5,5,0,0,1-1-9.89c4.71-.95,9.32-1.72,13.77-2.46,18.79-3.14,30.36-5.48,31.45-13.78a5,5,0,1,1,9.9,1.3c-2.1,16.05-20.37,19.1-39.7,22.33-4.38.73-8.9,1.49-13.45,2.4A4.82,4.82,0,0,1,169.06,169.06Z"/><path class="cls-2" d="M295.91,158.72c5.84.49,10.17,5.89,9.65,12S299.88,181.52,294,181s-10.16-5.88-9.65-12S290.06,158.23,295.91,158.72Z"/><path class="cls-2" d="M325.47,202.67c-.62,1-5.51,10.24-18.74,10.08,0,0-8.84.75-8.9-5.12-.06-5.57,7.8-4.13,10.43-4.42,3.86-.42,7.76-2.19,10-5.05,2-2.58,4.24-7.68,7.25-6.09C331.5,195.25,325.47,202.67,325.47,202.67Z"/><path d="M329.94,169.06a4.82,4.82,0,0,1-1-.1c-4.55-.91-9.07-1.67-13.45-2.4-19.33-3.23-37.6-6.28-39.7-22.33a5,5,0,1,1,9.9-1.3c1.09,8.3,12.66,10.64,31.45,13.78,4.45.74,9.06,1.51,13.77,2.46a5,5,0,0,1-1,9.89Z"/></svg>