<svg id="图层_1" data-name="图层 1" xmlns="http://www.w3.org/2000/svg" viewBox="0 0 500 500"><defs><style>.cls-1{fill:#fff;}.cls-2{fill:#f9a2c3;}</style></defs><title>画板 1 副本 22</title><path d="M178.68,149a5.47,5.47,0,0,1-4.63-8.36c5.08-8.13,11.25-12.52,18.35-13,11.22-.84,19.53,8.51,20.44,9.58a5.46,5.46,0,1,1-8.31,7.09c-1.5-1.72-6.49-6.18-11.36-5.77-3.42.27-6.73,2.94-9.85,7.94A5.47,5.47,0,0,1,178.68,149Z"/><path d="M214.54,165.85A29,29,0,0,0,194,157.08h-.34a29.16,29.16,0,0,0-.32,58.31h.33a29.26,29.26,0,0,0,29.15-28.82A29,29,0,0,0,214.54,165.85Z"/><path class="cls-1" d="M184.33,163a9.28,9.28,0,1,0,8.79,9.27A9,9,0,0,0,184.33,163Z"/><path class="cls-1" d="M196.52,210.83c.94.1,9.44,1.81,16.25-6.76,0,0,5.11-5.27,1.36-8.38-3.53-2.94-6.71,2.84-8.28,4.38a12.16,12.16,0,0,1-8.44,3.75c-2.68-.08-7.15-1.28-7.69,1.48C188.61,210.82,196.52,210.83,196.52,210.83Z"/><path d="M279.3,147.53a5.47,5.47,0,0,1-4.63-8.36c5.08-8.13,11.25-12.52,18.35-13,11.2-.85,19.54,8.51,20.45,9.58a5.47,5.47,0,1,1-8.31,7.1c-1.5-1.72-6.49-6.17-11.37-5.78-3.41.27-6.73,2.94-9.85,7.94A5.45,5.45,0,0,1,279.3,147.53Z"/><path d="M315.16,164.39a29,29,0,0,0-20.52-8.77h-.33a29.16,29.16,0,0,0-.33,58.31h.34a29.16,29.16,0,0,0,20.84-49.54Z"/><path class="cls-1" d="M285,161.59a9.27,9.27,0,1,0,8.78,9.26A9,9,0,0,0,285,161.59Z"/><path class="cls-1" d="M297.15,209.37c.94.1,9.44,1.82,16.24-6.76,0,0,5.11-5.27,1.37-8.38-3.54-2.94-6.72,2.85-8.28,4.39a12.19,12.19,0,0,1-8.45,3.74c-2.68-.07-7.14-1.28-7.69,1.48C289.24,209.37,297.15,209.37,297.15,209.37Z"/><path class="cls-2" d="M322.8,211.32a8.81,8.81,0,0,1,8.72-8.87l29.52-.23A8.8,8.8,0,0,1,369.9,211h0a8.81,8.81,0,0,1-8.73,8.87l-29.5.22a8.79,8.79,0,0,1-8.87-8.72Z"/><path d="M339.71,205.94a1.13,1.13,0,0,0-1.55.41L334.29,213a1.14,1.14,0,0,0,.41,1.55,1.18,1.18,0,0,0,.57.15,1.13,1.13,0,0,0,1-.56l3.88-6.66A1.13,1.13,0,0,0,339.71,205.94Z"/><path d="M348.48,207.05a1.13,1.13,0,0,0-1.55.41l-4.05,7a1.14,1.14,0,0,0,.41,1.55,1.18,1.18,0,0,0,.57.15,1.16,1.16,0,0,0,1-.56l4-7A1.14,1.14,0,0,0,348.48,207.05Z"/><path d="M355.83,208.51a1.14,1.14,0,0,0-1.55.41l-3.16,5.44a1.13,1.13,0,0,0,.42,1.55,1,1,0,0,0,.56.16,1.15,1.15,0,0,0,1-.57l3.15-5.44A1.12,1.12,0,0,0,355.83,208.51Z"/><path class="cls-2" d="M164.25,213a8.61,8.61,0,0,1-8.61,8.62l-28.91,0a8.62,8.62,0,0,1-8.63-8.6h0a8.62,8.62,0,0,1,8.61-8.63l28.91,0a8.62,8.62,0,0,1,8.63,8.61Z"/><path d="M152.6,209.74a1.1,1.1,0,0,0-1.52.39l-3.83,6.5a1.13,1.13,0,0,0,.39,1.53,1.18,1.18,0,0,0,.57.15,1.1,1.1,0,0,0,1-.55l3.83-6.5A1.11,1.11,0,0,0,152.6,209.74Z"/><path d="M144.2,208.29a1.11,1.11,0,0,0-1.52.39l-4,6.79a1.12,1.12,0,0,0,.39,1.53,1.16,1.16,0,0,0,.57.15,1.1,1.1,0,0,0,1-.55l4-6.79A1.1,1.1,0,0,0,144.2,208.29Z"/><path d="M136.12,208.3a1.13,1.13,0,0,0-1.53.4l-3.11,5.3a1.11,1.11,0,1,0,1.92,1.13l3.11-5.31A1.11,1.11,0,0,0,136.12,208.3Z"/></svg>