<svg id="图层_1" data-name="图层 1" xmlns="http://www.w3.org/2000/svg" viewBox="0 0 500 500"><defs><style>.cls-1{fill:#fff;}</style></defs><title>画板 1 副本 46</title><path class="cls-1" d="M329.38,179.28a8.89,8.89,0,0,0-7.07-4.57,28.92,28.92,0,0,1,.21,24.69,11.05,11.05,0,0,0,5.48-2.88,9.41,9.41,0,0,0,1.57-2.23,15.67,15.67,0,0,0,1.49-7.72A15.85,15.85,0,0,0,329.38,179.28Z"/><path class="cls-1" d="M314.35,174.61a21.59,21.59,0,0,1,.74,25.15h2.61a24.64,24.64,0,0,0-.1-25.16Z"/><path class="cls-1" d="M280.82,174.69a24.63,24.63,0,0,0,.12,25.15h2.6a21.6,21.6,0,0,1,.46-25.15Z"/><path class="cls-1" d="M276.06,174.92a11.24,11.24,0,0,0-6.13,3c-2.14,2.2-3.17,5.54-3.06,9.94.19,7.41,3.35,11.41,9.38,11.92a28.85,28.85,0,0,1-.19-24.87Z"/><path d="M321.58,168.28l-.32,0h-.1c-.6,0-1.13,0-1.58,0l-40.37.1-.66,0c-2.44,0-8.61.51-13.16,5.17-3.37,3.47-5,8.35-4.85,14.52.4,15.85,11.88,17.9,15.82,18.13a2.33,2.33,0,0,0,.46,0h0l.73,0,.78,0,40.36-.09h.66c2.44,0,8.6-.5,13.14-5.16,3.38-3.47,5-8.36,4.86-14.53C337,170.59,325.53,168.52,321.58,168.28Zm-45.33,31.51c-6-.51-9.19-4.51-9.38-11.92-.11-4.4.92-7.74,3.06-9.94a11.24,11.24,0,0,1,6.13-3,28.85,28.85,0,0,0,.19,24.87ZM284,174.68a21.6,21.6,0,0,0-.46,25.15h-2.6a24.63,24.63,0,0,1-.12-25.15Zm31.09,25.08a21.59,21.59,0,0,0-.74-25.15h3.25a24.64,24.64,0,0,1,.1,25.16ZM328,196.52a11.05,11.05,0,0,1-5.48,2.88,28.92,28.92,0,0,0-.21-24.69,8.89,8.89,0,0,1,7.07,4.57,15.85,15.85,0,0,1,1.68,7.29,15.67,15.67,0,0,1-1.49,7.72A9.41,9.41,0,0,1,328,196.52Z"/><path class="cls-1" d="M231.38,180.28a8.89,8.89,0,0,0-7.07-4.57,28.92,28.92,0,0,1,.21,24.69,11.05,11.05,0,0,0,5.48-2.88,9.41,9.41,0,0,0,1.57-2.23,15.67,15.67,0,0,0,1.49-7.72A15.85,15.85,0,0,0,231.38,180.28Z"/><path class="cls-1" d="M216.35,175.61a21.59,21.59,0,0,1,.74,25.15h2.61a24.64,24.64,0,0,0-.1-25.16Z"/><path class="cls-1" d="M182.82,175.69a24.63,24.63,0,0,0,.12,25.15h2.6a21.6,21.6,0,0,1,.46-25.15Z"/><path class="cls-1" d="M178.06,175.92a11.24,11.24,0,0,0-6.13,3c-2.14,2.2-3.17,5.54-3.06,9.94.19,7.41,3.35,11.41,9.38,11.92a28.85,28.85,0,0,1-.19-24.87Z"/><path d="M223.58,169.28l-.32,0h-.1c-.6,0-1.13,0-1.58,0l-40.37.1-.66,0c-2.44,0-8.61.51-13.16,5.17-3.37,3.47-5,8.35-4.85,14.52.4,15.85,11.88,17.9,15.82,18.13a2.33,2.33,0,0,0,.46,0h0l.73,0,.78,0,40.36-.09h.66c2.44,0,8.6-.5,13.14-5.16,3.38-3.47,5-8.36,4.86-14.53C239,171.59,227.53,169.52,223.58,169.28Zm-45.33,31.51c-6-.51-9.19-4.51-9.38-11.92-.11-4.4.92-7.74,3.06-9.94a11.24,11.24,0,0,1,6.13-3,28.85,28.85,0,0,0,.19,24.87ZM186,175.68a21.6,21.6,0,0,0-.46,25.15h-2.6a24.63,24.63,0,0,1-.12-25.15Zm31.09,25.08a21.59,21.59,0,0,0-.74-25.15h3.25a24.64,24.64,0,0,1,.1,25.16ZM230,197.52a11.05,11.05,0,0,1-5.48,2.88,28.92,28.92,0,0,0-.21-24.69,8.89,8.89,0,0,1,7.07,4.57,15.85,15.85,0,0,1,1.68,7.29,15.67,15.67,0,0,1-1.49,7.72A9.41,9.41,0,0,1,230,197.52Z"/><path d="M183.58,162.53a4.46,4.46,0,0,1-1.43-.23,4.53,4.53,0,0,1-2.88-5.73c1.81-5.47,9-15.47,23.41-14.24,6.22.37,15,5.11,19.12,13.18a4.54,4.54,0,1,1-8.09,4.12c-2.35-4.61-8-8-11.61-8.24H202c-10.95-.95-13.94,7.67-14.06,8A4.54,4.54,0,0,1,183.58,162.53Z"/><path d="M316.46,161.32a4.54,4.54,0,0,1-4.08-2.55c-2.27-4.65-7.87-8.17-11.47-8.43h-.16c-10.94-1.15-14.06,7.44-14.19,7.81a4.54,4.54,0,1,1-8.57-3c1.9-5.43,9.27-15.34,23.63-13.85,6.22.47,14.94,5.35,18.92,13.49a4.54,4.54,0,0,1-4.08,6.54Z"/></svg>