<svg id="图层_1" data-name="图层 1" xmlns="http://www.w3.org/2000/svg" viewBox="0 0 500 500"><defs><style>.cls-1{fill:#fff;}</style></defs><title>画板 1 副本 64</title><polygon points="355.38 154.03 144.62 154.03 144.62 168.79 152.71 168.79 152.71 177.8 159.69 178.05 159.69 187.98 166.48 187.98 166.48 197.58 172.27 197.44 172.27 206.53 225.36 206.53 225.36 196.39 231.69 196.39 231.69 186.49 237.68 186.49 237.68 178 244.73 178 244.73 168.79 253.33 168.79 253.33 177.8 260.31 178.05 260.31 187.98 267.1 187.98 267.1 197.58 272.88 197.44 272.88 206.53 325.98 206.53 325.98 196.39 332.31 196.39 332.31 186.49 338.3 186.49 338.3 178 345.35 178 345.35 168.79 355.38 168.79 355.38 154.03"/><rect class="cls-1" x="322.3" y="180.98" width="6.02" height="6.52"/><polygon class="cls-1" points="316.8 194.03 311.32 194.03 311.32 200.55 317.34 200.55 317.34 194.04 322.82 194.04 322.82 187.53 316.8 187.53 316.8 194.03"/><rect class="cls-1" x="314.05" y="173.39" width="6.02" height="6.52"/><polygon class="cls-1" points="314.57 186.45 314.57 179.94 308.55 179.94 308.55 186.44 303.07 186.44 303.07 192.96 309.09 192.96 309.09 186.45 314.57 186.45"/><rect class="cls-1" x="224.03" y="179.89" width="6.02" height="6.51"/><polygon class="cls-1" points="218.53 192.95 213.04 192.95 213.04 199.47 219.07 199.47 219.07 192.96 224.55 192.96 224.55 186.44 218.53 186.44 218.53 192.95"/><rect class="cls-1" x="215.78" y="172.3" width="6.02" height="6.52"/><polygon class="cls-1" points="216.3 185.37 216.3 178.85 210.28 178.85 210.28 185.36 204.79 185.36 204.79 191.87 210.82 191.87 210.82 185.37 216.3 185.37"/></svg>