<svg id="图层_1" data-name="图层 1" xmlns="http://www.w3.org/2000/svg" viewBox="0 0 500 500"><defs><style>.cls-1{fill:#fff;}</style></defs><title>画板 1 副本 52</title><path class="cls-1" d="M152.79,182.4c-.52,21.15,6.9,40.08,40.83,41,35.73,1,38.2-16.13,38.72-37.28Z"/><path class="cls-1" d="M347.21,182.4c.52,21.15-6.9,40.08-40.83,41-35.73,1-38.2-16.13-38.72-37.28Z"/><path d="M241.27,171.53a3,3,0,0,0-3.08,2.84c-.13,3.47-1.14,5.95-3,7.38a6.71,6.71,0,0,1-1.95,1.05,3.67,3.67,0,0,0-.75-.12L153,179a3.58,3.58,0,0,0-2.52.92,3.49,3.49,0,0,0-1.1,2.45c-.32,13.1,2.38,23,8.26,30.34,7.23,9,19.32,13.75,35.93,14.2,1,0,2,0,3,0h0c16.49,0,26.95-3.94,32.93-12.4,5.1-7.21,6-16.52,6.32-26.33a12.66,12.66,0,0,0,3-1.7c3.32-2.55,5.11-6.54,5.32-11.86A3,3,0,0,0,241.27,171.53ZM196.49,220c-.9,0-1.83,0-2.78,0-25.26-.69-36.94-11.19-37.47-33.93l22.17,1c.39,13.5,7.36,23.94,16.4,24.12H195c4.59,0,8.89-2.7,12.13-7.63a32.79,32.79,0,0,0,4.88-14.91l16.73.79C228,208.53,224.33,220,196.49,220Z"/><path d="M350.67,182.32a3.49,3.49,0,0,0-1.1-2.45,3.61,3.61,0,0,0-2.52-.92l-79.55,3.73a3.1,3.1,0,0,0-.75.13,7.23,7.23,0,0,1-1.93-1c-1.86-1.43-2.87-3.92-3-7.4a3,3,0,0,0-5.92.24c.21,5.32,2,9.31,5.32,11.86a12.66,12.66,0,0,0,3.05,1.7c.3,9.81,1.22,19.12,6.32,26.33,6,8.46,16.44,12.4,32.93,12.4,1,0,2,0,3,0,16.62-.45,28.7-5.23,35.93-14.2C348.29,205.35,351,195.43,350.67,182.32ZM306.29,220c-1,0-1.87,0-2.78,0-27.84,0-31.53-11.46-32.29-30.56l16.73-.79a32.79,32.79,0,0,0,4.88,14.91c3.24,4.93,7.54,7.63,12.13,7.63h.23c9-.18,16-10.62,16.4-24.12l22.17-1C343.23,208.76,331.55,219.26,306.29,220Z"/></svg>