<svg id="图层_1" data-name="图层 1" xmlns="http://www.w3.org/2000/svg" viewBox="0 0 500 500"><defs><style>.cls-1{fill:#fff;}</style></defs><title>画板 1 副本 16</title><path d="M194,150.59a25.42,25.42,0,0,1-3.18-.2,5,5,0,1,1,1.35-9.91c1.17.14,11.65,1.17,13.64-8.18a5,5,0,1,1,9.78,2.07C212.85,147.31,201.61,150.59,194,150.59Z"/><path d="M306,150.59c-7.61,0-18.85-3.28-21.59-16.22a5,5,0,1,1,9.78-2.07c2,9.35,12.48,8.32,13.67,8.17a5,5,0,0,1,1.32,9.92A25.42,25.42,0,0,1,306,150.59Z"/><path class="cls-1" d="M279.93,165.16s23.89-17,47.5,0c0,0,18.19,10.22,12.1,25.41-5.77,14.35-22.13,4.34-27.94,3.58-8-1-11.84-.65-17.55,1.5-6.91,2.6-22,5.07-26.21-3.16C259.35,176,279.93,165.16,279.93,165.16Z"/><path d="M328.51,201.21c-4.57,0-9.18-1.57-12.88-2.82a30.52,30.52,0,0,0-4.42-1.31,52.73,52.73,0,0,0-6.74-.53,24.37,24.37,0,0,0-9.39,1.87,44.86,44.86,0,0,1-14.66,2.67c-9.5,0-13.52-3.94-15.22-7.24-7.71-15,5.16-26.91,13.19-31.21a49.46,49.46,0,0,1,26.23-8,41.23,41.23,0,0,1,24.41,8c7.09,4.05,18.78,15.18,13.24,29-2.51,6.24-7.26,9.54-13.76,9.54Zm-24-10.57a59.14,59.14,0,0,1,7.51.58,32.26,32.26,0,0,1,5.55,1.57c3.29,1.12,7.39,2.51,11,2.51,4.1,0,6.66-1.8,8.27-5.83,5.05-12.57-10.15-21.36-10.8-21.73l-.28-.18a35.48,35.48,0,0,0-21.08-7,44.11,44.11,0,0,0-23,7,2.3,2.3,0,0,1-.33.21c-.73.39-17.88,9.71-10.85,23.36,1.71,3.34,6.36,4,10,4a39,39,0,0,0,12.58-2.3A30.14,30.14,0,0,1,304.47,190.64Z"/><path d="M311.59,194.15c-1.61-.21-3-.35-4.37-.44a20.8,20.8,0,0,1-5.29-14.24c0-9.68,2.72-17.09,8.73-21.39a39,39,0,0,1,16.77,7.08s18.19,10.22,12.1,25.41C333.76,204.92,317.4,194.91,311.59,194.15Z"/><path d="M299.83,196a2,2,0,0,1-1.57-.78A30.36,30.36,0,0,1,292,176.71a27.58,27.58,0,0,1,8.88-20.49,2,2,0,0,1,2.7,2.87,23.74,23.74,0,0,0-7.64,17.62,26.48,26.48,0,0,0,5.51,16.09,2,2,0,0,1-.38,2.76A1.94,1.94,0,0,1,299.83,196Z"/><path class="cls-1" d="M173.37,165.16s23.9-17,47.51,0c0,0,18.18,10.22,12.09,25.41-5.76,14.35-22.12,4.34-27.93,3.58-8-1-11.85-.65-17.56,1.5-6.91,2.6-22,5.07-26.21-3.16C152.8,176,173.37,165.16,173.37,165.16Z"/><path d="M222.47,162.67a41.22,41.22,0,0,0-24.4-8,49.51,49.51,0,0,0-26.24,8c-8,4.3-20.9,16.22-13.19,31.21,1.7,3.3,5.73,7.24,15.23,7.24a44.91,44.91,0,0,0,14.66-2.67,24.33,24.33,0,0,1,9.39-1.87,52.86,52.86,0,0,1,6.74.53,30.89,30.89,0,0,1,4.42,1.31c3.7,1.25,8.31,2.82,12.88,2.82h0c6.49,0,11.25-3.3,13.76-9.54C241.26,177.85,229.56,166.72,222.47,162.67Zm-36,30.21a38.92,38.92,0,0,1-12.57,2.3c-3.6,0-8.25-.7-10-4-7-13.65,10.12-23,10.85-23.36a2.39,2.39,0,0,0,.34-.21,44.26,44.26,0,0,1,14.8-6.13,27.45,27.45,0,0,0-4.49,15.27,30,30,0,0,0,4.12,15.13C188.54,192.13,187.53,192.48,186.44,192.88Zm7.12-1.94a26.18,26.18,0,0,1-4.22-14.23,23.61,23.61,0,0,1,6.13-16.07c.85-.06,1.72-.1,2.6-.1,1.05,0,2.09.06,3.12.15-4,4.43-5.81,10.83-5.81,18.78a20.49,20.49,0,0,0,3.05,11.18h-.51A30.57,30.57,0,0,0,193.56,190.94Z"/></svg>