<svg id="图层_1" data-name="图层 1" xmlns="http://www.w3.org/2000/svg" viewBox="0 0 500 500"><defs><style>.cls-1{fill:#fff;}</style></defs><title>画板 1 副本 46</title><path class="cls-1" d="M160.15,167.48c-.48,19.55,6.38,37,37.74,37.9,33,.91,35.31-14.9,35.79-34.45Z"/><path class="cls-1" d="M339.85,167.48c.48,19.55-6.38,37-37.74,37.9-33,.91-35.31-14.9-35.79-34.45Z"/><path d="M239.79,161.76a5,5,0,0,0-5.57,4.35,1.35,1.35,0,0,1-.66.78c-.49.2-5.12,1.62-19.45-9.6l-.13-.1c-6.1-4.79-24.67-19.35-44.75-16.12a5,5,0,1,0,1.59,9.87c15.75-2.53,31.74,10,37,14.12l.13.1,1.89,1.45-49.53-2.32a3.26,3.26,0,0,0-2.32.85,3.2,3.2,0,0,0-1,2.26c-.67,26.94,12.69,40.4,40.84,41.17.94,0,1.85,0,2.74,0h0c15.23,0,24.91-3.64,30.43-11.46,4.09-5.79,5.27-13,5.69-20.77.24-.08.48-.15.71-.25a11.29,11.29,0,0,0,6.76-8.8A5,5,0,0,0,239.79,161.76Zm-39.25,40.46-2.57,0c-23.34-.64-34.14-10.35-34.63-31.36l20.49,1c.36,12.48,6.8,22.13,15.16,22.29h.21c4.24,0,8.22-2.5,11.21-7.05a30.27,30.27,0,0,0,4.51-13.78l5.6.26a30.48,30.48,0,0,0,9.72,3.38C229.23,192.79,224.82,202.22,200.54,202.22Z"/><path d="M343,167.4a3.19,3.19,0,0,0-3.34-3.11l-52.13,2.44c.63-.67,1.25-1.35,1.86-2,2.66-2.92,5.41-5.94,8.43-8.78,10.06-9.47,24.16-10.11,31.47-5.27a5,5,0,0,0,5.52-8.34c-10.71-7.1-30-6.67-43.84,6.32-3.31,3.12-6.32,6.42-9,9.33-4.21,4.61-7.21,7.71-9.7,9.48l-6.17.29a3.19,3.19,0,0,0-1.61.54,15.18,15.18,0,0,1-1.55-1.05,5,5,0,1,0-6.13,7.91,20.73,20.73,0,0,0,6.61,3.56c.53,6.86,1.85,13.25,5.53,18.45,5.52,7.82,15.2,11.46,30.44,11.46.89,0,1.8,0,2.74,0C330.35,207.8,343.71,194.34,343,167.4Zm-41,34.79-2.57,0c-23.1,0-28.21-8.54-29.52-23.07,3.89-.63,7.47-2.82,10.84-5.7l4.29-.2c1.08,11.92,7.66,20.83,15.73,20.83H301c8.21-.16,14.77-10,15.16-22.29l20.49-1C336.17,191.84,325.37,201.55,302,202.19Z"/></svg>