<svg id="图层_1" data-name="图层 1" xmlns="http://www.w3.org/2000/svg" viewBox="0 0 500 500"><defs><style>.cls-1{fill:#fff;}.cls-2{fill:#f9a2c3;}</style></defs><title>画板 1 副本 28</title><path class="cls-1" d="M231.48,182.36A31.49,31.49,0,1,1,200,150.87,31.49,31.49,0,0,1,231.48,182.36Z"/><path d="M186,182.31a14.6,14.6,0,1,1,14.59,14.6A14.6,14.6,0,0,1,186,182.31Z"/><path d="M200.56,216.34a34,34,0,1,1,34-34A34.07,34.07,0,0,1,200.56,216.34Zm0-63a28.95,28.95,0,1,0,28.95,28.95A29,29,0,0,0,200.56,153.36Z"/><circle class="cls-1" cx="297.19" cy="182.61" r="31.49"/><path d="M282.59,182.5a14.6,14.6,0,1,1,14.6,14.6A14.6,14.6,0,0,1,282.59,182.5Z"/><path d="M297.19,216.63a34,34,0,1,1,34-34A34.07,34.07,0,0,1,297.19,216.63Zm0-63a28.95,28.95,0,1,0,28.94,29A29,29,0,0,0,297.19,153.66Z"/><path class="cls-2" d="M328.9,227.12c0-5.59,4-10.15,9-10.2l30.55-.27c5,0,9.14,4.45,9.18,10h0c0,5.59-4,10.15-9,10.2l-30.55.26c-5,0-9.14-4.45-9.18-10Z"/><path class="cls-2" d="M170.11,224.38c0,5.47-4,9.91-8.91,9.92l-29.93,0c-4.93,0-8.93-4.43-8.94-9.89h0c0-5.48,4-9.92,8.91-9.92l29.94-.05c4.93,0,8.92,4.42,8.93,9.9Z"/><path d="M346.4,221a1.24,1.24,0,0,0-1.67.52l-4,7.66a1.24,1.24,0,0,0,.52,1.67,1.21,1.21,0,0,0,.58.14,1.23,1.23,0,0,0,1.09-.66l4-7.66A1.23,1.23,0,0,0,346.4,221Z"/><path d="M355.47,222.24a1.23,1.23,0,0,0-1.67.52l-4.19,8a1.24,1.24,0,0,0,.53,1.67,1.17,1.17,0,0,0,.57.14,1.24,1.24,0,0,0,1.1-.66l4.19-8A1.24,1.24,0,0,0,355.47,222.24Z"/><path d="M363.09,223.92a1.24,1.24,0,0,0-1.67.52l-3.27,6.26a1.24,1.24,0,0,0,.52,1.67,1.34,1.34,0,0,0,.58.14,1.24,1.24,0,0,0,1.09-.67l3.27-6.25A1.24,1.24,0,0,0,363.09,223.92Z"/><path d="M158,220.67a1.21,1.21,0,0,0-1.64.51l-4,7.47a1.21,1.21,0,0,0,.51,1.64,1.15,1.15,0,0,0,.56.15,1.23,1.23,0,0,0,1.08-.65l4-7.48A1.21,1.21,0,0,0,158,220.67Z"/><path d="M149.34,219a1.22,1.22,0,0,0-1.64.5l-4.15,7.81a1.22,1.22,0,0,0,.5,1.64,1.17,1.17,0,0,0,.57.14,1.21,1.21,0,0,0,1.07-.64l4.15-7.81A1.21,1.21,0,0,0,149.34,219Z"/><path d="M141,219a1.22,1.22,0,0,0-1.64.5l-3.23,6.11a1.22,1.22,0,0,0,.51,1.64,1.25,1.25,0,0,0,.56.14,1.23,1.23,0,0,0,1.08-.65l3.22-6.1A1.21,1.21,0,0,0,141,219Z"/></svg>