<svg id="图层_1" data-name="图层 1" xmlns="http://www.w3.org/2000/svg" viewBox="0 0 500 500"><defs><style>.cls-1{fill:#f9a2c3;}.cls-2{fill:#fff;}</style></defs><title>画板 1 副本 22</title><path d="M231.44,190.76a31.39,31.39,0,0,0-31.18-29.07c-.75,0-1.51,0-2.26.08a31.29,31.29,0,0,0,2.19,62.5c.75,0,1.51,0,2.26-.08A31.32,31.32,0,0,0,231.44,190.76Z"/><path d="M331,190.39a31.29,31.29,0,1,0-31.28,32.85c.53,0,1.06,0,1.6,0A31.28,31.28,0,0,0,331,190.39Z"/><path d="M189.22,154.4a3.92,3.92,0,0,1-3.24-6.13c4-5.88,8.72-9,14-9.13h.47c8.23,0,14.16,7.4,14.41,7.72a3.92,3.92,0,1,1-6.16,4.85c-1.06-1.33-4.61-4.74-8.26-4.74h-.22c-2.63.1-5.23,2-7.75,5.72A3.92,3.92,0,0,1,189.22,154.4Z"/><path d="M311.56,154.19a3.88,3.88,0,0,1-3.26-1.75c-1-1.43-4.36-5.23-8.08-5.37-2.64-.1-5.37,1.61-8.17,5.1a3.92,3.92,0,1,1-6.11-4.91c4.45-5.55,9.39-8.27,14.65-8,8.47.37,14,8.51,14.23,8.85a3.93,3.93,0,0,1-3.26,6.1Z"/><path class="cls-1" d="M328.9,227.12c0-5.59,4-10.15,9-10.2l30.55-.27c5,0,9.14,4.45,9.18,10h0c0,5.59-4,10.15-9,10.2l-30.55.26c-5,0-9.14-4.45-9.18-10Z"/><path d="M346.4,221a1.24,1.24,0,0,0-1.67.52l-4,7.66a1.24,1.24,0,0,0,.52,1.67,1.21,1.21,0,0,0,.58.14,1.23,1.23,0,0,0,1.09-.66l4-7.66A1.23,1.23,0,0,0,346.4,221Z"/><path d="M355.47,222.24a1.23,1.23,0,0,0-1.67.52l-4.19,8a1.24,1.24,0,0,0,.53,1.67,1.17,1.17,0,0,0,.57.14,1.24,1.24,0,0,0,1.1-.66l4.19-8A1.24,1.24,0,0,0,355.47,222.24Z"/><path d="M363.09,223.92a1.24,1.24,0,0,0-1.67.52l-3.27,6.26a1.24,1.24,0,0,0,.52,1.67,1.34,1.34,0,0,0,.58.14,1.24,1.24,0,0,0,1.09-.67l3.27-6.25A1.24,1.24,0,0,0,363.09,223.92Z"/><path class="cls-1" d="M170.11,224.38c0,5.47-4,9.91-8.91,9.92l-29.93,0c-4.93,0-8.93-4.43-8.94-9.89h0c0-5.48,4-9.92,8.91-9.92l29.94-.05c4.93,0,8.92,4.42,8.93,9.9Z"/><path d="M158,220.67a1.22,1.22,0,0,0-1.64.51l-4,7.47a1.21,1.21,0,0,0,.51,1.64,1.15,1.15,0,0,0,.56.15,1.23,1.23,0,0,0,1.08-.65l4-7.48A1.21,1.21,0,0,0,158,220.67Z"/><path d="M149.34,219a1.22,1.22,0,0,0-1.64.5l-4.15,7.81a1.22,1.22,0,0,0,.5,1.64,1.17,1.17,0,0,0,.57.14,1.21,1.21,0,0,0,1.07-.64l4.15-7.81A1.21,1.21,0,0,0,149.34,219Z"/><path d="M141,219a1.22,1.22,0,0,0-1.64.5l-3.23,6.11a1.22,1.22,0,0,0,.51,1.64,1.25,1.25,0,0,0,.56.14,1.23,1.23,0,0,0,1.08-.65l3.22-6.1A1.21,1.21,0,0,0,141,219Z"/><path class="cls-2" d="M288.41,165.25c-6.91.43-12.17,6.7-11.73,14s6.45,12.88,13.35,12.45,12.18-6.69,11.73-14S295.34,164.83,288.41,165.25Z"/><path class="cls-2" d="M307.72,217.42c1-.07,10.31.15,15.91-10.17,0,0,4.42-6.52-.12-9.11-4.28-2.45-6.56,4.26-7.93,6.17a13.12,13.12,0,0,1-8.23,5.54c-2.85.42-7.79,0-7.86,3C299.35,218.88,307.72,217.42,307.72,217.42Z"/><path class="cls-2" d="M189.56,166.41c-7.59.63-13.23,7.65-12.56,15.66s7.38,14,15,13.38,13.24-7.64,12.58-15.66S197.17,165.79,189.56,166.41Z"/><path class="cls-2" d="M209.46,218c1-.15,10.29-.72,15-11.49,0,0,3.85-6.87-.89-9.07-4.48-2.07-6.18,4.81-7.38,6.83-1.75,3-4.6,5.49-7.72,6.22-2.81.66-7.77.64-7.58,3.65C201.25,220.21,209.46,218,209.46,218Z"/></svg>