<svg id="图层_1" data-name="图层 1" xmlns="http://www.w3.org/2000/svg" xmlns:xlink="http://www.w3.org/1999/xlink" viewBox="0 0 500 500"><defs><style>.cls-1{fill:url(#未命名的渐变_15);}.cls-2{fill:#e02270;}.cls-3{fill:#ffeef7;}</style><radialGradient id="未命名的渐变_15" cx="248.12" cy="174.81" r="72.37" gradientTransform="translate(0 17.48) scale(1 0.9)" gradientUnits="userSpaceOnUse"><stop offset="0" stop-color="#fd8e9d"/><stop offset="0.41" stop-color="#fd8c9b"/><stop offset="0.56" stop-color="#fd8694"/><stop offset="0.67" stop-color="#fd7c89"/><stop offset="0.75" stop-color="#fd6d78"/><stop offset="0.83" stop-color="#fd5a62"/><stop offset="0.89" stop-color="#fe4346"/><stop offset="0.95" stop-color="#fe2727"/><stop offset="1" stop-color="#fe0803"/></radialGradient></defs><title>画板 1 副本 34</title><path class="cls-1" d="M249,116.42q-4.26-.12-8.51-.1c-21.46.07-46.08,2.59-61.84,18.9-10.8,11.19-13.76,28.43-14.38,43.4-.74,17.66,1.69,34.51,17.91,44.37,8.19,5,17.72,7.28,27.2,8.63,20.3,2.87,40.9,1.64,61.21-.52,10.57-1.13,21.26-1.79,31.61-4.41,9.36-2.37,19.49-6,24.31-15,2.74-5.11,3.86-10.93,4.6-16.68,1.46-11.22,1.58-22.85-1.26-33.87-6.28-24.39-30.65-37-53.58-41.8A156.93,156.93,0,0,0,249,116.42Z"/><path class="cls-2" d="M239.86,223.13a2.37,2.37,0,0,1-2.25-3.17L267,136.08a2.38,2.38,0,1,1,4.49,1.58l-29.4,83.88A2.37,2.37,0,0,1,239.86,223.13Z"/><path class="cls-2" d="M257.77,220.29a2.19,2.19,0,0,1-.75-.13,2.38,2.38,0,0,1-1.51-3L280,143.67a2.38,2.38,0,0,1,4.52,1.5L260,218.66A2.38,2.38,0,0,1,257.77,220.29Z"/><path class="cls-2" d="M276.75,219a2.54,2.54,0,0,1-.85-.15,2.38,2.38,0,0,1-1.37-3.08L300,149a2.38,2.38,0,1,1,4.45,1.7L279,217.43A2.39,2.39,0,0,1,276.75,219Z"/><path class="cls-2" d="M289.71,222.75a2.33,2.33,0,0,1-.85-.16,2.38,2.38,0,0,1-1.37-3.08L313,152.79a2.38,2.38,0,1,1,4.45,1.7l-25.5,66.72A2.4,2.4,0,0,1,289.71,222.75Z"/><path class="cls-2" d="M223.08,217.21a2.47,2.47,0,0,1-.83-.15,2.38,2.38,0,0,1-1.4-3.06l28.2-76.3a2.38,2.38,0,1,1,4.47,1.66l-28.2,76.29A2.4,2.4,0,0,1,223.08,217.21Z"/><path class="cls-2" d="M205.11,211.5a2.37,2.37,0,0,1-2.21-3.27L231.36,138a2.38,2.38,0,1,1,4.41,1.79L207.32,210A2.39,2.39,0,0,1,205.11,211.5Z"/><path class="cls-2" d="M184.12,212.46a2.26,2.26,0,0,1-.88-.17,2.39,2.39,0,0,1-1.34-3.09l28.86-73a2.38,2.38,0,1,1,4.43,1.75l-28.86,73A2.38,2.38,0,0,1,184.12,212.46Z"/><path class="cls-3" d="M205.77,205.54a32.26,32.26,0,1,1,21.46-40.25A32.25,32.25,0,0,1,205.77,205.54Z"/><path class="cls-3" d="M313,201.15a32.25,32.25,0,1,1,21.47-40.25A32.25,32.25,0,0,1,313,201.15Z"/><path d="M199.86,207.4a29.15,29.15,0,0,1-28.27-36.17c0-.07,0-.14,0-.21l.07-.23a2.43,2.43,0,0,1,.13-.38c5.44-16.36,16.77-22.78,32.78-18.56,10.25,2.72,20.41,12.72,15.33,32A20,20,0,0,1,195.52,198c-10.45-2.76-16.8-14.45-14.16-26.07a14.33,14.33,0,0,1,6.64-9.13,15.32,15.32,0,0,1,11.81-1.69,13.28,13.28,0,0,1,8.75,7.34,16.64,16.64,0,0,1,.89,11.32,3,3,0,0,1-5.8-1.53,10.79,10.79,0,0,0-.51-7.24,7.31,7.31,0,0,0-4.87-4.1,9.33,9.33,0,0,0-7.17,1,8.38,8.38,0,0,0-3.9,5.33c-1.93,8.5,2.49,17,9.85,18.94a14,14,0,0,0,17.11-10c5.09-19.31-8.33-23.92-11.07-24.64-13.07-3.45-21.22,1.3-25.66,14.94a23.14,23.14,0,0,0,44.81,11.59c2.38-9,1.65-17.11-2.1-23.48-3.54-6-9.6-10.29-17.53-12.39A29.18,29.18,0,0,0,167,169a3,3,0,0,1-5.79-1.53,35.17,35.17,0,0,1,42.93-25c9.49,2.5,16.81,7.74,21.17,15.14,4.58,7.78,5.52,17.48,2.73,28.05A29.21,29.21,0,0,1,199.86,207.4Z"/><path d="M301.07,205.41c-.76,0-1.53,0-2.3-.09-9-.69-17.49-5.46-24.57-13.79a29.13,29.13,0,1,1,44.41-37.72,2.14,2.14,0,0,1,.28.39C329.19,168,328,181,315.36,191.66c-8.08,6.87-22.09,9.5-35-5.68a20,20,0,0,1,2.3-28.17c8.23-7,21.45-5.53,29.48,3.27a14.35,14.35,0,0,1,3.7,10.67,15.36,15.36,0,0,1-5.36,10.65c-6.05,5.13-15.24,3.91-20.92-2.78a3,3,0,1,1,4.57-3.88c3.07,3.62,8.58,5.39,12.47,2.09a9.32,9.32,0,0,0,3.26-6.47,8.39,8.39,0,0,0-2.15-6.24c-5.87-6.44-15.37-7.68-21.17-2.75a14,14,0,0,0-1.61,19.73c12.94,15.22,24.38,6.83,26.54,5,10.31-8.75,11.07-18.17,2.37-29.63a23.14,23.14,0,0,0-35.08,30.19c6,7.09,13.09,11.13,20.46,11.7,6.95.53,13.93-2,20.18-7.31A29.17,29.17,0,0,0,322.76,151a3,3,0,1,1,4.57-3.88,35.17,35.17,0,0,1-4,49.51C316.48,202.4,308.85,205.41,301.07,205.41Z"/></svg>