<svg id="图层_1" data-name="图层 1" xmlns="http://www.w3.org/2000/svg" viewBox="0 0 500 500"><defs><style>.cls-1{fill:#fff;}.cls-2{fill:#f9a2c3;}</style></defs><title>画板 1 副本 10</title><path d="M334.34,185.91l-8.06-4,2.78-.65a1,1,0,0,0,.73-.83,1,1,0,0,0-.57-.95l-3-1.26,6.19-1.14a.92.92,0,0,0,.76-.8.94.94,0,0,0-.52-1c-11.05-5.34-23.95-8-38.34-8a110,110,0,0,0-25.54,2.9,1,1,0,0,0-.66.66.93.93,0,0,0,.23.9l2.43,2.53-3.47,1.28a.94.94,0,0,0-.62.93,1,1,0,0,0,.71.87l2.19.56-3.6,1.58a.94.94,0,0,0,.09,1.76l4.19,1.35-4.41,2.84a.94.94,0,0,0,.62,1.73,175.83,175.83,0,0,1,20.92-1.22,183.63,183.63,0,0,1,39.16,4,.91.91,0,0,0,.23,0,.94.94,0,0,0,.79-1.46l-.57-.86h6.88a.94.94,0,0,0,.42-1.78Z"/><path class="cls-1" d="M299.46,175.69c-.07,1.3,4.68,2.54,10.62,2.78s10.82-.61,10.9-1.91-4.67-2.54-10.62-2.78S299.55,174.4,299.46,175.69Z"/><path class="cls-1" d="M291.57,180.65c0,.73,2.66,1.44,6,1.58s6.15-.35,6.2-1.08-2.66-1.45-6-1.59S291.62,179.91,291.57,180.65Z"/><path class="cls-1" d="M279.34,175.88c0,.74,2.66,1.44,6,1.58s6.15-.35,6.19-1.09-2.66-1.44-6-1.58S279.39,175.14,279.34,175.88Z"/><path d="M234.12,185.08l-4.42-2.84,4.2-1.35a.94.94,0,0,0,.65-.85,1,1,0,0,0-.56-.91l-3.61-1.58,2.19-.56a1,1,0,0,0,.71-.87.94.94,0,0,0-.62-.93l-3.47-1.28,2.43-2.53a.93.93,0,0,0,.23-.9,1,1,0,0,0-.66-.66,110,110,0,0,0-25.53-2.9c-14.4,0-27.3,2.7-38.35,8a1,1,0,0,0-.52,1,.94.94,0,0,0,.76.8l6.19,1.13-3,1.26a1,1,0,0,0-.57,1,1,1,0,0,0,.73.83l2.78.65-8.06,4a1,1,0,0,0-.5,1.06.94.94,0,0,0,.92.73H173l-.57.86a.94.94,0,0,0,.79,1.46.83.83,0,0,0,.22,0,184.29,184.29,0,0,1,39.16-4,176.2,176.2,0,0,1,20.94,1.21.94.94,0,0,0,.62-1.73Z"/><path class="cls-1" d="M202.12,175.43c.08,1.29-4.67,2.54-10.61,2.78s-10.82-.62-10.9-1.91,4.68-2.54,10.62-2.78S202.05,174.13,202.12,175.43Z"/><path class="cls-1" d="M210,180.39c0,.73-2.66,1.44-6,1.58s-6.15-.35-6.19-1.09,2.66-1.44,6-1.58S210,179.65,210,180.39Z"/><path class="cls-1" d="M222.25,175.61c0,.74-2.65,1.45-6,1.59s-6.15-.35-6.2-1.09,2.66-1.44,6-1.58S222.21,174.88,222.25,175.61Z"/><path d="M187.61,159.55a3.56,3.56,0,0,1-1.83-.51,3.51,3.51,0,0,1-1.16-4.82c4.94-8.07,10.71-12.27,17.15-12.49,10.38-.36,17.85,10.06,18.17,10.51a3.5,3.5,0,0,1-5.71,4c-.06-.07-5.67-7.82-12.25-7.55-3.93.14-7.76,3.22-11.38,9.14A3.49,3.49,0,0,1,187.61,159.55Z"/><path d="M286.63,159a3.5,3.5,0,0,1-2.88-5.48C289,145.79,295,141.9,301.37,142c10.39.18,17.43,11.07,17.73,11.53a3.51,3.51,0,1,1-5.92,3.76c-1.46-2.28-6.46-8.21-11.95-8.29h-.11c-3.86,0-7.76,2.84-11.59,8.44A3.52,3.52,0,0,1,286.63,159Z"/><path class="cls-2" d="M328.9,216.12c0-5.59,4-10.15,9-10.2l30.55-.27c5,0,9.14,4.45,9.18,10h0c0,5.59-4,10.15-9,10.2l-30.55.26c-5,0-9.14-4.45-9.18-10Z"/><path d="M346.4,210a1.24,1.24,0,0,0-1.67.52l-4,7.66a1.24,1.24,0,0,0,.52,1.67,1.21,1.21,0,0,0,.58.14,1.23,1.23,0,0,0,1.09-.66l4-7.66A1.23,1.23,0,0,0,346.4,210Z"/><path d="M355.47,211.24a1.23,1.23,0,0,0-1.67.52l-4.19,8a1.24,1.24,0,0,0,.53,1.67,1.17,1.17,0,0,0,.57.14,1.24,1.24,0,0,0,1.1-.66l4.19-8A1.24,1.24,0,0,0,355.47,211.24Z"/><path d="M363.09,212.92a1.24,1.24,0,0,0-1.67.52l-3.27,6.26a1.24,1.24,0,0,0,.52,1.67,1.34,1.34,0,0,0,.58.14,1.24,1.24,0,0,0,1.09-.67l3.27-6.25A1.24,1.24,0,0,0,363.09,212.92Z"/><path class="cls-2" d="M170.11,213.38c0,5.47-4,9.91-8.91,9.92l-29.93,0c-4.93,0-8.93-4.43-8.94-9.89h0c0-5.48,4-9.92,8.91-9.92l29.94-.05c4.93,0,8.92,4.42,8.93,9.9Z"/><path d="M158,209.67a1.21,1.21,0,0,0-1.64.51l-4,7.47a1.21,1.21,0,0,0,.51,1.64,1.15,1.15,0,0,0,.56.15,1.23,1.23,0,0,0,1.08-.65l4-7.48A1.21,1.21,0,0,0,158,209.67Z"/><path d="M149.34,208a1.22,1.22,0,0,0-1.64.5l-4.15,7.81a1.22,1.22,0,0,0,.5,1.64,1.17,1.17,0,0,0,.57.14,1.21,1.21,0,0,0,1.07-.64l4.15-7.81A1.21,1.21,0,0,0,149.34,208Z"/><path d="M141,208a1.22,1.22,0,0,0-1.64.5l-3.23,6.11a1.22,1.22,0,0,0,.51,1.64,1.25,1.25,0,0,0,.56.14,1.23,1.23,0,0,0,1.08-.65l3.22-6.1A1.21,1.21,0,0,0,141,208Z"/></svg>