<svg id="图层_1" data-name="图层 1" xmlns="http://www.w3.org/2000/svg" viewBox="0 0 500 500"><defs><style>.cls-1{fill:#fff;}.cls-2{fill:#ffe100;}</style></defs><title>画板 1 副本 52</title><path class="cls-1" d="M197.42,140.92a29.26,29.26,0,1,0,29.26,29.26A29.29,29.29,0,0,0,197.42,140.92Zm0,56.11a26.36,26.36,0,0,1-6.3-52,1.36,1.36,0,0,1,.88-.34h.77a25.9,25.9,0,0,1,9.29,0h.5a1.29,1.29,0,0,1,.79.26,26.36,26.36,0,0,1-5.93,52Z"/><path class="cls-2" d="M190.07,159.86c-3.26,4-8.54,6.25-15.73,6.57l.19,6.55c7,.31,12.15,2.5,15.28,6.53,3.67,4.72,3.49,10.61,3.14,13.42h7.57c-.13-2.87.15-9.24,4.42-14.26,3.45-4,8.67-6.24,15.54-6.56l-.18-5.68c-7.22-.3-12.53-2.51-15.8-6.57-3.58-4.46-3.66-9.87-3.44-12.5H193.5C193.73,150,193.65,155.4,190.07,159.86Z"/><path d="M197.42,134.85a35.33,35.33,0,1,0,35.32,35.33A35.37,35.37,0,0,0,197.42,134.85Zm0,64.59a29.26,29.26,0,1,1,29.26-29.26A29.29,29.29,0,0,1,197.42,199.44Z"/><path d="M203.35,145a1.29,1.29,0,0,0-.79-.26h-.5a25.9,25.9,0,0,0-9.29,0H192a1.36,1.36,0,0,0-.88.34,26.43,26.43,0,0,0-19.35,19.6.42.42,0,0,0,0,.12A26.35,26.35,0,1,0,203.35,145Zm-2.83,47.94H193c.35-2.81.53-8.7-3.14-13.42-3.13-4-8.27-6.22-15.28-6.53l-.19-6.55c7.19-.32,12.47-2.53,15.73-6.57,3.58-4.46,3.66-9.87,3.43-12.5h7.56c-.22,2.63-.14,8,3.44,12.5,3.27,4.06,8.58,6.27,15.8,6.57l.18,5.68c-6.87.32-12.09,2.53-15.54,6.56C200.67,183.69,200.39,190.06,200.52,192.93Z"/><path class="cls-1" d="M334.88,170.15a32.3,32.3,0,1,1-32.3-32.3A32.3,32.3,0,0,1,334.88,170.15Z"/><path class="cls-2" d="M298.67,147.32c.23,2.64.15,8.05-3.43,12.5-3.26,4.05-8.54,6.26-15.73,6.58l.19,6.55c7,.31,12.15,2.5,15.27,6.52,3.68,4.73,3.5,10.62,3.15,13.43h7.57c-.13-2.87.14-9.25,4.42-14.26,3.45-4,8.67-6.24,15.54-6.57l-.18-5.67c-7.22-.31-12.53-2.52-15.8-6.58-3.58-4.45-3.66-9.86-3.44-12.5Z"/><path d="M302.58,134.82a35.33,35.33,0,1,0,35.33,35.33A35.36,35.36,0,0,0,302.58,134.82Zm0,64.59a29.26,29.26,0,1,1,29.27-29.26A29.3,29.3,0,0,1,302.58,199.41Z"/><path d="M308.53,145a1.35,1.35,0,0,0-.8-.27h-.52a26.29,26.29,0,0,0-9.25,0h-.79a1.3,1.3,0,0,0-.88.35,26.43,26.43,0,0,0-19.35,19.59.5.5,0,0,0,0,.13A26.35,26.35,0,1,0,308.53,145ZM295,179.47c-3.12-4-8.26-6.21-15.27-6.52l-.19-6.55c7.19-.32,12.47-2.53,15.73-6.58,3.58-4.45,3.66-9.86,3.43-12.5h7.56c-.22,2.64-.14,8.05,3.44,12.5,3.27,4.06,8.58,6.27,15.8,6.58l.18,5.67c-6.87.33-12.09,2.53-15.54,6.57-4.28,5-4.55,11.39-4.42,14.26h-7.57C298.47,190.09,298.65,184.2,295,179.47Z"/></svg>