<svg id="图层_1" data-name="图层 1" xmlns="http://www.w3.org/2000/svg" viewBox="0 0 500 500"><defs><style>.cls-1{fill:#fff;}</style></defs><title>画板 1 副本 58</title><path class="cls-1" d="M324.68,204.43s17.19,1.92,17-17.14c-.15-13.84-9.05-16.92-13.91-17.21l-45.64.09s-17.19-1.47-17,17.58c.15,13.85,9.05,16.26,13.91,16.55Z"/><path class="cls-1" d="M175.32,204.43s-17.19,1.92-17-17.14c.15-13.84,9-16.92,13.91-17.21l45.64.09s17.19-1.47,17,17.58C234.72,201.6,225.82,204,221,204.3Z"/><path d="M241.89,162.32a5.65,5.65,0,0,0-6.36,4.83,5.66,5.66,0,0,1-.25,1.17,12.76,12.76,0,0,1-1.72,1l-.42.22c-.49.07-2.31.16-6.76-1.34l-.9-.31c-4.84-1.73-12.43-5.17-24.15-12-13.84-8.05-26.34-16.69-26.46-16.78a5.65,5.65,0,0,0-6.44,9.28c.54.37,13.26,9.18,27.71,17.54l1.5.87-25.38-.05h-.2c-8.14.48-16.89,6.11-17,20.5-.07,6.53,1.7,11.68,5.26,15.28,4.54,4.58,10.56,5.27,13.75,5.27.67,0,1.17,0,1.44-.05l45.5-.13h.19c4-.23,16.84-2.36,17-19.83a26.9,26.9,0,0,0-1-7.71l.18-.06a6.36,6.36,0,0,0,.59-.28l.8-.42c3.11-1.63,7-3.65,7.92-10.65A5.64,5.64,0,0,0,241.89,162.32ZM220,187.52A25.55,25.55,0,0,1,216.25,201h-2.83a22.6,22.6,0,0,0,4.07-13,23.93,23.93,0,0,0-3.6-12.69c1.42.65,2.75,1.23,4,1.75A26.72,26.72,0,0,1,220,187.52ZM176.56,201.1a24.17,24.17,0,0,1-4-13.58,28.2,28.2,0,0,1,3.85-14.1h3.49A24.62,24.62,0,0,0,175.11,188a22.32,22.32,0,0,0,4.2,13.11Zm-14.9-13.77c.12-10.82,6.18-13.3,9.72-13.82a33.21,33.21,0,0,0-3.23,14,29,29,0,0,0,3.18,13.4,11.51,11.51,0,0,1-6.32-3.06C162.74,195.57,161.61,192,161.66,187.33Zm59.68,13.6a30.45,30.45,0,0,0,3.07-13.41,31.57,31.57,0,0,0-1.15-8.48,36.94,36.94,0,0,0,7.19,1.68,18.89,18.89,0,0,1,1.1,7C231.46,195.87,228,200.3,221.34,200.93Z"/><path d="M327.94,166.76a.65.65,0,0,1-.2,0l-17,0c12.63-7,23.19-13.88,23.67-14.19a5.65,5.65,0,0,0-6.2-9.44c-.11.07-12.07,7.89-25.32,15.05a171.6,171.6,0,0,1-18,8.63h-2.66a22,22,0,0,0-10.65,2.24,4.16,4.16,0,0,1-1.87-3,5.65,5.65,0,0,0-11.21,1.38,15.09,15.09,0,0,0,5.28,9.82,24.55,24.55,0,0,0-2,10.5c.19,17.47,13.09,19.6,17,19.83H279l45.49.13c.27,0,.77.05,1.45.05,3.19,0,9.21-.69,13.75-5.27,3.56-3.6,5.33-8.75,5.26-15.28C344.83,172.87,336.08,167.24,327.94,166.76Zm-7.25,34.34a22.32,22.32,0,0,0,4.2-13.11,24.62,24.62,0,0,0-4.82-14.57h3.49a28.11,28.11,0,0,1,3.86,14.1,24.2,24.2,0,0,1-4,13.58ZM283.75,201A25.55,25.55,0,0,1,280,187.52a27.56,27.56,0,0,1,1-7.5c1-.25,2-.56,3.14-.92a24.08,24.08,0,0,0-1.7,8.89,22.61,22.61,0,0,0,4.08,13Zm-15.3-13.27a18.84,18.84,0,0,1,1.11-7,14.15,14.15,0,0,0,3.89.5,22.88,22.88,0,0,0,2.82-.2,32.65,32.65,0,0,0-.68,6.53,30.45,30.45,0,0,0,3.07,13.41C272,200.3,268.54,195.87,268.45,187.72ZM335,197.86a11.51,11.51,0,0,1-6.32,3.06,29,29,0,0,0,3.18-13.4,33.21,33.21,0,0,0-3.23-14c3.54.52,9.6,3,9.72,13.82C338.39,192,337.26,195.57,335,197.86Z"/></svg>